<svg width="62" height="62" viewBox="0 0 62 62" fill="none" xmlns="http://www.w3.org/2000/svg">
<path d="M17.4709 25.8925C17.4709 18.2199 23.6907 12 31.3633 12C39.0359 12 45.2558 18.2199 45.2558 25.8925V43.4624H17.4709V25.8925Z" fill="#757271"/>
<path d="M17.4709 34.4731H45.2558L48.382 39.7635C49.3477 41.3978 48.1696 43.4624 46.2713 43.4624H16.4553C14.5571 43.4624 13.379 41.3978 14.3447 39.7635L17.4709 34.4731Z" fill="#757271"/>
<path d="M27.6859 46.3226C27.6859 45.8713 28.0518 45.5054 28.5031 45.5054H34.2235C34.6749 45.5054 35.0407 45.8713 35.0407 46.3226C35.0407 48.3536 33.3943 50 31.3633 50C29.3323 50 27.6859 48.3536 27.6859 46.3226Z" fill="#757271"/>
</svg>
