<svg width="16" height="16" viewBox="0 0 16 16" fill="none" xmlns="http://www.w3.org/2000/svg">
<path d="M2.78379 3.34872C2.62806 3.50445 2.62806 3.75694 2.78379 3.91267L6.87243 8.0013L2.78379 12.0899C2.62806 12.2457 2.62806 12.4982 2.78379 12.6539L3.34774 13.2178C3.50347 13.3736 3.75596 13.3736 3.91169 13.2178L8.00033 9.1292L12.089 13.2178C12.2447 13.3736 12.4972 13.3736 12.6529 13.2178L13.2169 12.6539C13.3726 12.4982 13.3726 12.2457 13.2169 12.0899L9.12822 8.0013L13.2169 3.91267C13.3726 3.75694 13.3726 3.50445 13.2169 3.34872L12.6529 2.78477C12.4972 2.62904 12.2447 2.62904 12.089 2.78477L8.00033 6.8734L3.91169 2.78477C3.75596 2.62904 3.50347 2.62904 3.34774 2.78477L2.78379 3.34872Z" fill="#A7A5A4"/>
</svg>
