<svg width="23" height="23" viewBox="0 0 23 23" fill="none" xmlns="http://www.w3.org/2000/svg">
<path fill-rule="evenodd" clip-rule="evenodd" d="M8.78929 23L8.05 19.55C7.58452 19.3857 7.15327 19.1872 6.75625 18.9545C6.35923 18.7217 5.96905 18.4548 5.58571 18.1536L2.3 19.2214L0 15.2786L2.62857 12.9786C2.57381 12.4857 2.54643 11.9929 2.54643 11.5C2.54643 11.0071 2.57381 10.5143 2.62857 10.0214L0 7.72143L2.3 3.77857L5.58571 4.84643C5.96905 4.54524 6.35923 4.27827 6.75625 4.04554C7.15327 3.8128 7.58452 3.61429 8.05 3.45L8.78929 0H13.3893L14.1286 3.45C14.594 3.61429 15.0253 3.8128 15.4223 4.04554C15.8193 4.27827 16.2095 4.54524 16.5929 4.84643L19.8786 3.77857L22.1786 7.72143L19.55 10.0214C19.6048 10.5143 19.6321 11.0071 19.6321 11.5C19.6321 11.9929 19.6048 12.4857 19.55 12.9786L22.1786 15.2786L19.8786 19.2214L16.5929 18.1536C16.2095 18.4548 15.8193 18.7217 15.4223 18.9545C15.0253 19.1872 14.594 19.3857 14.1286 19.55L13.3893 23H8.78929ZM11.0893 16.4286C12.4583 16.4286 13.622 15.9494 14.5804 14.9911C15.5387 14.0327 16.0179 12.869 16.0179 11.5C16.0179 10.131 15.5387 8.96726 14.5804 8.00893C13.622 7.05059 12.4583 6.57143 11.0893 6.57143C9.72024 6.57143 8.55655 7.05059 7.59821 8.00893C6.63988 8.96726 6.16071 10.131 6.16071 11.5C6.16071 12.869 6.63988 14.0327 7.59821 14.9911C8.55655 15.9494 9.72024 16.4286 11.0893 16.4286Z" fill="black"/>
</svg>
