<svg width="20" height="19" viewBox="0 0 20 19" fill="none" xmlns="http://www.w3.org/2000/svg">
<path d="M8.25168 3.14697C9.01369 1.77535 10.9863 1.77535 11.7483 3.14697L18.3493 15.0287C19.0899 16.3618 18.1259 18 16.601 18H3.39903C1.87406 18 0.910124 16.3618 1.65071 15.0287L8.25168 3.14697Z" fill="black"/>
<path d="M10.6332 13.0391H9.66642L9.57853 8.00977H10.7211L10.6332 13.0391ZM10.1547 15.1484C10.031 15.1484 9.91382 15.1175 9.80314 15.0557C9.69572 14.9938 9.61108 14.9092 9.54923 14.8018C9.48738 14.6943 9.45809 14.5788 9.46134 14.4551C9.45809 14.3314 9.48738 14.2158 9.54923 14.1084C9.61108 14.001 9.69572 13.9163 9.80314 13.8545C9.91382 13.7926 10.031 13.7617 10.1547 13.7617C10.2751 13.7617 10.3891 13.7926 10.4965 13.8545C10.6039 13.9163 10.6886 14.001 10.7504 14.1084C10.8155 14.2158 10.8481 14.3314 10.8481 14.4551C10.8481 14.5788 10.8155 14.6943 10.7504 14.8018C10.6886 14.9092 10.6039 14.9938 10.4965 15.0557C10.3891 15.1175 10.2751 15.1484 10.1547 15.1484Z" fill="white"/>
</svg>
