<svg width="24" height="24" viewBox="0 0 24 24" fill="none" xmlns="http://www.w3.org/2000/svg">
<g clip-path="url(#clip0_785_22545)">
<path d="M2.59707 2.79639H2.13728C1.19528 2.79639 0.431641 3.56125 0.431641 4.50475V22.2918C0.431641 23.2353 1.19528 24.0001 2.13728 24.0001H21.8023C22.7443 24.0001 23.5079 23.2353 23.5079 22.2918V4.50475C23.5079 3.56125 22.7443 2.79639 21.8023 2.79639H21.3076V3.51309C21.3076 5.36982 19.7824 6.87501 17.901 6.87501C16.0197 6.87501 14.4945 5.36982 14.4945 3.51309V2.79639H9.41014V3.51309C9.41014 5.36982 7.88498 6.87501 6.0036 6.87501C4.12223 6.87501 2.59707 5.36982 2.59707 3.51309V2.79639Z" fill="#757271"/>
<path d="M4.45315 1.5163C4.45315 0.678871 5.15501 0 6.02079 0C6.88657 0 7.58843 0.678871 7.58843 1.5163V3.47282C7.58843 4.31025 6.88657 4.98912 6.02079 4.98912C5.15501 4.98912 4.45315 4.31025 4.45315 3.47282V1.5163Z" fill="#757271"/>
<path d="M16.2863 1.5163C16.2863 0.678871 16.9881 0 17.8539 0C18.7197 0 19.4216 0.678871 19.4216 1.5163V3.47282C19.4216 4.31025 18.7197 4.98912 17.8539 4.98912C16.9881 4.98912 16.2863 4.31025 16.2863 3.47282V1.5163Z" fill="#757271"/>
<path d="M9.63472 11.0584C9.63472 10.8021 9.84247 10.5944 10.0987 10.5944H13.8109C14.0672 10.5944 14.2749 10.8021 14.2749 11.0584V14.7703C14.2749 15.0265 14.0672 15.2343 13.8109 15.2343H10.0987C9.84247 15.2343 9.63472 15.0265 9.63472 14.7703V11.0584Z" fill="#A7A5A4"/>
<path d="M9.63472 16.8582C9.63472 16.602 9.84247 16.3942 10.0987 16.3942H13.8109C14.0672 16.3942 14.2749 16.602 14.2749 16.8582V20.5701C14.2749 20.8264 14.0672 21.0341 13.8109 21.0341H10.0987C9.84247 21.0341 9.63472 20.8264 9.63472 20.5701V16.8582Z" fill="#A7A5A4"/>
<path d="M3.67979 11.0584C3.67979 10.8021 3.88753 10.5944 4.14381 10.5944H7.85597C8.11224 10.5944 8.31999 10.8021 8.31999 11.0584V14.7703C8.31999 15.0265 8.11224 15.2343 7.85597 15.2343H4.14381C3.88753 15.2343 3.67979 15.0265 3.67979 14.7703V11.0584Z" fill="#A7A5A4"/>
<path d="M3.67979 16.8582C3.67979 16.602 3.88753 16.3942 4.14381 16.3942H7.85597C8.11224 16.3942 8.31999 16.602 8.31999 16.8582V20.5701C8.31999 20.8264 8.11224 21.0341 7.85597 21.0341H4.14381C3.88753 21.0341 3.67979 20.8264 3.67979 20.5701V16.8582Z" fill="#A7A5A4"/>
<path d="M15.5896 11.0584C15.5896 10.8021 15.7974 10.5944 16.0537 10.5944H19.7658C20.0221 10.5944 20.2299 10.8021 20.2299 11.0584V14.7703C20.2299 15.0265 20.0221 15.2343 19.7658 15.2343H16.0537C15.7974 15.2343 15.5896 15.0265 15.5896 14.7703V11.0584Z" fill="#A7A5A4"/>
<path d="M15.5896 16.8582C15.5896 16.602 15.7974 16.3942 16.0537 16.3942H19.7658C20.0221 16.3942 20.2299 16.602 20.2299 16.8582V20.5701C20.2299 20.8264 20.0221 21.0341 19.7658 21.0341H16.0537C15.7974 21.0341 15.5896 20.8264 15.5896 20.5701V16.8582Z" fill="#A7A5A4"/>
</g>
<defs>
<clipPath id="clip0_785_22545">
<rect width="24" height="24.0001" fill="white"/>
</clipPath>
</defs>
</svg>
