<svg width="34" height="34" viewBox="0 0 34 34" fill="none" xmlns="http://www.w3.org/2000/svg">
<path d="M8.50033 2.83398H21.2503C22.0018 2.83398 22.7224 3.1325 23.2538 3.66385C23.7851 4.1952 24.0837 4.91587 24.0837 5.66732V8.50065H21.2503V5.66732H8.50033V28.334H21.2503V25.5007H24.0837V28.334C24.0837 29.0854 23.7851 29.8061 23.2538 30.3375C22.7224 30.8688 22.0018 31.1673 21.2503 31.1673H8.50033C7.74888 31.1673 7.02821 30.8688 6.49686 30.3375C5.9655 29.8061 5.66699 29.0854 5.66699 28.334V5.66732C5.66699 4.91587 5.9655 4.1952 6.49686 3.66385C7.02821 3.1325 7.74888 2.83398 8.50033 2.83398Z" fill="#979797"/>
<path d="M22.7942 22.0852L24.7917 24.0827L31.875 16.9993L24.7917 9.91602L22.7942 11.9135L26.4492 15.5827H12.75V18.416H26.4492L22.7942 22.0852Z" fill="#979797"/>
</svg>
