<svg width="32" height="32" viewBox="0 0 32 32" fill="none" xmlns="http://www.w3.org/2000/svg">
<path fill-rule="evenodd" clip-rule="evenodd" d="M13.3225 27.5629C20.6802 27.5629 26.6449 21.3927 26.6449 13.7815C26.6449 6.17017 20.6802 0 13.3225 0C5.96467 0 0 6.17017 0 13.7815C0 21.3927 5.96467 27.5629 13.3225 27.5629ZM13.3225 23.1529C18.3258 23.1529 22.3817 18.9571 22.3817 13.7815C22.3817 8.60578 18.3258 4.41007 13.3225 4.41007C8.31916 4.41007 4.26319 8.60578 4.26319 13.7815C4.26319 18.9571 8.31916 23.1529 13.3225 23.1529Z" fill="#757271"/>
<path d="M20.7078 24.0218C19.7192 22.9992 19.7192 21.3413 20.7078 20.3187C21.6963 19.2961 23.299 19.2961 24.2875 20.3187L31.2586 27.53C32.2471 28.5526 32.2471 30.2105 31.2586 31.2331C30.2701 32.2556 28.6674 32.2556 27.6789 31.2331L20.7078 24.0218Z" fill="#757271"/>
</svg>
