<svg width="10" height="10" viewBox="0 0 10 10" fill="none" xmlns="http://www.w3.org/2000/svg">
<path d="M0.782078 1.60842C0.675698 1.50929 0.669814 1.3427 0.768936 1.23632L1.12789 0.851087C1.22701 0.744708 1.3936 0.738823 1.49998 0.837945L9.39731 8.19643C9.50369 8.29555 9.50957 8.46214 9.41045 8.56852L9.0515 8.95376C8.95238 9.06014 8.78579 9.06602 8.67941 8.9669L0.782078 1.60842Z" fill="#FF6414"/>
<path d="M1.80237 9.3961C1.70325 9.50248 1.53666 9.50837 1.43028 9.40925L1.04504 9.0503C0.938665 8.95117 0.932781 8.78458 1.0319 8.6782L8.39039 0.780872C8.48951 0.674492 8.6561 0.668608 8.76248 0.767729L9.14771 1.12668C9.25409 1.2258 9.25998 1.39239 9.16086 1.49877L1.80237 9.3961Z" fill="#FF6414"/>
</svg>
