<svg width="100" height="130" viewBox="0 0 100 130" fill="none" xmlns="http://www.w3.org/2000/svg">
<rect x="25" width="4" height="14" fill="black"/>
<rect x="10.9351" y="4.96094" width="4" height="14" transform="rotate(-18 10.9351 4.96094)" fill="black"/>
<rect width="4" height="14" transform="matrix(-0.987688 -0.156434 -0.156434 0.987688 41.0703 3.39941)" fill="black"/>
<path d="M52.6786 70C52.6786 86.3537 49.6562 101.064 44.8529 111.612C39.9695 122.337 33.624 128.036 27.3214 128.036C21.0189 128.036 14.6734 122.337 9.78993 111.612C4.98668 101.064 1.96429 86.3537 1.96429 70C1.96429 53.6463 4.98668 38.9359 9.78993 28.3876C14.6734 17.6632 21.0189 11.9643 27.3214 11.9643C33.624 11.9643 39.9695 17.6632 44.8529 28.3876C49.6562 38.9359 52.6786 53.6463 52.6786 70Z" fill="white" stroke="black" stroke-width="3.92857"/>
<rect x="71.0649" width="4" height="14" fill="black"/>
<rect x="57" y="4.96094" width="4" height="14" transform="rotate(-18 57 4.96094)" fill="black"/>
<rect width="4" height="14" transform="matrix(-0.987688 -0.156434 -0.156434 0.987688 87.1353 3.39941)" fill="black"/>
<path d="M97.6786 70C97.6786 86.3537 94.6562 101.064 89.8529 111.612C84.9695 122.337 78.624 128.036 72.3214 128.036C66.0189 128.036 59.6734 122.337 54.7899 111.612C49.9867 101.064 46.9643 86.3537 46.9643 70C46.9643 53.6463 49.9867 38.9359 54.7899 28.3876C59.6734 17.6632 66.0189 11.9643 72.3214 11.9643C78.624 11.9643 84.9695 17.6632 89.8529 28.3876C94.6562 38.9359 97.6786 53.6463 97.6786 70Z" fill="white" stroke="black" stroke-width="3.92857"/>
<ellipse cx="33.3214" cy="91.7143" rx="17.3214" ry="27.7143" fill="black"/>
<ellipse cx="77.2511" cy="91.7143" rx="17.3214" ry="27.7143" fill="black"/>
</svg>
