<svg width="32" height="32" viewBox="0 0 32 32" fill="none" xmlns="http://www.w3.org/2000/svg">
<path d="M13.75 20.25C13.75 19.1454 12.8546 18.25 11.75 18.25H2.25C1.14543 18.25 0.25 17.3546 0.25 16.25V15.75C0.25 14.6454 1.14543 13.75 2.25 13.75H11.75C12.8546 13.75 13.75 12.8546 13.75 11.75V2.25C13.75 1.14543 14.6454 0.25 15.75 0.25H16.25C17.3546 0.25 18.25 1.14543 18.25 2.25V11.75C18.25 12.8546 19.1454 13.75 20.25 13.75H29.75C30.8546 13.75 31.75 14.6454 31.75 15.75V16.25C31.75 17.3546 30.8546 18.25 29.75 18.25H20.25C19.1454 18.25 18.25 19.1454 18.25 20.25V29.75C18.25 30.8546 17.3546 31.75 16.25 31.75H15.75C14.6454 31.75 13.75 30.8546 13.75 29.75V20.25Z" fill="white"/>
</svg>
