<svg width="31" height="29" viewBox="0 0 31 29" fill="none" xmlns="http://www.w3.org/2000/svg">
<path d="M15.4997 28.3716L13.2643 26.3675C10.6691 24.0293 8.52363 22.0122 6.8278 20.3164C5.13197 18.6206 3.78301 17.0982 2.78092 15.7492C1.77884 14.4003 1.07867 13.1605 0.680404 12.0299C0.28214 10.8994 0.0830078 9.74314 0.0830078 8.5612C0.0830078 6.14592 0.892383 4.12891 2.51113 2.51016C4.12988 0.891406 6.1469 0.0820312 8.56217 0.0820312C9.89829 0.0820312 11.1702 0.36467 12.3778 0.929948C13.5854 1.49523 14.6261 2.29175 15.4997 3.31953C16.3733 2.29175 17.4139 1.49523 18.6215 0.929948C19.8292 0.36467 21.1011 0.0820312 22.4372 0.0820312C24.8525 0.0820312 26.8695 0.891406 28.4882 2.51016C30.107 4.12891 30.9163 6.14592 30.9163 8.5612C30.9163 9.74314 30.7172 10.8994 30.3189 12.0299C29.9207 13.1605 29.2205 14.4003 28.2184 15.7492C27.2163 17.0982 25.8674 18.6206 24.1715 20.3164C22.4757 22.0122 20.3302 24.0293 17.7351 26.3675L15.4997 28.3716Z" fill="#FF6414"/>
</svg>
