<svg width="48" height="48" viewBox="0 0 48 48" fill="none" xmlns="http://www.w3.org/2000/svg">
<path d="M24 33C28.9706 33 33 28.9706 33 24C33 19.0294 28.9706 15 24 15C19.0294 15 15 19.0294 15 24C15 28.9706 19.0294 33 24 33Z" fill="#FF6414"/>
<path fill-rule="evenodd" clip-rule="evenodd" d="M38 24C38 31.732 31.732 38 24 38C16.268 38 10 31.732 10 24C10 16.268 16.268 10 24 10C31.732 10 38 16.268 38 24ZM35 24C35 30.0751 30.0751 35 24 35C17.9249 35 13 30.0751 13 24C13 17.9249 17.9249 13 24 13C30.0751 13 35 17.9249 35 24Z" fill="#FF6414"/>
</svg>
