<svg width="14" height="10" viewBox="0 0 14 10" fill="none" xmlns="http://www.w3.org/2000/svg">
<path d="M13.1029 3.66066C13.1029 3.66651 13.1029 3.67182 13.0991 3.67767L11.8611 9.19799C11.823 9.39237 11.7165 9.56773 11.5598 9.69384C11.4032 9.81996 11.2063 9.88894 11.0031 9.88889H3.00281C2.79966 9.88881 2.60289 9.81978 2.44638 9.69368C2.28986 9.56757 2.1834 9.39228 2.14531 9.19799L0.907358 3.67767C0.907358 3.67182 0.904629 3.66651 0.903537 3.66066C0.869656 3.47789 0.898161 3.28935 0.984698 3.12384C1.07123 2.95833 1.21104 2.82495 1.38276 2.74409C1.55448 2.66324 1.74867 2.63934 1.93564 2.67606C2.12262 2.71278 2.29212 2.80809 2.41822 2.94744L4.25604 4.87612L6.21012 0.608994V0.60368C6.27999 0.456117 6.39183 0.331137 6.53238 0.243534C6.67294 0.155932 6.83633 0.109375 7.00321 0.109375C7.1701 0.109375 7.33349 0.155932 7.47404 0.243534C7.6146 0.331137 7.72643 0.456117 7.79631 0.60368V0.608994L9.75039 4.87612L11.5882 2.94744C11.7146 2.80913 11.8838 2.71475 12.0703 2.67863C12.2568 2.64251 12.4503 2.66662 12.6214 2.74731C12.7925 2.828 12.9319 2.96085 13.0184 3.1257C13.1049 3.29054 13.1338 3.47837 13.1007 3.66066H13.1029Z" fill="white"/>
</svg>
