<svg width="33" height="31" viewBox="0 0 33 31" fill="none" xmlns="http://www.w3.org/2000/svg">
<path d="M25.3578 21.35C23.577 23.1308 21.3212 25.2516 18.5892 27.7131C18.589 27.7134 18.5887 27.7136 18.5885 27.7138L16.5 29.5862L14.4115 27.7138C14.4113 27.7136 14.411 27.7134 14.4108 27.7131C11.6788 25.2516 9.42301 23.1308 7.64222 21.35C5.86322 19.571 4.45569 17.9814 3.41485 16.5802C2.37369 15.1787 1.65927 13.9076 1.25696 12.7655C0.851995 11.6159 0.65 10.4421 0.65 9.24219C0.65 6.79595 1.46545 4.77367 3.09222 3.14691C4.71899 1.52014 6.74126 0.704688 9.1875 0.704688C10.5374 0.704688 11.8201 0.989778 13.0398 1.56071C14.2601 2.13194 15.3111 2.93609 16.1952 3.97625L16.5 4.33481L16.8048 3.97625C17.6889 2.93609 18.7399 2.13194 19.9602 1.56071C21.1799 0.989778 22.4627 0.704688 23.8125 0.704688C26.2587 0.704688 28.281 1.52014 29.9078 3.14691C31.5346 4.77367 32.35 6.79595 32.35 9.24219C32.35 10.4421 32.148 11.6159 31.743 12.7655C31.3407 13.9076 30.6263 15.1787 29.5852 16.5802C28.5443 17.9814 27.1368 19.571 25.3578 21.35ZM16.2331 26.0339L16.5 26.273L16.7669 26.0339C19.3698 23.7021 21.5148 21.6998 23.2004 20.0277C24.8859 18.3559 26.2251 16.8945 27.2137 15.6451C28.2018 14.3962 28.9044 13.2647 29.3034 12.253C29.6993 11.249 29.9 10.2447 29.9 9.24219C29.9 7.51824 29.3211 6.0601 28.1578 4.89684C26.9946 3.73359 25.5364 3.15469 23.8125 3.15469C22.4593 3.15469 21.2046 3.53765 20.0572 4.29779C18.995 5.00148 18.2274 5.89359 17.7715 6.97344H15.2285C14.7726 5.89359 14.005 5.00148 12.9428 4.29779C11.7954 3.53765 10.5407 3.15469 9.1875 3.15469C7.46356 3.15469 6.00541 3.73359 4.84216 4.89684C3.67891 6.0601 3.1 7.51824 3.1 9.24219C3.1 10.2447 3.30072 11.249 3.69664 12.253C4.09562 13.2647 4.79823 14.3962 5.78631 15.6451C6.77486 16.8945 8.11408 18.3559 9.79955 20.0277C11.4852 21.6998 13.6302 23.7021 16.2331 26.0339Z" fill="#A7A5A4" stroke="white" stroke-width="0.8"/>
</svg>
