<svg width="62" height="62" viewBox="0 0 62 62" fill="none" xmlns="http://www.w3.org/2000/svg">
<path d="M12 30.5C12 19.1782 21.1782 10 32.5 10C43.8218 10 53 19.1782 53 30.5C53 41.8218 43.8218 51 32.5 51C21.1782 51 12 41.8218 12 30.5Z" fill="#5A5857"/>
<path d="M45 47.226C41.6156 49.6022 37.4736 51 33 51C28.5264 51 24.3844 49.6022 21 47.226C21.0585 40.7503 26.4087 35.5185 33 35.5185C39.5913 35.5185 44.9415 40.7503 45 47.226Z" fill="#413F3F"/>
<path d="M25.5515 25.3333C25.5515 21.2832 28.8863 18 33.0001 18C37.1138 18 40.4487 21.2832 40.4487 25.3333C40.4487 29.3834 37.1138 32.6667 33.0001 32.6667C28.8863 32.6667 25.5515 29.3834 25.5515 25.3333Z" fill="#413F3F"/>
<path d="M54 31.5C54 42.8218 44.8218 52 33.5 52C22.1782 52 13 42.8218 13 31.5C13 20.1782 22.1782 11 33.5 11C44.8218 11 54 20.1782 54 31.5ZM17.4792 31.5C17.4792 40.348 24.652 47.5208 33.5 47.5208C42.348 47.5208 49.5208 40.348 49.5208 31.5C49.5208 22.652 42.348 15.4792 33.5 15.4792C24.652 15.4792 17.4792 22.652 17.4792 31.5Z" fill="#5A5857"/>
</svg>
