<svg width="36" height="36" viewBox="0 0 36 36" fill="none" xmlns="http://www.w3.org/2000/svg">
<path d="M6.06055 9.27119C6.06055 8.33398 6.82031 7.57422 7.75752 7.57422H28.606C29.5432 7.57422 30.303 8.33398 30.303 9.27119C30.303 10.2084 29.5432 10.9682 28.606 10.9682H7.75752C6.82031 10.9682 6.06055 10.2084 6.06055 9.27119Z" fill="#5A5857"/>
<path d="M6.06055 17.9985C6.06055 17.0613 6.82031 16.3015 7.75752 16.3015H28.606C29.5432 16.3015 30.303 17.0613 30.303 17.9985C30.303 18.9357 29.5432 19.6954 28.606 19.6954H7.75752C6.82031 19.6954 6.06055 18.9357 6.06055 17.9985Z" fill="#5A5857"/>
<path d="M7.75752 25.0288C6.82031 25.0288 6.06055 25.7885 6.06055 26.7257C6.06055 27.6629 6.82031 28.4227 7.75752 28.4227H28.606C29.5432 28.4227 30.303 27.6629 30.303 26.7257C30.303 25.7885 29.5432 25.0288 28.606 25.0288H7.75752Z" fill="#5A5857"/>
</svg>
