<svg width="240" height="36" viewBox="0 0 240 36" fill="none" xmlns="http://www.w3.org/2000/svg">
<path d="M240 0H0V36H240V0Z" fill="#F93C3C"/>
<path fill-rule="evenodd" clip-rule="evenodd" d="M41.2562 8.34664C42.0312 7.00424 43.9688 7.00424 44.7438 8.34664L54.7272 25.6384C55.5023 26.9808 54.5335 28.6588 52.9834 28.6588H33.0166C31.4665 28.6588 30.4977 26.9808 31.2728 25.6384L41.2562 8.34664ZM44.1578 14.7902C44.1578 15.4574 43.6169 15.9983 42.9497 15.9983C42.2824 15.9983 41.7415 15.4574 41.7415 14.7902C41.7415 14.1229 42.2824 13.582 42.9497 13.582C43.6169 13.582 44.1578 14.1229 44.1578 14.7902ZM44.1578 24.4554V17.4078H41.7415V24.4554H44.1578Z" fill="#413F3F"/>
<path d="M79.3058 12H80.9058V25.664H79.3058V12ZM72.8578 25.024C72.0258 25.024 71.3005 24.7893 70.6818 24.32C70.0631 23.8613 69.5778 23.1573 69.2258 22.208C68.8845 21.2587 68.7138 20.08 68.7138 18.672C68.7138 17.264 68.8845 16.0853 69.2258 15.136C69.5778 14.1867 70.0631 13.4827 70.6818 13.024C71.3005 12.5547 72.0258 12.32 72.8578 12.32C73.6791 12.32 74.3991 12.5547 75.0178 13.024C75.6365 13.4827 76.1165 14.1867 76.4578 15.136C76.8098 16.0853 76.9858 17.264 76.9858 18.672C76.9858 20.08 76.8098 21.2587 76.4578 22.208C76.1165 23.1573 75.6365 23.8613 75.0178 24.32C74.3991 24.7893 73.6791 25.024 72.8578 25.024ZM72.8578 23.568C73.6151 23.568 74.2285 23.168 74.6978 22.368C75.1671 21.5573 75.4018 20.3253 75.4018 18.672C75.4018 17.0293 75.1671 15.8027 74.6978 14.992C74.2285 14.1813 73.6151 13.776 72.8578 13.776C72.0898 13.776 71.4711 14.1813 71.0018 14.992C70.5325 15.792 70.2978 17.0187 70.2978 18.672C70.2978 20.3253 70.5271 21.5573 70.9858 22.368C71.4551 23.168 72.0791 23.568 72.8578 23.568ZM94.6964 12H96.2804V25.664H94.6964V12ZM84.3124 12.496H92.0564V24.848H84.3124V12.496ZM90.4724 23.36V13.984H85.8964V23.36H90.4724ZM104.379 12.16H116.075V13.44H105.963V15.6H116.235V16.88H104.379V12.16ZM103.403 18.208H117.051V19.488H103.403V18.208ZM110.219 25.712C108.427 25.712 106.977 25.5093 105.867 25.104C104.758 24.7093 104.203 24.0747 104.203 23.2C104.203 22.3253 104.753 21.6907 105.851 21.296C106.961 20.9013 108.417 20.704 110.219 20.704C112.022 20.704 113.473 20.9013 114.571 21.296C115.681 21.6907 116.235 22.3253 116.235 23.2C116.235 24.0747 115.681 24.7093 114.571 25.104C113.462 25.5093 112.011 25.712 110.219 25.712ZM110.219 24.464C111.467 24.464 112.502 24.3627 113.323 24.16C114.155 23.9573 114.571 23.6373 114.571 23.2C114.571 22.7733 114.155 22.4587 113.323 22.256C112.502 22.0533 111.467 21.952 110.219 21.952C108.971 21.952 107.931 22.0533 107.099 22.256C106.278 22.4587 105.867 22.7733 105.867 23.2C105.867 23.6373 106.278 23.9573 107.099 24.16C107.931 24.3627 108.971 24.464 110.219 24.464ZM132.442 19.536V20.8H118.794V19.536H124.826V18.192H119.786V14.56H129.914V13.392H119.786V12.16H131.466V15.728H121.338V16.96H131.658V18.192H126.394V19.536H132.442ZM119.626 21.984H131.482V25.68H129.882V23.264H119.626V21.984ZM143.417 14.592H134.137V13.296H137.977V11.76H139.577V13.296H143.417V14.592ZM148.473 15.744V17.264H146.553V22.24H144.969V12H146.553V15.744H148.473ZM138.777 20.96C138.009 20.96 137.315 20.8533 136.697 20.64C136.089 20.416 135.609 20.0907 135.257 19.664C134.905 19.2373 134.729 18.736 134.729 18.16C134.729 17.584 134.905 17.0827 135.257 16.656C135.609 16.2293 136.089 15.9093 136.697 15.696C137.315 15.472 138.009 15.36 138.777 15.36C139.545 15.36 140.233 15.472 140.841 15.696C141.449 15.9093 141.929 16.2293 142.281 16.656C142.633 17.072 142.809 17.5733 142.809 18.16C142.809 18.7467 142.633 19.2533 142.281 19.68C141.929 20.096 141.449 20.416 140.841 20.64C140.233 20.8533 139.545 20.96 138.777 20.96ZM138.777 16.576C138.019 16.576 137.411 16.7253 136.953 17.024C136.494 17.3227 136.265 17.7013 136.265 18.16C136.265 18.6293 136.494 19.0133 136.953 19.312C137.411 19.6 138.019 19.744 138.777 19.744C139.534 19.744 140.142 19.6 140.601 19.312C141.059 19.0133 141.289 18.6293 141.289 18.16C141.289 17.7013 141.059 17.3227 140.601 17.024C140.142 16.7253 139.534 16.576 138.777 16.576ZM136.729 24.08H146.921V25.488H135.129V21.744H136.729V24.08ZM167.196 12V25.664H165.692V18.976H163.468V25.424H161.964V12.08H163.468V17.504H165.692V12H167.196ZM157.036 23.44C158.7 23.44 160.017 23.232 160.988 22.816V24.24C160.54 24.4427 159.969 24.592 159.276 24.688C158.582 24.7947 157.809 24.848 156.956 24.848H154.476V12.496H160.46V13.904H155.996V17.856H160.268V19.264H155.996V23.44H157.036ZM180.522 13.968H170.282V12.48H182.186V21.952H180.522V13.968ZM169.45 23.52H183.098V25.008H169.45V23.52ZM197.977 12V25.664H196.489V12H197.977ZM193.257 12.08H194.713V25.424H193.257V21.712H191.081C190.868 22.832 190.516 23.664 190.025 24.208C189.545 24.752 188.926 25.024 188.169 25.024C187.124 25.024 186.334 24.512 185.801 23.488C185.278 22.4533 185.017 20.848 185.017 18.672C185.017 16.496 185.278 14.896 185.801 13.872C186.334 12.8373 187.124 12.32 188.169 12.32C189.598 12.32 190.532 13.2693 190.969 15.168H193.257V12.08ZM188.169 23.584C188.734 23.584 189.15 23.1893 189.417 22.4C189.684 21.6 189.817 20.3573 189.817 18.672C189.817 16.9867 189.684 15.7493 189.417 14.96C189.15 14.16 188.734 13.76 188.169 13.76C187.604 13.76 187.182 14.16 186.905 14.96C186.638 15.76 186.505 16.9973 186.505 18.672C186.505 20.3467 186.638 21.584 186.905 22.384C187.182 23.184 187.604 23.584 188.169 23.584ZM193.257 20.256V16.624H191.209C191.273 17.232 191.305 17.9147 191.305 18.672C191.305 19.248 191.289 19.776 191.257 20.256H193.257ZM213.88 23.552V25.008H200.232V23.552H203.368V19.856C202.578 19.4933 201.965 19.0187 201.528 18.432C201.101 17.8347 200.888 17.1573 200.888 16.4C200.888 15.568 201.138 14.8373 201.64 14.208C202.152 13.5787 202.872 13.0933 203.8 12.752C204.738 12.4107 205.821 12.24 207.048 12.24C208.274 12.24 209.352 12.4107 210.28 12.752C211.218 13.0933 211.938 13.5787 212.44 14.208C212.952 14.8373 213.208 15.568 213.208 16.4C213.208 17.1573 212.989 17.8347 212.552 18.432C212.125 19.0187 211.522 19.488 210.744 19.84V23.552H213.88ZM202.568 16.4C202.568 16.9333 202.754 17.408 203.128 17.824C203.501 18.2293 204.024 18.544 204.696 18.768C205.378 18.992 206.162 19.104 207.048 19.104C207.933 19.104 208.717 18.992 209.4 18.768C210.082 18.544 210.61 18.2293 210.984 17.824C211.357 17.408 211.544 16.9333 211.544 16.4C211.544 15.856 211.357 15.3813 210.984 14.976C210.61 14.56 210.082 14.24 209.4 14.016C208.717 13.792 207.933 13.68 207.048 13.68C206.162 13.68 205.378 13.792 204.696 14.016C204.024 14.24 203.501 14.56 203.128 14.976C202.754 15.3813 202.568 15.856 202.568 16.4ZM204.952 23.552H209.16V20.352C208.52 20.48 207.816 20.544 207.048 20.544C206.29 20.544 205.592 20.48 204.952 20.352V23.552Z" fill="#413F3F"/>
</svg>
