<svg width="282" height="36" viewBox="0 0 282 36" fill="none" xmlns="http://www.w3.org/2000/svg">
<path d="M282 0H0V36H282V0Z" fill="#FFC42D"/>
<path fill-rule="evenodd" clip-rule="evenodd" d="M38.2562 8.34731C39.0312 7.00492 40.9688 7.00492 41.7438 8.34732L51.7272 25.6391C52.5023 26.9815 51.5335 28.6595 49.9834 28.6595H30.0166C28.4665 28.6595 27.4977 26.9815 28.2728 25.6391L38.2562 8.34731ZM41.1578 14.7908C41.1578 15.4581 40.6169 15.999 39.9497 15.999C39.2824 15.999 38.7415 15.4581 38.7415 14.7908C38.7415 14.1236 39.2824 13.5827 39.9497 13.5827C40.6169 13.5827 41.1578 14.1236 41.1578 14.7908ZM41.1578 24.4561V17.4085H38.7415V24.4561H41.1578Z" fill="#413F3F"/>
<path d="M85.6206 22.21L89.5966 18.22C90.3059 17.5013 90.8146 16.8993 91.1226 16.414C91.4306 15.9193 91.5846 15.4713 91.5846 15.07C91.5846 14.4167 91.3792 13.908 90.9686 13.544C90.5579 13.1707 89.9979 12.984 89.2886 12.984C88.8032 12.984 88.3832 13.096 88.0286 13.32C87.6832 13.5347 87.4172 13.824 87.2306 14.188C87.0532 14.552 86.9646 14.9487 86.9646 15.378H85.4946C85.4946 14.6967 85.6486 14.076 85.9566 13.516C86.2739 12.956 86.7219 12.5127 87.3006 12.186C87.8792 11.85 88.5466 11.682 89.3026 11.682C90.0492 11.682 90.7026 11.822 91.2626 12.102C91.8319 12.382 92.2706 12.7787 92.5786 13.292C92.8866 13.8053 93.0406 14.3933 93.0406 15.056C93.0406 15.644 92.8632 16.2273 92.5086 16.806C92.1539 17.3847 91.5426 18.1173 90.6746 19.004L87.7346 21.888H93.4186V23.162H85.6206V22.21Z" fill="#413F3F"/>
<path d="M99.8061 18.416H94.9061V17.156H99.8061V18.416Z" fill="#413F3F"/>
<path d="M101.275 22.21L105.251 18.22C105.96 17.5013 106.469 16.8993 106.777 16.414C107.085 15.9193 107.239 15.4713 107.239 15.07C107.239 14.4167 107.034 13.908 106.623 13.544C106.212 13.1707 105.652 12.984 104.943 12.984C104.458 12.984 104.038 13.096 103.683 13.32C103.338 13.5347 103.072 13.824 102.885 14.188C102.708 14.552 102.619 14.9487 102.619 15.378H101.149C101.149 14.6967 101.303 14.076 101.611 13.516C101.928 12.956 102.376 12.5127 102.955 12.186C103.534 11.85 104.201 11.682 104.957 11.682C105.704 11.682 106.357 11.822 106.917 12.102C107.486 12.382 107.925 12.7787 108.233 13.292C108.541 13.8053 108.695 14.3933 108.695 15.056C108.695 15.644 108.518 16.2273 108.163 16.806C107.808 17.3847 107.197 18.1173 106.329 19.004L103.389 21.888H109.073V23.162H101.275V22.21Z" fill="#413F3F"/>
<path d="M114.634 23.414C113.832 23.414 113.118 23.1947 112.492 22.756C111.867 22.3173 111.377 21.6593 111.022 20.782C110.668 19.8953 110.49 18.8173 110.49 17.548C110.49 16.2787 110.668 15.2053 111.022 14.328C111.377 13.4413 111.867 12.7787 112.492 12.34C113.118 11.9013 113.832 11.682 114.634 11.682C115.437 11.682 116.146 11.9013 116.762 12.34C117.388 12.7787 117.878 13.4413 118.232 14.328C118.587 15.2053 118.764 16.2787 118.764 17.548C118.764 18.8173 118.587 19.8953 118.232 20.782C117.878 21.6593 117.388 22.3173 116.762 22.756C116.146 23.1947 115.437 23.414 114.634 23.414ZM114.634 22.112C115.148 22.112 115.61 21.9393 116.02 21.594C116.431 21.2487 116.753 20.7353 116.986 20.054C117.229 19.3727 117.35 18.5373 117.35 17.548C117.35 16.568 117.229 15.7373 116.986 15.056C116.753 14.3653 116.431 13.8473 116.02 13.502C115.61 13.1567 115.148 12.984 114.634 12.984C114.112 12.984 113.645 13.1567 113.234 13.502C112.824 13.8473 112.497 14.3653 112.254 15.056C112.021 15.7373 111.904 16.568 111.904 17.548C111.904 18.5373 112.021 19.3727 112.254 20.054C112.497 20.7353 112.824 21.2487 113.234 21.594C113.645 21.9393 114.112 22.112 114.634 22.112Z" fill="#413F3F"/>
<path d="M130.137 16.344H128.177V15.14H130.137V13.754H128.177V12.55H130.137V11.5H131.509V18.108H130.137V16.344ZM127.477 17.422H120.757V11.794H127.477V17.422ZM126.105 12.97H122.115V16.232H126.105V12.97ZM126.441 18.5C128 18.5 129.251 18.7007 130.193 19.102C131.145 19.5033 131.621 20.1287 131.621 20.978C131.621 21.8273 131.145 22.4527 130.193 22.854C129.251 23.2553 128 23.456 126.441 23.456C124.883 23.456 123.632 23.2553 122.689 22.854C121.747 22.4527 121.275 21.8273 121.275 20.978C121.275 20.1287 121.747 19.5033 122.689 19.102C123.632 18.7007 124.883 18.5 126.441 18.5ZM126.441 22.308C127.533 22.308 128.42 22.196 129.101 21.972C129.792 21.748 130.137 21.4167 130.137 20.978C130.137 20.5393 129.792 20.208 129.101 19.984C128.42 19.76 127.533 19.648 126.441 19.648C125.349 19.648 124.458 19.76 123.767 19.984C123.086 20.208 122.745 20.5393 122.745 20.978C122.745 21.4167 123.086 21.748 123.767 21.972C124.458 22.196 125.349 22.308 126.441 22.308Z" fill="#413F3F"/>
<path d="M147.416 11.5H148.816V23.456H147.416V11.5ZM141.774 22.896C141.046 22.896 140.411 22.6907 139.87 22.28C139.329 21.8787 138.904 21.2627 138.596 20.432C138.297 19.6013 138.148 18.57 138.148 17.338C138.148 16.106 138.297 15.0747 138.596 14.244C138.904 13.4133 139.329 12.7973 139.87 12.396C140.411 11.9853 141.046 11.78 141.774 11.78C142.493 11.78 143.123 11.9853 143.664 12.396C144.205 12.7973 144.625 13.4133 144.924 14.244C145.232 15.0747 145.386 16.106 145.386 17.338C145.386 18.57 145.232 19.6013 144.924 20.432C144.625 21.2627 144.205 21.8787 143.664 22.28C143.123 22.6907 142.493 22.896 141.774 22.896ZM141.774 21.622C142.437 21.622 142.973 21.272 143.384 20.572C143.795 19.8627 144 18.7847 144 17.338C144 15.9007 143.795 14.8273 143.384 14.118C142.973 13.4087 142.437 13.054 141.774 13.054C141.102 13.054 140.561 13.4087 140.15 14.118C139.739 14.818 139.534 15.8913 139.534 17.338C139.534 18.7847 139.735 19.8627 140.136 20.572C140.547 21.272 141.093 21.622 141.774 21.622Z" fill="#413F3F"/>
<path d="M162.605 11.5V23.456H161.289V17.618H159.343V23.246H158.027V11.57H159.343V16.316H161.289V11.5H162.605ZM154.373 21.51C154.877 21.51 155.371 21.468 155.857 21.384C156.351 21.3 156.785 21.188 157.159 21.048V22.28C156.813 22.4293 156.375 22.5413 155.843 22.616C155.32 22.7 154.779 22.742 154.219 22.742H151.475V11.906H152.833V21.51H154.373Z" fill="#413F3F"/>
<path d="M177.08 14.342V15.672H175.4V20.376H174.014V11.5H175.4V14.342H177.08ZM171.984 18.248H164.998V11.794H171.984V18.248ZM170.612 12.998H166.37V17.044H170.612V12.998ZM166.804 22.042H175.722V23.302H165.404V19.424H166.804V22.042Z" fill="#413F3F"/>
<path d="M194.47 17.674H192.79V23.456H191.404V11.5H192.79V16.344H194.47V17.674ZM182.402 11.934H188.912V14.818C188.912 16.3953 188.651 17.7813 188.128 18.976C187.606 20.1613 186.854 21.0807 185.874 21.734C184.894 22.3873 183.737 22.714 182.402 22.714V21.398C183.476 21.398 184.39 21.132 185.146 20.6C185.912 20.0587 186.495 19.298 186.896 18.318C187.298 17.338 187.498 16.1807 187.498 14.846V13.208H182.402V11.934Z" fill="#413F3F"/>
<path d="M196.289 11.5H197.689V14.594H206.663V15.714H196.289V11.5ZM195.435 16.904H207.377V18.024H195.435V16.904ZM201.399 23.484C199.831 23.484 198.562 23.3067 197.591 22.952C196.63 22.6067 196.149 22.0513 196.149 21.286C196.149 20.5207 196.63 19.9653 197.591 19.62C198.562 19.2747 199.831 19.102 201.399 19.102C202.967 19.102 204.232 19.2747 205.193 19.62C206.164 19.9653 206.649 20.5207 206.649 21.286C206.649 22.0513 206.164 22.6067 205.193 22.952C204.232 23.3067 202.967 23.484 201.399 23.484ZM201.399 22.392C202.482 22.392 203.382 22.3033 204.101 22.126C204.829 21.9487 205.193 21.6687 205.193 21.286C205.193 20.9127 204.829 20.6373 204.101 20.46C203.382 20.2827 202.482 20.194 201.399 20.194C200.316 20.194 199.411 20.2827 198.683 20.46C197.964 20.6373 197.605 20.9127 197.605 21.286C197.605 21.6687 197.964 21.9487 198.683 22.126C199.411 22.3033 200.316 22.392 201.399 22.392Z" fill="#413F3F"/>
<path d="M212.514 13.362H215.02V14.608H208.636V13.362H211.142V11.472H212.514V13.362ZM220.396 11.5V23.456H219.108V17.618H217.19V23.246H215.902V11.57H217.19V16.316H219.108V11.5H220.396ZM211.884 15.546C212.425 15.546 212.906 15.6907 213.326 15.98C213.746 16.26 214.072 16.6753 214.306 17.226C214.548 17.7767 214.67 18.4393 214.67 19.214C214.67 19.9887 214.548 20.6513 214.306 21.202C214.072 21.7527 213.746 22.168 213.326 22.448C212.906 22.7373 212.425 22.882 211.884 22.882C211.342 22.882 210.862 22.7373 210.442 22.448C210.031 22.168 209.704 21.7527 209.462 21.202C209.229 20.6513 209.112 19.9887 209.112 19.214C209.112 18.4393 209.229 17.7767 209.462 17.226C209.704 16.6753 210.031 16.26 210.442 15.98C210.862 15.6907 211.342 15.546 211.884 15.546ZM211.884 21.664C212.332 21.664 212.696 21.4493 212.976 21.02C213.256 20.5813 213.396 19.9793 213.396 19.214C213.396 18.4487 213.256 17.8513 212.976 17.422C212.696 16.9833 212.332 16.764 211.884 16.764C211.445 16.764 211.086 16.9833 210.806 17.422C210.535 17.8513 210.4 18.4487 210.4 19.214C210.4 19.9793 210.535 20.5813 210.806 21.02C211.086 21.4493 211.445 21.664 211.884 21.664Z" fill="#413F3F"/>
<path d="M234.311 21.608V22.882H222.369V21.608H225.113V18.374C224.422 18.0567 223.885 17.6413 223.503 17.128C223.129 16.6053 222.943 16.0127 222.943 15.35C222.943 14.622 223.162 13.9827 223.601 13.432C224.049 12.8813 224.679 12.4567 225.491 12.158C226.312 11.8593 227.259 11.71 228.333 11.71C229.406 11.71 230.349 11.8593 231.161 12.158C231.982 12.4567 232.612 12.8813 233.051 13.432C233.499 13.9827 233.723 14.622 233.723 15.35C233.723 16.0127 233.531 16.6053 233.149 17.128C232.775 17.6413 232.248 18.052 231.567 18.36V21.608H234.311ZM224.413 15.35C224.413 15.8167 224.576 16.232 224.903 16.596C225.229 16.9507 225.687 17.226 226.275 17.422C226.872 17.618 227.558 17.716 228.333 17.716C229.107 17.716 229.793 17.618 230.391 17.422C230.988 17.226 231.45 16.9507 231.777 16.596C232.103 16.232 232.267 15.8167 232.267 15.35C232.267 14.874 232.103 14.4587 231.777 14.104C231.45 13.74 230.988 13.46 230.391 13.264C229.793 13.068 229.107 12.97 228.333 12.97C227.558 12.97 226.872 13.068 226.275 13.264C225.687 13.46 225.229 13.74 224.903 14.104C224.576 14.4587 224.413 14.874 224.413 15.35ZM226.499 21.608H230.181V18.808C229.621 18.92 229.005 18.976 228.333 18.976C227.67 18.976 227.059 18.92 226.499 18.808V21.608Z" fill="#413F3F"/>
</svg>
