<svg width="62" height="62" viewBox="0 0 62 62" fill="none" xmlns="http://www.w3.org/2000/svg">
<path fill-rule="evenodd" clip-rule="evenodd" d="M27.4224 45.9356C37.2536 45.9356 45.2234 37.9658 45.2234 28.1345C45.2234 18.3033 37.2536 10.3335 27.4224 10.3335C17.5911 10.3335 9.62134 18.3033 9.62134 28.1345C9.62134 37.9658 17.5911 45.9356 27.4224 45.9356ZM27.4224 40.2393C34.1076 40.2393 39.5271 34.8198 39.5271 28.1345C39.5271 21.4493 34.1076 16.0298 27.4224 16.0298C20.7371 16.0298 15.3177 21.4493 15.3177 28.1345C15.3177 34.8198 20.7371 40.2393 27.4224 40.2393Z" fill="#757271"/>
<path d="M37.2904 41.3616C35.9696 40.0408 35.9696 37.8993 37.2904 36.5785C38.6112 35.2577 40.7527 35.2577 42.0736 36.5785L51.3881 45.8931C52.709 47.2139 52.709 49.3554 51.3881 50.6762C50.0673 51.997 47.9258 51.997 46.605 50.6762L37.2904 41.3616Z" fill="#757271"/>
</svg>
