<svg width="48" height="48" viewBox="0 0 48 48" fill="none" xmlns="http://www.w3.org/2000/svg">
<path d="M6.39419 8.29752C5.8686 8.82311 5.8686 9.67526 6.39419 10.2009L20.1933 24L6.39419 37.7991C5.8686 38.3247 5.8686 39.1769 6.39419 39.7025L8.29752 41.6058C8.82311 42.1314 9.67526 42.1314 10.2009 41.6058L24 27.8067L37.7991 41.6058C38.3247 42.1314 39.1769 42.1314 39.7025 41.6058L41.6058 39.7025C42.1314 39.1769 42.1314 38.3247 41.6058 37.7991L27.8067 24L41.6058 10.2009C42.1314 9.67526 42.1314 8.82311 41.6058 8.29752L39.7025 6.39419C39.1769 5.8686 38.3247 5.8686 37.7991 6.39419L24 20.1933L10.2009 6.39419C9.67526 5.8686 8.82311 5.8686 8.29752 6.39419L6.39419 8.29752Z" fill="#A7A5A4"/>
</svg>
