<svg width="10" height="11" viewBox="0 0 10 11" fill="none" xmlns="http://www.w3.org/2000/svg">
<path d="M0.000488281 10.998V8.99805H10.0005V10.998H0.000488281ZM2.00049 6.99805H2.70049L6.60049 3.11055L5.88799 2.39805L2.00049 6.29805V6.99805ZM1.00049 7.99805V5.87305L6.60049 0.285547C6.69215 0.19388 6.79841 0.123047 6.91924 0.0730469C7.04007 0.0230469 7.16716 -0.00195312 7.30049 -0.00195312C7.43382 -0.00195312 7.56299 0.0230469 7.68799 0.0730469C7.81299 0.123047 7.92549 0.198047 8.02549 0.298047L8.71299 0.998047C8.81299 1.08971 8.88591 1.19805 8.93174 1.32305C8.97757 1.44805 9.00049 1.57721 9.00049 1.71055C9.00049 1.83555 8.97757 1.95846 8.93174 2.0793C8.88591 2.20013 8.81299 2.31055 8.71299 2.41055L3.12549 7.99805H1.00049Z" fill="#5A5857"/>
</svg>
