<svg width="36" height="36" viewBox="0 0 36 36" fill="none" xmlns="http://www.w3.org/2000/svg">
<rect width="36" height="36" rx="18" fill="#FFD4BD"/>
<path fill-rule="evenodd" clip-rule="evenodd" d="M18.0001 9.87109C17.3588 9.87109 16.8388 10.391 16.8388 11.0324V16.8391H11.0324C10.391 16.8391 9.87109 17.359 9.87109 18.0004C9.87109 18.6417 10.391 19.1617 11.0324 19.1617H16.8388V24.9679C16.8388 25.6092 17.3588 26.1292 18.0001 26.1292C18.6415 26.1292 19.1614 25.6092 19.1614 24.9679V19.1617H24.9679C25.6092 19.1617 26.1292 18.6417 26.1292 18.0004C26.1292 17.359 25.6092 16.8391 24.9679 16.8391H19.1614V11.0324C19.1614 10.391 18.6415 9.87109 18.0001 9.87109Z" fill="#FF6414"/>
</svg>
