<svg width="23" height="24" viewBox="0 0 23 24" fill="none" xmlns="http://www.w3.org/2000/svg">
<path d="M11.5003 8H3.83366C3.32533 8 2.83782 8.21071 2.47837 8.58579C2.11893 8.96086 1.91699 9.46957 1.91699 10V14C1.91699 14.5304 2.11893 15.0391 2.47837 15.4142C2.83782 15.7893 3.32533 16 3.83366 16H4.79199V20C4.79199 20.2652 4.89296 20.5196 5.07268 20.7071C5.2524 20.8946 5.49616 21 5.75033 21H7.66699C7.92116 21 8.16491 20.8946 8.34464 20.7071C8.52436 20.5196 8.62533 20.2652 8.62533 20V16H11.5003L16.292 20V4L11.5003 8ZM20.6045 12C20.6045 13.71 19.6845 15.26 18.2087 16V8C19.6749 8.75 20.6045 10.3 20.6045 12Z" fill="#FF6414"/>
</svg>
