<svg width="372" height="36" viewBox="0 0 372 36" fill="none" xmlns="http://www.w3.org/2000/svg">
<path d="M372 0H0V36H372V0Z" fill="#FFC42D"/>
<path fill-rule="evenodd" clip-rule="evenodd" d="M40.2562 8.34731C41.0312 7.00492 42.9688 7.00492 43.7438 8.34732L53.7272 25.6391C54.5023 26.9815 53.5335 28.6595 51.9834 28.6595H32.0166C30.4665 28.6595 29.4977 26.9815 30.2728 25.6391L40.2562 8.34731ZM43.1578 14.7908C43.1578 15.4581 42.6169 15.999 41.9497 15.999C41.2824 15.999 40.7415 15.4581 40.7415 14.7908C40.7415 14.1236 41.2824 13.5827 41.9497 13.5827C42.6169 13.5827 43.1578 14.1236 43.1578 14.7908ZM43.1578 24.4561V17.4085H40.7415V24.4561H43.1578Z" fill="#413F3F"/>
<path d="M77.332 16.68C76.9306 17.3427 76.394 17.884 75.722 18.304C75.0593 18.724 74.294 18.9807 73.426 19.074V17.814C74.3686 17.674 75.1246 17.2727 75.694 16.61C76.2726 15.938 76.604 15.1307 76.688 14.188H73.664V12.928H76.688V11.346H78.102V12.928H81.098V14.188H78.102C78.0553 14.692 77.9666 15.1493 77.836 15.56L81.546 18.01L80.776 19.06L77.332 16.68ZM84.374 11.5V23.456H82.988V11.5H84.374ZM78.074 21.468C79.9033 21.468 81.21 21.2953 81.994 20.95V22.238C81.1726 22.574 79.8706 22.742 78.088 22.742H73.188V21.468H76.59V18.906H77.962V21.468H78.074Z" fill="#413F3F"/>
<path d="M92.4788 15.434C91.7974 16.4793 90.9668 17.3053 89.9868 17.912C89.0068 18.5187 87.9754 18.822 86.8928 18.822V17.506C87.7421 17.506 88.5541 17.2447 89.3288 16.722C90.1128 16.19 90.7801 15.4713 91.3308 14.566C91.8908 13.6513 92.2734 12.648 92.4788 11.556L93.9068 11.808C93.7388 12.6947 93.4681 13.5347 93.0948 14.328L98.3308 17.758L97.5748 18.864L92.4788 15.434ZM98.5968 21.58V22.882H86.6548V21.58H91.9048V18.234H93.3188V21.58H98.5968Z" fill="#413F3F"/>
<path d="M113.817 11.5H115.203V20.376H113.817V11.5ZM107.951 18.57C107.186 18.57 106.514 18.4207 105.935 18.122C105.366 17.8233 104.927 17.4127 104.619 16.89C104.311 16.358 104.157 15.7607 104.157 15.098C104.157 14.4353 104.311 13.8427 104.619 13.32C104.927 12.788 105.366 12.3727 105.935 12.074C106.514 11.7753 107.186 11.626 107.951 11.626C108.717 11.626 109.384 11.7753 109.953 12.074C110.523 12.3727 110.961 12.7833 111.269 13.306C111.577 13.8287 111.731 14.426 111.731 15.098C111.731 15.77 111.577 16.3673 111.269 16.89C110.961 17.4127 110.523 17.8233 109.953 18.122C109.384 18.4207 108.717 18.57 107.951 18.57ZM107.951 17.394C108.67 17.394 109.249 17.1887 109.687 16.778C110.126 16.358 110.345 15.798 110.345 15.098C110.345 14.398 110.121 13.838 109.673 13.418C109.235 12.998 108.661 12.788 107.951 12.788C107.233 12.788 106.649 12.998 106.201 13.418C105.763 13.838 105.543 14.398 105.543 15.098C105.543 15.798 105.763 16.358 106.201 16.778C106.649 17.1887 107.233 17.394 107.951 17.394ZM105.207 19.396H106.621V22.042H115.525V23.302H105.207V19.396Z" fill="#413F3F"/>
<path d="M127.382 19.004V11.5H128.768V20.866H127.382V20.124H123.756V19.004H127.382ZM121.768 16.19C120.704 16.19 119.846 15.9847 119.192 15.574C118.548 15.1633 118.226 14.5893 118.226 13.852C118.226 13.1147 118.548 12.5453 119.192 12.144C119.846 11.7333 120.704 11.528 121.768 11.528C122.832 11.528 123.686 11.7333 124.33 12.144C124.984 12.5453 125.31 13.1147 125.31 13.852C125.31 14.5893 124.984 15.1633 124.33 15.574C123.686 15.9847 122.832 16.19 121.768 16.19ZM121.768 12.62C121.115 12.62 120.588 12.7273 120.186 12.942C119.785 13.1473 119.584 13.4507 119.584 13.852C119.584 14.2533 119.785 14.5613 120.186 14.776C120.588 14.9907 121.115 15.098 121.768 15.098C122.422 15.098 122.949 14.9907 123.35 14.776C123.752 14.5613 123.952 14.2533 123.952 13.852C123.952 13.4507 123.752 13.1473 123.35 12.942C122.949 12.7273 122.422 12.62 121.768 12.62ZM120.816 18.178H117.512V17.03H122.454C124.321 17.03 125.628 16.8713 126.374 16.554V17.702C125.665 18.0193 124.344 18.178 122.412 18.178H122.202V20.32H120.816V18.178ZM129.076 22.126V23.302H118.618V19.676H120.004V22.126H129.076Z" fill="#413F3F"/>
<path d="M136.943 16.652C135.944 16.652 135.044 16.554 134.241 16.358C133.448 16.162 132.813 15.868 132.337 15.476C131.87 15.084 131.637 14.6033 131.637 14.034C131.637 13.4647 131.87 12.984 132.337 12.592C132.813 12.2 133.452 11.9107 134.255 11.724C135.058 11.528 135.954 11.43 136.943 11.43C137.932 11.43 138.828 11.528 139.631 11.724C140.434 11.9107 141.068 12.2 141.535 12.592C142.011 12.984 142.249 13.4647 142.249 14.034C142.249 14.6033 142.011 15.084 141.535 15.476C141.068 15.868 140.434 16.162 139.631 16.358C138.838 16.554 137.942 16.652 136.943 16.652ZM136.943 15.532C138.035 15.532 138.945 15.4013 139.673 15.14C140.41 14.8693 140.779 14.5007 140.779 14.034C140.779 13.5673 140.41 13.2033 139.673 12.942C138.945 12.6807 138.035 12.55 136.943 12.55C135.851 12.55 134.936 12.6807 134.199 12.942C133.471 13.2033 133.107 13.5673 133.107 14.034C133.107 14.5007 133.471 14.8693 134.199 15.14C134.936 15.4013 135.851 15.532 136.943 15.532ZM130.979 17.716H142.921V18.892H130.979V17.716ZM131.805 19.914H133.219V22.126H142.305V23.316H131.805V19.914Z" fill="#413F3F"/>
<path d="M152.514 16.68C152.112 17.3427 151.576 17.884 150.904 18.304C150.241 18.724 149.476 18.9807 148.608 19.074V17.814C149.55 17.674 150.306 17.2727 150.876 16.61C151.454 15.938 151.786 15.1307 151.87 14.188H148.846V12.928H151.87V11.346H153.284V12.928H156.28V14.188H153.284C153.237 14.692 153.148 15.1493 153.018 15.56L156.728 18.01L155.958 19.06L152.514 16.68ZM159.556 11.5V23.456H158.17V11.5H159.556ZM153.256 21.468C155.085 21.468 156.392 21.2953 157.176 20.95V22.238C156.354 22.574 155.052 22.742 153.27 22.742H148.37V21.468H151.772V18.906H153.144V21.468H153.256Z" fill="#413F3F"/>
<path d="M173.33 11.5V23.456H172.014V17.618H170.068V23.246H168.752V11.57H170.068V16.316H172.014V11.5H173.33ZM165.098 21.51C165.612 21.51 166.111 21.4727 166.596 21.398C167.091 21.314 167.52 21.1973 167.884 21.048V22.266C167.539 22.4153 167.1 22.532 166.568 22.616C166.036 22.7 165.495 22.742 164.944 22.742H162.2V11.934H167.366V13.166H163.558V21.51H165.098Z" fill="#413F3F"/>
<path d="M188.999 11.5H190.385V20.376H188.999V11.5ZM183.133 18.57C182.368 18.57 181.696 18.4207 181.117 18.122C180.548 17.8233 180.109 17.4127 179.801 16.89C179.493 16.358 179.339 15.7607 179.339 15.098C179.339 14.4353 179.493 13.8427 179.801 13.32C180.109 12.788 180.548 12.3727 181.117 12.074C181.696 11.7753 182.368 11.626 183.133 11.626C183.898 11.626 184.566 11.7753 185.135 12.074C185.704 12.3727 186.143 12.7833 186.451 13.306C186.759 13.8287 186.913 14.426 186.913 15.098C186.913 15.77 186.759 16.3673 186.451 16.89C186.143 17.4127 185.704 17.8233 185.135 18.122C184.566 18.4207 183.898 18.57 183.133 18.57ZM183.133 17.394C183.852 17.394 184.43 17.1887 184.869 16.778C185.308 16.358 185.527 15.798 185.527 15.098C185.527 14.398 185.303 13.838 184.855 13.418C184.416 12.998 183.842 12.788 183.133 12.788C182.414 12.788 181.831 12.998 181.383 13.418C180.944 13.838 180.725 14.398 180.725 15.098C180.725 15.798 180.944 16.358 181.383 16.778C181.831 17.1887 182.414 17.394 183.133 17.394ZM180.389 19.396H181.803V22.042H190.707V23.302H180.389V19.396Z" fill="#413F3F"/>
<path d="M202.564 19.004V11.5H203.95V20.866H202.564V20.124H198.938V19.004H202.564ZM196.95 16.19C195.886 16.19 195.027 15.9847 194.374 15.574C193.73 15.1633 193.408 14.5893 193.408 13.852C193.408 13.1147 193.73 12.5453 194.374 12.144C195.027 11.7333 195.886 11.528 196.95 11.528C198.014 11.528 198.868 11.7333 199.512 12.144C200.165 12.5453 200.492 13.1147 200.492 13.852C200.492 14.5893 200.165 15.1633 199.512 15.574C198.868 15.9847 198.014 16.19 196.95 16.19ZM196.95 12.62C196.296 12.62 195.769 12.7273 195.368 12.942C194.966 13.1473 194.766 13.4507 194.766 13.852C194.766 14.2533 194.966 14.5613 195.368 14.776C195.769 14.9907 196.296 15.098 196.95 15.098C197.603 15.098 198.13 14.9907 198.532 14.776C198.933 14.5613 199.134 14.2533 199.134 13.852C199.134 13.4507 198.933 13.1473 198.532 12.942C198.13 12.7273 197.603 12.62 196.95 12.62ZM195.998 18.178H192.694V17.03H197.636C199.503 17.03 200.809 16.8713 201.556 16.554V17.702C200.846 18.0193 199.526 18.178 197.594 18.178H197.384V20.32H195.998V18.178ZM204.258 22.126V23.302H193.8V19.676H195.186V22.126H204.258Z" fill="#413F3F"/>
<path d="M218.103 21.58V22.882H206.161V21.58H211.411V18.892H206.945V11.85H208.317V13.992H215.933V11.85H217.305V18.892H212.825V21.58H218.103ZM208.317 17.646H215.933V15.238H208.317V17.646Z" fill="#413F3F"/>
<path d="M232.129 17.674H230.449V23.456H229.063V11.5H230.449V16.344H232.129V17.674ZM224.933 21.482C225.503 21.482 226.067 21.4307 226.627 21.328C227.197 21.2253 227.663 21.0853 228.027 20.908V22.168C227.673 22.3453 227.201 22.4853 226.613 22.588C226.035 22.6907 225.451 22.742 224.863 22.742H220.187V11.934H227.089V13.194H221.601V21.482H224.933Z" fill="#413F3F"/>
<path d="M248.26 11.5V18.78H246.874V15.462H244.564V14.258H246.874V11.5H248.26ZM241.218 15.924C240.798 16.6333 240.247 17.2073 239.566 17.646C238.894 18.0753 238.124 18.3367 237.256 18.43V17.17C238.245 17.0207 239.034 16.5773 239.622 15.84C240.219 15.0933 240.555 14.146 240.63 12.998H237.41V11.808H245.04V12.998H242.03C242.002 13.6047 241.899 14.1973 241.722 14.776L245.39 17.31L244.648 18.332L241.218 15.924ZM237.984 19.438H248.26V23.456H246.846V20.642H237.984V19.438Z" fill="#413F3F"/>
<path d="M261.741 11.5V23.456H260.355V17.758H258.059C258.003 19.4567 257.653 20.74 257.009 21.608C256.374 22.4667 255.539 22.896 254.503 22.896C253.411 22.896 252.543 22.4293 251.899 21.496C251.255 20.5627 250.933 19.1767 250.933 17.338C250.933 15.4993 251.255 14.1133 251.899 13.18C252.543 12.2467 253.411 11.78 254.503 11.78C255.502 11.78 256.314 12.172 256.939 12.956C257.564 13.74 257.928 14.9067 258.031 16.456H260.355V11.5H261.741ZM254.503 21.622C255.156 21.622 255.679 21.272 256.071 20.572C256.472 19.8627 256.673 18.7847 256.673 17.338C256.673 15.8913 256.472 14.818 256.071 14.118C255.679 13.4087 255.156 13.054 254.503 13.054C253.84 13.054 253.308 13.4087 252.907 14.118C252.515 14.818 252.319 15.8913 252.319 17.338C252.319 18.7847 252.515 19.8627 252.907 20.572C253.308 21.272 253.84 21.622 254.503 21.622Z" fill="#413F3F"/>
<path d="M274.774 15.728V18.486H276.454V19.774H274.774V23.456H273.388V11.5H274.774V14.44H276.454V15.728H274.774ZM267.9 11.78C268.609 11.78 269.23 11.9853 269.762 12.396C270.294 12.7973 270.709 13.4133 271.008 14.244C271.306 15.0747 271.456 16.106 271.456 17.338C271.456 18.57 271.306 19.6013 271.008 20.432C270.709 21.2627 270.294 21.8787 269.762 22.28C269.23 22.6907 268.609 22.896 267.9 22.896C266.808 22.896 265.94 22.4293 265.296 21.496C264.652 20.5627 264.33 19.1767 264.33 17.338C264.33 15.4993 264.652 14.1133 265.296 13.18C265.94 12.2467 266.808 11.78 267.9 11.78ZM267.9 21.622C268.553 21.622 269.076 21.272 269.468 20.572C269.869 19.8627 270.07 18.7847 270.07 17.338C270.07 15.8913 269.869 14.818 269.468 14.118C269.076 13.4087 268.553 13.054 267.9 13.054C267.237 13.054 266.705 13.4087 266.304 14.118C265.912 14.818 265.716 15.8913 265.716 17.338C265.716 18.7847 265.912 19.8627 266.304 20.572C266.705 21.272 267.237 21.622 267.9 21.622Z" fill="#413F3F"/>
<path d="M281.03 13.362H283.536V14.608H277.152V13.362H279.658V11.472H281.03V13.362ZM288.912 11.5V23.456H287.624V17.618H285.706V23.246H284.418V11.57H285.706V16.316H287.624V11.5H288.912ZM280.4 15.546C280.942 15.546 281.422 15.6907 281.842 15.98C282.262 16.26 282.589 16.6753 282.822 17.226C283.065 17.7767 283.186 18.4393 283.186 19.214C283.186 19.9887 283.065 20.6513 282.822 21.202C282.589 21.7527 282.262 22.168 281.842 22.448C281.422 22.7373 280.942 22.882 280.4 22.882C279.859 22.882 279.378 22.7373 278.958 22.448C278.548 22.168 278.221 21.7527 277.978 21.202C277.745 20.6513 277.628 19.9887 277.628 19.214C277.628 18.4393 277.745 17.7767 277.978 17.226C278.221 16.6753 278.548 16.26 278.958 15.98C279.378 15.6907 279.859 15.546 280.4 15.546ZM280.4 21.664C280.848 21.664 281.212 21.4493 281.492 21.02C281.772 20.5813 281.912 19.9793 281.912 19.214C281.912 18.4487 281.772 17.8513 281.492 17.422C281.212 16.9833 280.848 16.764 280.4 16.764C279.962 16.764 279.602 16.9833 279.322 17.422C279.052 17.8513 278.916 18.4487 278.916 19.214C278.916 19.9793 279.052 20.5813 279.322 21.02C279.602 21.4493 279.962 21.664 280.4 21.664Z" fill="#413F3F"/>
<path d="M302.827 21.608V22.882H290.885V21.608H293.629V18.374C292.939 18.0567 292.402 17.6413 292.019 17.128C291.646 16.6053 291.459 16.0127 291.459 15.35C291.459 14.622 291.679 13.9827 292.117 13.432C292.565 12.8813 293.195 12.4567 294.007 12.158C294.829 11.8593 295.776 11.71 296.849 11.71C297.923 11.71 298.865 11.8593 299.677 12.158C300.499 12.4567 301.129 12.8813 301.567 13.432C302.015 13.9827 302.239 14.622 302.239 15.35C302.239 16.0127 302.048 16.6053 301.665 17.128C301.292 17.6413 300.765 18.052 300.083 18.36V21.608H302.827ZM292.929 15.35C292.929 15.8167 293.093 16.232 293.419 16.596C293.746 16.9507 294.203 17.226 294.791 17.422C295.389 17.618 296.075 17.716 296.849 17.716C297.624 17.716 298.31 17.618 298.907 17.422C299.505 17.226 299.967 16.9507 300.293 16.596C300.62 16.232 300.783 15.8167 300.783 15.35C300.783 14.874 300.62 14.4587 300.293 14.104C299.967 13.74 299.505 13.46 298.907 13.264C298.31 13.068 297.624 12.97 296.849 12.97C296.075 12.97 295.389 13.068 294.791 13.264C294.203 13.46 293.746 13.74 293.419 14.104C293.093 14.4587 292.929 14.874 292.929 15.35ZM295.015 21.608H298.697V18.808C298.137 18.92 297.521 18.976 296.849 18.976C296.187 18.976 295.575 18.92 295.015 18.808V21.608Z" fill="#413F3F"/>
</svg>
