<svg width="19" height="13" viewBox="0 0 19 13" fill="none" xmlns="http://www.w3.org/2000/svg">
<path d="M5.14616 9.63672C5.7663 9.63672 6.36994 9.70599 6.9571 9.84453C7.54425 9.98307 8.1281 10.1909 8.70866 10.468V2.67005C8.16769 2.35339 7.59373 2.11589 6.98678 1.95755C6.37984 1.79922 5.7663 1.72005 5.14616 1.72005C4.67116 1.72005 4.19946 1.76623 3.73105 1.85859C3.26265 1.95095 2.81074 2.0895 2.37533 2.27422V10.1117C2.83713 9.95339 3.29564 9.83464 3.75085 9.75547C4.20605 9.6763 4.67116 9.63672 5.14616 9.63672ZM10.292 10.468C10.8725 10.1909 11.4564 9.98307 12.0436 9.84453C12.6307 9.70599 13.2344 9.63672 13.8545 9.63672C14.3295 9.63672 14.7946 9.6763 15.2498 9.75547C15.705 9.83464 16.1635 9.95339 16.6253 10.1117V2.27422C16.1899 2.0895 15.738 1.95095 15.2696 1.85859C14.8012 1.76623 14.3295 1.72005 13.8545 1.72005C13.2344 1.72005 12.6208 1.79922 12.0139 1.95755C11.4069 2.11589 10.833 2.35339 10.292 2.67005V10.468ZM9.50033 12.8034C8.86699 12.302 8.18088 11.9128 7.44199 11.6357C6.7031 11.3586 5.93783 11.2201 5.14616 11.2201C4.59199 11.2201 4.04772 11.2926 3.51335 11.4378C2.97897 11.5829 2.46769 11.7874 1.97949 12.0513C1.70241 12.1964 1.43522 12.1898 1.17793 12.0315C0.920638 11.8732 0.791992 11.6423 0.791992 11.3388V1.79922C0.791992 1.65408 0.828277 1.51554 0.900846 1.38359C0.973416 1.25165 1.08227 1.15269 1.22741 1.08672C1.83435 0.770052 2.46769 0.532552 3.12741 0.374219C3.78713 0.215885 4.46005 0.136719 5.14616 0.136719C5.91144 0.136719 6.66022 0.235677 7.39251 0.433594C8.1248 0.63151 8.82741 0.928385 9.50033 1.32422C10.1732 0.928385 10.8758 0.63151 11.6081 0.433594C12.3404 0.235677 13.0892 0.136719 13.8545 0.136719C14.5406 0.136719 15.2135 0.215885 15.8732 0.374219C16.533 0.532552 17.1663 0.770052 17.7732 1.08672C17.9184 1.15269 18.0272 1.25165 18.0998 1.38359C18.1724 1.51554 18.2087 1.65408 18.2087 1.79922V11.3388C18.2087 11.6423 18.08 11.8732 17.8227 12.0315C17.5654 12.1898 17.2982 12.1964 17.0212 12.0513C16.533 11.7874 16.0217 11.5829 15.4873 11.4378C14.9529 11.2926 14.4087 11.2201 13.8545 11.2201C13.0628 11.2201 12.2975 11.3586 11.5587 11.6357C10.8198 11.9128 10.1337 12.302 9.50033 12.8034Z" fill="#757271"/>
</svg>
