<svg width="282" height="48" viewBox="0 0 282 48" fill="none" xmlns="http://www.w3.org/2000/svg">
<path fill-rule="evenodd" clip-rule="evenodd" d="M0 48H282V12H240.928L234 0L227.072 12H0V48Z" fill="#FFC42D"/>
<path fill-rule="evenodd" clip-rule="evenodd" d="M38.2562 20.8466C39.0312 19.5042 40.9688 19.5042 41.7438 20.8466L51.7272 38.1384C52.5023 39.4808 51.5335 41.1588 49.9834 41.1588H30.0166C28.4665 41.1588 27.4977 39.4808 28.2728 38.1384L38.2562 20.8466ZM41.1578 27.2902C41.1578 27.9574 40.6169 28.4983 39.9497 28.4983C39.2824 28.4983 38.7415 27.9574 38.7415 27.2902C38.7415 26.6229 39.2824 26.082 39.9497 26.082C40.6169 26.082 41.1578 26.6229 41.1578 27.2902ZM41.1578 36.9554V29.9078H38.7415V36.9554H41.1578Z" fill="#413F3F"/>
<path d="M92.5508 23.5H93.9508V35.456H92.5508V23.5ZM86.9088 34.896C86.1808 34.896 85.5461 34.6907 85.0048 34.28C84.4635 33.8787 84.0388 33.2627 83.7308 32.432C83.4321 31.6013 83.2828 30.57 83.2828 29.338C83.2828 28.106 83.4321 27.0747 83.7308 26.244C84.0388 25.4133 84.4635 24.7973 85.0048 24.396C85.5461 23.9853 86.1808 23.78 86.9088 23.78C87.6275 23.78 88.2575 23.9853 88.7988 24.396C89.3401 24.7973 89.7601 25.4133 90.0588 26.244C90.3668 27.0747 90.5208 28.106 90.5208 29.338C90.5208 30.57 90.3668 31.6013 90.0588 32.432C89.7601 33.2627 89.3401 33.8787 88.7988 34.28C88.2575 34.6907 87.6275 34.896 86.9088 34.896ZM86.9088 33.622C87.5715 33.622 88.1081 33.272 88.5188 32.572C88.9295 31.8627 89.1348 30.7847 89.1348 29.338C89.1348 27.9007 88.9295 26.8273 88.5188 26.118C88.1081 25.4087 87.5715 25.054 86.9088 25.054C86.2368 25.054 85.6955 25.4087 85.2848 26.118C84.8741 26.818 84.6688 27.8913 84.6688 29.338C84.6688 30.7847 84.8695 31.8627 85.2708 32.572C85.6815 33.272 86.2275 33.622 86.9088 33.622ZM106.018 23.5H107.404V35.456H106.018V23.5ZM96.9316 23.934H103.708V34.742H96.9316V23.934ZM102.322 33.44V25.236H98.3176V33.44H102.322ZM124.822 29.184H114.462V23.64H115.89V27.896H124.822V29.184ZM125.578 31.928H120.3V35.736H118.886V31.928H113.636V30.612H125.578V31.928ZM136.791 24.844H127.887V23.64H138.191V27.938H136.791V24.844ZM139.045 28.652V29.856H133.781V32.53H132.381V29.856H127.103V28.652H139.045ZM129.343 34.126H138.429V35.316H127.929V31.214H129.343V34.126ZM153.072 29.674H151.392V35.456H150.006V23.5H151.392V28.344H153.072V29.674ZM141.004 23.934H147.514V26.818C147.514 28.3953 147.252 29.7813 146.73 30.976C146.207 32.1613 145.456 33.0807 144.476 33.734C143.496 34.3873 142.338 34.714 141.004 34.714V33.398C142.077 33.398 142.992 33.132 143.748 32.6C144.513 32.0587 145.096 31.298 145.498 30.318C145.899 29.338 146.1 28.1807 146.1 26.846V25.208H141.004V23.934ZM170.462 29.674H168.782V35.456H167.396V23.5H168.782V28.344H170.462V29.674ZM163.126 23.85C163.108 25.7447 162.949 27.4013 162.65 28.82L166.416 33.916L165.296 34.714L162.216 30.444C161.787 31.76 161.218 32.7913 160.508 33.538C159.799 34.2753 158.982 34.6767 158.058 34.742V33.342C158.833 33.2207 159.491 32.726 160.032 31.858C160.583 30.99 160.998 29.856 161.278 28.456C161.558 27.056 161.703 25.502 161.712 23.794L163.126 23.85ZM183.369 29.1V30.22H171.427V29.1H174.045V27.602C173.439 27.4247 172.963 27.1773 172.617 26.86C172.281 26.5427 172.113 26.16 172.113 25.712C172.113 24.9467 172.603 24.3773 173.583 24.004C174.563 23.6213 175.833 23.43 177.391 23.43C178.95 23.43 180.219 23.6213 181.199 24.004C182.179 24.3773 182.669 24.9467 182.669 25.712C182.669 26.16 182.497 26.5427 182.151 26.86C181.815 27.1773 181.344 27.4247 180.737 27.602V29.1H183.369ZM173.583 25.712C173.583 26.1133 173.938 26.4167 174.647 26.622C175.357 26.818 176.271 26.916 177.391 26.916C178.511 26.916 179.426 26.818 180.135 26.622C180.845 26.4167 181.199 26.1133 181.199 25.712C181.199 25.32 180.84 25.026 180.121 24.83C179.412 24.6247 178.502 24.522 177.391 24.522C176.281 24.522 175.366 24.6247 174.647 24.83C173.938 25.026 173.583 25.32 173.583 25.712ZM175.417 29.1H179.365V27.896C178.712 27.9707 178.054 28.008 177.391 28.008C176.729 28.008 176.071 27.9707 175.417 27.896V29.1ZM177.391 31.144C178.969 31.144 180.238 31.312 181.199 31.648C182.161 31.984 182.641 32.5347 182.641 33.3C182.641 34.0653 182.156 34.6207 181.185 34.966C180.224 35.3113 178.959 35.484 177.391 35.484C175.823 35.484 174.554 35.3113 173.583 34.966C172.622 34.6207 172.141 34.0653 172.141 33.3C172.141 32.5347 172.622 31.984 173.583 31.648C174.545 31.312 175.814 31.144 177.391 31.144ZM177.391 34.392C178.483 34.392 179.389 34.3033 180.107 34.126C180.826 33.958 181.185 33.6827 181.185 33.3C181.185 32.9267 180.826 32.656 180.107 32.488C179.389 32.32 178.483 32.236 177.391 32.236C176.299 32.236 175.394 32.32 174.675 32.488C173.966 32.656 173.611 32.9267 173.611 33.3C173.611 33.6827 173.966 33.958 174.675 34.126C175.394 34.3033 176.299 34.392 177.391 34.392ZM190.662 26.552C190.074 27.0187 189.323 27.3827 188.408 27.644C187.493 27.896 186.527 28.0313 185.51 28.05V26.916C186.238 26.8973 186.947 26.804 187.638 26.636C188.338 26.4587 188.935 26.2113 189.43 25.894C189.934 25.5767 190.247 25.1987 190.368 24.76H185.706V23.64H196.01V24.76H191.782C191.745 25.0773 191.637 25.3713 191.46 25.642L196.332 27.014L195.968 28.106L190.662 26.552ZM191.544 30.024V31.158C192.935 31.2047 194.041 31.4007 194.862 31.746C195.693 32.082 196.108 32.6 196.108 33.3C196.108 34.0653 195.623 34.6207 194.652 34.966C193.691 35.3113 192.426 35.484 190.858 35.484C189.29 35.484 188.021 35.3113 187.05 34.966C186.089 34.6207 185.608 34.0653 185.608 33.3C185.608 32.6 186.019 32.082 186.84 31.746C187.671 31.4007 188.781 31.2047 190.172 31.158V30.024H184.894V28.904H196.836V30.024H191.544ZM194.652 33.3C194.652 32.9267 194.293 32.656 193.574 32.488C192.855 32.32 191.95 32.236 190.858 32.236C189.766 32.236 188.861 32.32 188.142 32.488C187.433 32.656 187.078 32.9267 187.078 33.3C187.078 33.6827 187.433 33.958 188.142 34.126C188.861 34.3033 189.766 34.392 190.858 34.392C191.95 34.392 192.855 34.3033 193.574 34.126C194.293 33.958 194.652 33.6827 194.652 33.3ZM208.133 23.5H209.533V35.456H208.133V23.5ZM202.491 34.896C201.763 34.896 201.128 34.6907 200.587 34.28C200.045 33.8787 199.621 33.2627 199.313 32.432C199.014 31.6013 198.865 30.57 198.865 29.338C198.865 28.106 199.014 27.0747 199.313 26.244C199.621 25.4133 200.045 24.7973 200.587 24.396C201.128 23.9853 201.763 23.78 202.491 23.78C203.209 23.78 203.839 23.9853 204.381 24.396C204.922 24.7973 205.342 25.4133 205.641 26.244C205.949 27.0747 206.103 28.106 206.103 29.338C206.103 30.57 205.949 31.6013 205.641 32.432C205.342 33.2627 204.922 33.8787 204.381 34.28C203.839 34.6907 203.209 34.896 202.491 34.896ZM202.491 33.622C203.153 33.622 203.69 33.272 204.101 32.572C204.511 31.8627 204.717 30.7847 204.717 29.338C204.717 27.9007 204.511 26.8273 204.101 26.118C203.69 25.4087 203.153 25.054 202.491 25.054C201.819 25.054 201.277 25.4087 200.867 26.118C200.456 26.818 200.251 27.8913 200.251 29.338C200.251 30.7847 200.451 31.8627 200.853 32.572C201.263 33.272 201.809 33.622 202.491 33.622ZM223.322 23.5V35.456H222.02V23.5H223.322ZM219.192 23.57H220.466V35.246H219.192V31.998H217.288C217.101 32.978 216.793 33.706 216.364 34.182C215.944 34.658 215.402 34.896 214.74 34.896C213.825 34.896 213.134 34.448 212.668 33.552C212.21 32.6467 211.982 31.242 211.982 29.338C211.982 27.434 212.21 26.034 212.668 25.138C213.134 24.2327 213.825 23.78 214.74 23.78C215.99 23.78 216.807 24.6107 217.19 26.272H219.192V23.57ZM214.74 33.636C215.234 33.636 215.598 33.2907 215.832 32.6C216.065 31.9 216.182 30.8127 216.182 29.338C216.182 27.8633 216.065 26.7807 215.832 26.09C215.598 25.39 215.234 25.04 214.74 25.04C214.245 25.04 213.876 25.39 213.634 26.09C213.4 26.79 213.284 27.8727 213.284 29.338C213.284 30.8033 213.4 31.886 213.634 32.586C213.876 33.286 214.245 33.636 214.74 33.636ZM219.192 30.724V27.546H217.4C217.456 28.078 217.484 28.6753 217.484 29.338C217.484 29.842 217.47 30.304 217.442 30.724H219.192ZM237.236 33.608V34.882H225.294V33.608H228.038V30.374C227.348 30.0567 226.811 29.6413 226.428 29.128C226.055 28.6053 225.868 28.0127 225.868 27.35C225.868 26.622 226.088 25.9827 226.526 25.432C226.974 24.8813 227.604 24.4567 228.416 24.158C229.238 23.8593 230.185 23.71 231.258 23.71C232.332 23.71 233.274 23.8593 234.086 24.158C234.908 24.4567 235.538 24.8813 235.976 25.432C236.424 25.9827 236.648 26.622 236.648 27.35C236.648 28.0127 236.457 28.6053 236.074 29.128C235.701 29.6413 235.174 30.052 234.492 30.36V33.608H237.236ZM227.338 27.35C227.338 27.8167 227.502 28.232 227.828 28.596C228.155 28.9507 228.612 29.226 229.2 29.422C229.798 29.618 230.484 29.716 231.258 29.716C232.033 29.716 232.719 29.618 233.316 29.422C233.914 29.226 234.376 28.9507 234.702 28.596C235.029 28.232 235.192 27.8167 235.192 27.35C235.192 26.874 235.029 26.4587 234.702 26.104C234.376 25.74 233.914 25.46 233.316 25.264C232.719 25.068 232.033 24.97 231.258 24.97C230.484 24.97 229.798 25.068 229.2 25.264C228.612 25.46 228.155 25.74 227.828 26.104C227.502 26.4587 227.338 26.874 227.338 27.35ZM229.424 33.608H233.106V30.808C232.546 30.92 231.93 30.976 231.258 30.976C230.596 30.976 229.984 30.92 229.424 30.808V33.608Z" fill="#413F3F"/>
</svg>
