<svg width="310" height="49" viewBox="0 0 310 49" fill="none" xmlns="http://www.w3.org/2000/svg">
<path fill-rule="evenodd" clip-rule="evenodd" d="M0 0H310V36H162.506L155 49L147.494 36H0V0Z" fill="#F93C3C"/>
<path fill-rule="evenodd" clip-rule="evenodd" d="M38.2562 8.34762C39.0312 7.00522 40.9688 7.00522 41.7438 8.34762L51.7272 25.6394C52.5023 26.9818 51.5335 28.6598 49.9834 28.6598H30.0166C28.4665 28.6598 27.4977 26.9818 28.2728 25.6394L38.2562 8.34762ZM41.1578 14.7911C41.1578 15.4584 40.6169 15.9993 39.9497 15.9993C39.2824 15.9993 38.7415 15.4584 38.7415 14.7911C38.7415 14.1239 39.2824 13.583 39.9497 13.583C40.6169 13.583 41.1578 14.1239 41.1578 14.7911ZM41.1578 24.4564V17.4088H38.7415V24.4564H41.1578Z" fill="#413F3F"/>
<path d="M85.3243 17.556H83.4043V24.164H81.8203V10.5H83.4043V16.036H85.3243V17.556ZM76.9403 10.9C76.9189 13.0653 76.7376 14.9587 76.3963 16.58L80.7003 22.404L79.4203 23.316L75.9003 18.436C75.4096 19.94 74.7589 21.1187 73.9483 21.972C73.1376 22.8147 72.2043 23.2733 71.1483 23.348V21.748C72.0336 21.6093 72.7856 21.044 73.4043 20.052C74.0336 19.06 74.5083 17.764 74.8283 16.164C75.1483 14.564 75.3136 12.788 75.3243 10.836L76.9403 10.9ZM100.075 16.9V18.18H86.4269V16.9H89.4189V15.188C88.7255 14.9853 88.1815 14.7027 87.7869 14.34C87.4029 13.9773 87.2109 13.54 87.2109 13.028C87.2109 12.1533 87.7709 11.5027 88.8909 11.076C90.0109 10.6387 91.4615 10.42 93.2429 10.42C95.0242 10.42 96.4749 10.6387 97.5949 11.076C98.7149 11.5027 99.2749 12.1533 99.2749 13.028C99.2749 13.54 99.0775 13.9773 98.6829 14.34C98.2989 14.7027 97.7602 14.9853 97.0669 15.188V16.9H100.075ZM88.8909 13.028C88.8909 13.4867 89.2962 13.8333 90.1069 14.068C90.9175 14.292 91.9629 14.404 93.2429 14.404C94.5229 14.404 95.5682 14.292 96.3789 14.068C97.1895 13.8333 97.5949 13.4867 97.5949 13.028C97.5949 12.58 97.1842 12.244 96.3629 12.02C95.5522 11.7853 94.5122 11.668 93.2429 11.668C91.9735 11.668 90.9282 11.7853 90.1069 12.02C89.2962 12.244 88.8909 12.58 88.8909 13.028ZM90.9869 16.9H95.4989V15.524C94.7522 15.6093 94.0002 15.652 93.2429 15.652C92.4855 15.652 91.7335 15.6093 90.9869 15.524V16.9ZM93.2429 19.236C95.0455 19.236 96.4962 19.428 97.5949 19.812C98.6935 20.196 99.2429 20.8253 99.2429 21.7C99.2429 22.5747 98.6882 23.2093 97.5789 23.604C96.4802 23.9987 95.0349 24.196 93.2429 24.196C91.4509 24.196 90.0002 23.9987 88.8909 23.604C87.7922 23.2093 87.2429 22.5747 87.2429 21.7C87.2429 20.8253 87.7922 20.196 88.8909 19.812C89.9895 19.428 91.4402 19.236 93.2429 19.236ZM93.2429 22.948C94.4909 22.948 95.5255 22.8467 96.3469 22.644C97.1682 22.452 97.5789 22.1373 97.5789 21.7C97.5789 21.2733 97.1682 20.964 96.3469 20.772C95.5255 20.58 94.4909 20.484 93.2429 20.484C91.9949 20.484 90.9602 20.58 90.1389 20.772C89.3282 20.964 88.9229 21.2733 88.9229 21.7C88.9229 22.1373 89.3282 22.452 90.1389 22.644C90.9602 22.8467 91.9949 22.948 93.2429 22.948ZM111.05 12.676H101.77V11.492H105.61V10.26H107.21V11.492H111.05V12.676ZM116.106 13.348V14.708H114.186V17.636H112.602V10.5H114.186V13.348H116.106ZM106.41 17.588C105.236 17.588 104.271 17.4013 103.514 17.028C102.767 16.6547 102.394 16.1373 102.394 15.476C102.394 14.8147 102.767 14.2973 103.514 13.924C104.271 13.5507 105.236 13.364 106.41 13.364C107.572 13.364 108.527 13.5507 109.274 13.924C110.031 14.2973 110.41 14.8147 110.41 15.476C110.41 16.1373 110.031 16.6547 109.274 17.028C108.527 17.4013 107.572 17.588 106.41 17.588ZM106.41 14.484C105.652 14.484 105.044 14.5747 104.586 14.756C104.138 14.9373 103.914 15.1773 103.914 15.476C103.914 15.7747 104.138 16.0147 104.586 16.196C105.044 16.3773 105.652 16.468 106.41 16.468C107.167 16.468 107.77 16.3773 108.218 16.196C108.676 16.0147 108.906 15.7747 108.906 15.476C108.906 15.1773 108.676 14.9373 108.218 14.756C107.77 14.5747 107.167 14.484 106.41 14.484ZM104.33 22.82H114.522V23.988H102.778V20.612H112.634V19.54H102.746V18.372H114.186V21.732H104.33V22.82ZM132.861 10.5H134.445V18.5H132.861V10.5ZM122.317 10.756H123.917V16.356H127.565C128.493 16.356 129.33 16.3027 130.077 16.196C130.834 16.0893 131.431 15.9347 131.869 15.732V17.14C131.442 17.332 130.845 17.4813 130.077 17.588C129.309 17.6947 128.45 17.748 127.501 17.748H122.317V10.756ZM132.845 20.644H122.733V19.252H134.445V24.164H132.845V20.644ZM150.219 10.5V24.164H148.715V10.5H150.219ZM145.419 10.58H146.907V23.924H145.419V16.996H141.819V15.524H145.419V10.58ZM140.971 21.94C141.558 21.94 142.128 21.8973 142.683 21.812C143.248 21.716 143.739 21.5827 144.155 21.412V22.804C143.76 22.9853 143.259 23.1187 142.651 23.204C142.054 23.3 141.435 23.348 140.795 23.348H137.499V10.964H139.051V21.94H140.971ZM163.642 10.5H165.226V17.924H163.642V10.5ZM156.954 17.588C156.09 17.588 155.332 17.444 154.682 17.156C154.042 16.868 153.546 16.4627 153.194 15.94C152.842 15.4067 152.666 14.7987 152.666 14.116C152.666 13.4333 152.842 12.8307 153.194 12.308C153.546 11.7853 154.042 11.38 154.682 11.092C155.332 10.7933 156.09 10.644 156.954 10.644C157.807 10.644 158.554 10.7933 159.194 11.092C159.844 11.38 160.346 11.7853 160.698 12.308C161.05 12.8307 161.226 13.4333 161.226 14.116C161.226 14.7987 161.05 15.4067 160.698 15.94C160.346 16.4627 159.844 16.868 159.194 17.156C158.554 17.444 157.807 17.588 156.954 17.588ZM156.954 16.276C157.754 16.276 158.399 16.084 158.89 15.7C159.391 15.316 159.642 14.788 159.642 14.116C159.642 13.444 159.391 12.916 158.89 12.532C158.399 12.148 157.754 11.956 156.954 11.956C156.143 11.956 155.487 12.148 154.986 12.532C154.495 12.916 154.25 13.444 154.25 14.116C154.25 14.788 154.495 15.316 154.986 15.7C155.487 16.084 156.143 16.276 156.954 16.276ZM153.802 18.676H165.226V23.988H153.802V18.676ZM163.642 22.644V20.02H155.386V22.644H163.642ZM174.68 15.428C172.888 15.428 171.438 15.2307 170.328 14.836C169.23 14.4307 168.68 13.796 168.68 12.932C168.68 12.0787 169.23 11.4547 170.328 11.06C171.438 10.6547 172.888 10.452 174.68 10.452C176.472 10.452 177.918 10.6547 179.016 11.06C180.126 11.4547 180.68 12.0787 180.68 12.932C180.68 13.796 180.126 14.4307 179.016 14.836C177.918 15.2307 176.472 15.428 174.68 15.428ZM174.68 14.212C175.971 14.212 177.022 14.1053 177.832 13.892C178.643 13.6787 179.048 13.3587 179.048 12.932C179.048 12.5053 178.638 12.1853 177.816 11.972C177.006 11.7587 175.96 11.652 174.68 11.652C173.4 11.652 172.35 11.7587 171.528 11.972C170.718 12.1853 170.312 12.5053 170.312 12.932C170.312 13.3587 170.718 13.6787 171.528 13.892C172.339 14.1053 173.39 14.212 174.68 14.212ZM167.864 16.276H181.512V17.508H167.864V16.276ZM168.808 20.74H179.016V19.78H168.776V18.596H180.568V21.86H170.36V22.82H180.808V24.004H168.808V20.74ZM200.491 10.5V17.508H198.907V10.5H200.491ZM196.491 14.036C196.491 14.708 196.315 15.3 195.963 15.812C195.611 16.324 195.11 16.724 194.459 17.012C193.819 17.2893 193.073 17.428 192.219 17.428C191.355 17.428 190.598 17.2893 189.947 17.012C189.307 16.724 188.811 16.324 188.459 15.812C188.107 15.3 187.931 14.708 187.931 14.036C187.931 13.3747 188.107 12.788 188.459 12.276C188.811 11.764 189.307 11.364 189.947 11.076C190.598 10.788 191.355 10.644 192.219 10.644C193.073 10.644 193.819 10.788 194.459 11.076C195.11 11.364 195.611 11.764 195.963 12.276C196.315 12.788 196.491 13.3747 196.491 14.036ZM189.515 14.036C189.515 14.6867 189.761 15.1987 190.251 15.572C190.753 15.9453 191.409 16.132 192.219 16.132C193.03 16.132 193.681 15.9453 194.171 15.572C194.662 15.1987 194.907 14.6867 194.907 14.036C194.907 13.3853 194.662 12.8733 194.171 12.5C193.681 12.1267 193.03 11.94 192.219 11.94C191.409 11.94 190.753 12.1267 190.251 12.5C189.761 12.8733 189.515 13.3853 189.515 14.036ZM198.939 18.26H200.491V23.988H189.067V18.26H190.635V19.7H198.939V18.26ZM198.939 22.692V20.964H190.635V22.692H198.939ZM215.994 10.5V19.044H214.426V15.908H211.93V14.564H214.426V13.332H211.93V11.988H214.426V10.5H215.994ZM209.402 13.988V12.164H203.658V10.836H210.97V15.284H205.258V17.14H208.33C209.279 17.14 210.133 17.0973 210.89 17.012C211.647 16.916 212.229 16.7827 212.634 16.612V17.94C212.229 18.1 211.631 18.228 210.842 18.324C210.053 18.42 209.178 18.468 208.218 18.468H203.69V13.988H209.402ZM204.25 19.796H215.994V24.164H214.378V21.156H204.25V19.796ZM222.649 12.628H225.513V14.052H218.217V12.628H221.081V10.468H222.649V12.628ZM231.657 10.5V24.164H230.185V17.492H227.993V23.924H226.521V10.58H227.993V16.004H230.185V10.5H231.657ZM221.929 15.124C222.547 15.124 223.097 15.2893 223.577 15.62C224.057 15.94 224.43 16.4147 224.697 17.044C224.974 17.6733 225.113 18.4307 225.113 19.316C225.113 20.2013 224.974 20.9587 224.697 21.588C224.43 22.2173 224.057 22.692 223.577 23.012C223.097 23.3427 222.547 23.508 221.929 23.508C221.31 23.508 220.761 23.3427 220.281 23.012C219.811 22.692 219.438 22.2173 219.161 21.588C218.894 20.9587 218.761 20.2013 218.761 19.316C218.761 18.4307 218.894 17.6733 219.161 17.044C219.438 16.4147 219.811 15.94 220.281 15.62C220.761 15.2893 221.31 15.124 221.929 15.124ZM221.929 22.116C222.441 22.116 222.857 21.8707 223.177 21.38C223.497 20.8787 223.657 20.1907 223.657 19.316C223.657 18.4413 223.497 17.7587 223.177 17.268C222.857 16.7667 222.441 16.516 221.929 16.516C221.427 16.516 221.017 16.7667 220.697 17.268C220.387 17.7587 220.233 18.4413 220.233 19.316C220.233 20.1907 220.387 20.8787 220.697 21.38C221.017 21.8707 221.427 22.116 221.929 22.116ZM244.94 14.932C244.257 15.7427 243.382 16.388 242.316 16.868C241.249 17.348 240.092 17.6307 238.844 17.716V16.244C240.262 16.1267 241.494 15.716 242.54 15.012C243.585 14.308 244.246 13.4013 244.524 12.292H239.18V10.852H251.244V12.292H246.204C246.108 12.7827 245.953 13.252 245.74 13.7L251.692 16.34L251.036 17.668L244.94 14.932ZM252.044 20.66H245.996V24.484H244.396V20.66H238.396V19.188H252.044V20.66ZM266.922 10.5V24.164H265.418V10.5H266.922ZM261.978 10.58H263.482V23.924H261.978V16.676H259.818V15.172H261.978V10.58ZM258.33 10.9C258.33 12.9267 258.229 14.7773 258.026 16.452L261.338 22.468L260.01 23.172L257.61 18.692C257.269 20.068 256.789 21.14 256.17 21.908C255.562 22.676 254.805 23.156 253.898 23.348V21.748C254.933 21.4067 255.674 20.3133 256.122 18.468C256.57 16.612 256.8 14.068 256.81 10.836L258.33 10.9ZM282.825 22.052V23.508H269.177V22.052H272.313V18.356C271.524 17.9933 270.91 17.5187 270.473 16.932C270.046 16.3347 269.833 15.6573 269.833 14.9C269.833 14.068 270.084 13.3373 270.585 12.708C271.097 12.0787 271.817 11.5933 272.745 11.252C273.684 10.9107 274.766 10.74 275.993 10.74C277.22 10.74 278.297 10.9107 279.225 11.252C280.164 11.5933 280.884 12.0787 281.385 12.708C281.897 13.3373 282.153 14.068 282.153 14.9C282.153 15.6573 281.934 16.3347 281.497 16.932C281.07 17.5187 280.468 17.988 279.689 18.34V22.052H282.825ZM271.513 14.9C271.513 15.4333 271.7 15.908 272.073 16.324C272.446 16.7293 272.969 17.044 273.641 17.268C274.324 17.492 275.108 17.604 275.993 17.604C276.878 17.604 277.662 17.492 278.345 17.268C279.028 17.044 279.556 16.7293 279.929 16.324C280.302 15.908 280.489 15.4333 280.489 14.9C280.489 14.356 280.302 13.8813 279.929 13.476C279.556 13.06 279.028 12.74 278.345 12.516C277.662 12.292 276.878 12.18 275.993 12.18C275.108 12.18 274.324 12.292 273.641 12.516C272.969 12.74 272.446 13.06 272.073 13.476C271.7 13.8813 271.513 14.356 271.513 14.9ZM273.897 22.052H278.105V18.852C277.465 18.98 276.761 19.044 275.993 19.044C275.236 19.044 274.537 18.98 273.897 18.852V22.052ZM284.76 11.012H286.792L286.376 20.276H285.16L284.76 11.012ZM285.768 24.084C285.437 24.084 285.154 23.972 284.92 23.748C284.696 23.524 284.584 23.2413 284.584 22.9C284.584 22.5693 284.696 22.292 284.92 22.068C285.154 21.844 285.437 21.732 285.768 21.732C286.098 21.732 286.376 21.844 286.6 22.068C286.834 22.292 286.952 22.5693 286.952 22.9C286.952 23.2413 286.84 23.524 286.616 23.748C286.392 23.972 286.109 24.084 285.768 24.084Z" fill="#413F3F"/>
</svg>
