<svg width="282" height="49" viewBox="0 0 282 49" fill="none" xmlns="http://www.w3.org/2000/svg">
<path fill-rule="evenodd" clip-rule="evenodd" d="M0 0H282V36H148.506L141 49L133.494 36H0V0Z" fill="#FFC42D"/>
<path fill-rule="evenodd" clip-rule="evenodd" d="M38.2562 8.34737C39.0312 7.00498 40.9688 7.00498 41.7438 8.34738L51.7272 25.6391C52.5023 26.9815 51.5335 28.6595 49.9834 28.6595H30.0166C28.4665 28.6595 27.4977 26.9815 28.2728 25.6391L38.2562 8.34737ZM41.1578 14.7909C41.1578 15.4581 40.6169 15.999 39.9497 15.999C39.2824 15.999 38.7415 15.4581 38.7415 14.7909C38.7415 14.1236 39.2824 13.5827 39.9497 13.5827C40.6169 13.5827 41.1578 14.1236 41.1578 14.7909ZM41.1578 24.4562V17.4086H38.7415V24.4562H41.1578Z" fill="#413F3F"/>
<path d="M82.9152 12H84.5152V25.664H82.9152V12ZM76.4672 25.024C75.6352 25.024 74.9099 24.7893 74.2912 24.32C73.6725 23.8613 73.1872 23.1573 72.8352 22.208C72.4939 21.2587 72.3232 20.08 72.3232 18.672C72.3232 17.264 72.4939 16.0853 72.8352 15.136C73.1872 14.1867 73.6725 13.4827 74.2912 13.024C74.9099 12.5547 75.6352 12.32 76.4672 12.32C77.2885 12.32 78.0085 12.5547 78.6272 13.024C79.2459 13.4827 79.7259 14.1867 80.0672 15.136C80.4192 16.0853 80.5952 17.264 80.5952 18.672C80.5952 20.08 80.4192 21.2587 80.0672 22.208C79.7259 23.1573 79.2459 23.8613 78.6272 24.32C78.0085 24.7893 77.2885 25.024 76.4672 25.024ZM76.4672 23.568C77.2245 23.568 77.8379 23.168 78.3072 22.368C78.7765 21.5573 79.0112 20.3253 79.0112 18.672C79.0112 17.0293 78.7765 15.8027 78.3072 14.992C77.8379 14.1813 77.2245 13.776 76.4672 13.776C75.6992 13.776 75.0805 14.1813 74.6112 14.992C74.1419 15.792 73.9072 17.0187 73.9072 18.672C73.9072 20.3253 74.1365 21.5573 74.5952 22.368C75.0645 23.168 75.6885 23.568 76.4672 23.568ZM98.3058 12H99.8898V25.664H98.3058V12ZM87.9218 12.496H95.6658V24.848H87.9218V12.496ZM94.0818 23.36V13.984H89.5058V23.36H94.0818ZM119.797 18.496H107.957V12.16H109.589V17.024H119.797V18.496ZM120.661 21.632H114.629V25.984H113.013V21.632H107.013V20.128H120.661V21.632ZM133.475 13.536H123.299V12.16H135.075V17.072H133.475V13.536ZM136.051 17.888V19.264H130.035V22.32H128.435V19.264H122.403V17.888H136.051ZM124.963 24.144H135.347V25.504H123.347V20.816H124.963V24.144ZM152.082 19.056H150.162V25.664H148.578V12H150.162V17.536H152.082V19.056ZM138.29 12.496H145.73V15.792C145.73 17.5947 145.431 19.1787 144.834 20.544C144.237 21.8987 143.378 22.9493 142.258 23.696C141.138 24.4427 139.815 24.816 138.29 24.816V23.312C139.517 23.312 140.562 23.008 141.426 22.4C142.301 21.7813 142.967 20.912 143.426 19.792C143.885 18.672 144.114 17.3493 144.114 15.824V13.952H138.29V12.496ZM171.957 19.056H170.037V25.664H168.453V12H170.037V17.536H171.957V19.056ZM163.573 12.4C163.552 14.5653 163.37 16.4587 163.029 18.08L167.333 23.904L166.053 24.816L162.533 19.936C162.042 21.44 161.392 22.6187 160.581 23.472C159.77 24.3147 158.837 24.7733 157.781 24.848V23.248C158.666 23.1093 159.418 22.544 160.037 21.552C160.666 20.56 161.141 19.264 161.461 17.664C161.781 16.064 161.946 14.288 161.957 12.336L163.573 12.4ZM186.708 18.4V19.68H173.06V18.4H176.052V16.688C175.358 16.4853 174.814 16.2027 174.42 15.84C174.036 15.4773 173.844 15.04 173.844 14.528C173.844 13.6533 174.404 13.0027 175.524 12.576C176.644 12.1387 178.094 11.92 179.876 11.92C181.657 11.92 183.108 12.1387 184.228 12.576C185.348 13.0027 185.908 13.6533 185.908 14.528C185.908 15.04 185.71 15.4773 185.316 15.84C184.932 16.2027 184.393 16.4853 183.7 16.688V18.4H186.708ZM175.524 14.528C175.524 14.9867 175.929 15.3333 176.74 15.568C177.55 15.792 178.596 15.904 179.876 15.904C181.156 15.904 182.201 15.792 183.012 15.568C183.822 15.3333 184.228 14.9867 184.228 14.528C184.228 14.08 183.817 13.744 182.996 13.52C182.185 13.2853 181.145 13.168 179.876 13.168C178.606 13.168 177.561 13.2853 176.74 13.52C175.929 13.744 175.524 14.08 175.524 14.528ZM177.62 18.4H182.132V17.024C181.385 17.1093 180.633 17.152 179.876 17.152C179.118 17.152 178.366 17.1093 177.62 17.024V18.4ZM179.876 20.736C181.678 20.736 183.129 20.928 184.228 21.312C185.326 21.696 185.876 22.3253 185.876 23.2C185.876 24.0747 185.321 24.7093 184.212 25.104C183.113 25.4987 181.668 25.696 179.876 25.696C178.084 25.696 176.633 25.4987 175.524 25.104C174.425 24.7093 173.876 24.0747 173.876 23.2C173.876 22.3253 174.425 21.696 175.524 21.312C176.622 20.928 178.073 20.736 179.876 20.736ZM179.876 24.448C181.124 24.448 182.158 24.3467 182.98 24.144C183.801 23.952 184.212 23.6373 184.212 23.2C184.212 22.7733 183.801 22.464 182.98 22.272C182.158 22.08 181.124 21.984 179.876 21.984C178.628 21.984 177.593 22.08 176.772 22.272C175.961 22.464 175.556 22.7733 175.556 23.2C175.556 23.6373 175.961 23.952 176.772 24.144C177.593 24.3467 178.628 24.448 179.876 24.448ZM195.042 15.488C194.37 16.0213 193.512 16.4373 192.466 16.736C191.421 17.024 190.317 17.1787 189.154 17.2V15.904C189.986 15.8827 190.797 15.776 191.586 15.584C192.386 15.3813 193.069 15.0987 193.634 14.736C194.21 14.3733 194.568 13.9413 194.706 13.44H189.378V12.16H201.154V13.44H196.322C196.28 13.8027 196.157 14.1387 195.954 14.448L201.522 16.016L201.106 17.264L195.042 15.488ZM196.05 19.456V20.752C197.64 20.8053 198.904 21.0293 199.842 21.424C200.792 21.808 201.266 22.4 201.266 23.2C201.266 24.0747 200.712 24.7093 199.602 25.104C198.504 25.4987 197.058 25.696 195.266 25.696C193.474 25.696 192.024 25.4987 190.914 25.104C189.816 24.7093 189.266 24.0747 189.266 23.2C189.266 22.4 189.736 21.808 190.674 21.424C191.624 21.0293 192.893 20.8053 194.482 20.752V19.456H188.45V18.176H202.098V19.456H196.05ZM199.602 23.2C199.602 22.7733 199.192 22.464 198.37 22.272C197.549 22.08 196.514 21.984 195.266 21.984C194.018 21.984 192.984 22.08 192.162 22.272C191.352 22.464 190.946 22.7733 190.946 23.2C190.946 23.6373 191.352 23.952 192.162 24.144C192.984 24.3467 194.018 24.448 195.266 24.448C196.514 24.448 197.549 24.3467 198.37 24.144C199.192 23.952 199.602 23.6373 199.602 23.2ZM215.009 12H216.609V25.664H215.009V12ZM208.561 25.024C207.729 25.024 207.004 24.7893 206.385 24.32C205.766 23.8613 205.281 23.1573 204.929 22.208C204.588 21.2587 204.417 20.08 204.417 18.672C204.417 17.264 204.588 16.0853 204.929 15.136C205.281 14.1867 205.766 13.4827 206.385 13.024C207.004 12.5547 207.729 12.32 208.561 12.32C209.382 12.32 210.102 12.5547 210.721 13.024C211.34 13.4827 211.82 14.1867 212.161 15.136C212.513 16.0853 212.689 17.264 212.689 18.672C212.689 20.08 212.513 21.2587 212.161 22.208C211.82 23.1573 211.34 23.8613 210.721 24.32C210.102 24.7893 209.382 25.024 208.561 25.024ZM208.561 23.568C209.318 23.568 209.932 23.168 210.401 22.368C210.87 21.5573 211.105 20.3253 211.105 18.672C211.105 17.0293 210.87 15.8027 210.401 14.992C209.932 14.1813 209.318 13.776 208.561 13.776C207.793 13.776 207.174 14.1813 206.705 14.992C206.236 15.792 206.001 17.0187 206.001 18.672C206.001 20.3253 206.23 21.5573 206.689 22.368C207.158 23.168 207.782 23.568 208.561 23.568ZM232.368 12V25.664H230.88V12H232.368ZM227.648 12.08H229.104V25.424H227.648V21.712H225.472C225.258 22.832 224.906 23.664 224.416 24.208C223.936 24.752 223.317 25.024 222.56 25.024C221.514 25.024 220.725 24.512 220.192 23.488C219.669 22.4533 219.408 20.848 219.408 18.672C219.408 16.496 219.669 14.896 220.192 13.872C220.725 12.8373 221.514 12.32 222.56 12.32C223.989 12.32 224.922 13.2693 225.36 15.168H227.648V12.08ZM222.56 23.584C223.125 23.584 223.541 23.1893 223.808 22.4C224.074 21.6 224.208 20.3573 224.208 18.672C224.208 16.9867 224.074 15.7493 223.808 14.96C223.541 14.16 223.125 13.76 222.56 13.76C221.994 13.76 221.573 14.16 221.296 14.96C221.029 15.76 220.896 16.9973 220.896 18.672C220.896 20.3467 221.029 21.584 221.296 22.384C221.573 23.184 221.994 23.584 222.56 23.584ZM227.648 20.256V16.624H225.6C225.664 17.232 225.696 17.9147 225.696 18.672C225.696 19.248 225.68 19.776 225.648 20.256H227.648ZM248.27 23.552V25.008H234.622V23.552H237.758V19.856C236.969 19.4933 236.356 19.0187 235.918 18.432C235.492 17.8347 235.278 17.1573 235.278 16.4C235.278 15.568 235.529 14.8373 236.03 14.208C236.542 13.5787 237.262 13.0933 238.19 12.752C239.129 12.4107 240.212 12.24 241.438 12.24C242.665 12.24 243.742 12.4107 244.67 12.752C245.609 13.0933 246.329 13.5787 246.83 14.208C247.342 14.8373 247.598 15.568 247.598 16.4C247.598 17.1573 247.38 17.8347 246.942 18.432C246.516 19.0187 245.913 19.488 245.134 19.84V23.552H248.27ZM236.958 16.4C236.958 16.9333 237.145 17.408 237.518 17.824C237.892 18.2293 238.414 18.544 239.086 18.768C239.769 18.992 240.553 19.104 241.438 19.104C242.324 19.104 243.108 18.992 243.79 18.768C244.473 18.544 245.001 18.2293 245.374 17.824C245.748 17.408 245.934 16.9333 245.934 16.4C245.934 15.856 245.748 15.3813 245.374 14.976C245.001 14.56 244.473 14.24 243.79 14.016C243.108 13.792 242.324 13.68 241.438 13.68C240.553 13.68 239.769 13.792 239.086 14.016C238.414 14.24 237.892 14.56 237.518 14.976C237.145 15.3813 236.958 15.856 236.958 16.4ZM239.342 23.552H243.55V20.352C242.91 20.48 242.206 20.544 241.438 20.544C240.681 20.544 239.982 20.48 239.342 20.352V23.552Z" fill="#413F3F"/>
</svg>
