<svg width="260" height="49" viewBox="0 0 260 49" fill="none" xmlns="http://www.w3.org/2000/svg">
<path fill-rule="evenodd" clip-rule="evenodd" d="M0 0H260V36H137.506L130 49L122.494 36H0V0Z" fill="#1ED30F"/>
<path fill-rule="evenodd" clip-rule="evenodd" d="M40 28.5C45.799 28.5 50.5 23.799 50.5 18C50.5 12.201 45.799 7.5 40 7.5C34.201 7.5 29.5 12.201 29.5 18C29.5 23.799 34.201 28.5 40 28.5ZM45.4654 15.3903C45.9571 14.7687 45.8518 13.8662 45.2303 13.3746C44.6087 12.8829 43.7062 12.9882 43.2146 13.6097L38.7262 19.2837L36.7458 16.9918C36.2277 16.3921 35.3215 16.326 34.7218 16.8442C34.1221 17.3624 34.056 18.2685 34.5742 18.8682L37.6338 22.4092C38.2514 23.1239 39.367 23.0997 39.953 22.3589L45.4654 15.3903Z" fill="#413F3F"/>
<path d="M97.2205 15.072C96.5378 15.5627 95.6738 15.9467 94.6285 16.224C93.5938 16.5013 92.5165 16.6507 91.3965 16.672V15.44C92.6338 15.408 93.7805 15.2107 94.8365 14.848C95.9032 14.4853 96.5858 13.9947 96.8845 13.376H91.6205V12.16H103.397V13.376H98.5165C98.4418 13.632 98.3298 13.872 98.1805 14.096L103.781 15.552L103.397 16.736L97.2205 15.072ZM104.341 17.616V18.832H90.6925V17.616H96.7245V16.304H98.2925V17.616H104.341ZM98.3085 20.24H103.605V21.44H91.3965V20.24H96.7085V19.376H98.3085V20.24ZM97.4925 22.096C99.3378 22.096 100.714 22.2453 101.621 22.544C102.527 22.8427 102.981 23.3013 102.981 23.92C102.981 24.5387 102.527 24.9973 101.621 25.296C100.714 25.5947 99.3378 25.744 97.4925 25.744C95.6472 25.744 94.2712 25.5947 93.3645 25.296C92.4685 24.9973 92.0205 24.5387 92.0205 23.92C92.0205 23.3013 92.4685 22.8427 93.3645 22.544C94.2712 22.2453 95.6472 22.096 97.4925 22.096ZM97.4925 24.624C98.7298 24.624 99.6845 24.56 100.357 24.432C101.039 24.3147 101.381 24.144 101.381 23.92C101.381 23.696 101.039 23.5253 100.357 23.408C99.6845 23.28 98.7298 23.216 97.4925 23.216C96.2658 23.216 95.3112 23.28 94.6285 23.408C93.9565 23.5253 93.6205 23.696 93.6205 23.92C93.6205 24.144 93.9565 24.3147 94.6285 24.432C95.3112 24.56 96.2658 24.624 97.4925 24.624ZM112.899 17.888C111.758 17.888 110.728 17.776 109.811 17.552C108.904 17.328 108.179 16.992 107.635 16.544C107.102 16.096 106.835 15.5467 106.835 14.896C106.835 14.2453 107.102 13.696 107.635 13.248C108.179 12.8 108.91 12.4693 109.827 12.256C110.744 12.032 111.768 11.92 112.899 11.92C114.03 11.92 115.054 12.032 115.971 12.256C116.888 12.4693 117.614 12.8 118.147 13.248C118.691 13.696 118.963 14.2453 118.963 14.896C118.963 15.5467 118.691 16.096 118.147 16.544C117.614 16.992 116.888 17.328 115.971 17.552C115.064 17.776 114.04 17.888 112.899 17.888ZM112.899 16.608C114.147 16.608 115.187 16.4587 116.019 16.16C116.862 15.8507 117.283 15.4293 117.283 14.896C117.283 14.3627 116.862 13.9467 116.019 13.648C115.187 13.3493 114.147 13.2 112.899 13.2C111.651 13.2 110.606 13.3493 109.763 13.648C108.931 13.9467 108.515 14.3627 108.515 14.896C108.515 15.4293 108.931 15.8507 109.763 16.16C110.606 16.4587 111.651 16.608 112.899 16.608ZM106.083 19.104H119.731V20.448H106.083V19.104ZM107.027 21.616H108.643V24.144H119.027V25.504H107.027V21.616ZM137.126 12H138.726V25.664H137.126V12ZM130.678 25.024C129.846 25.024 129.121 24.7893 128.502 24.32C127.883 23.8613 127.398 23.1573 127.046 22.208C126.705 21.2587 126.534 20.08 126.534 18.672C126.534 17.264 126.705 16.0853 127.046 15.136C127.398 14.1867 127.883 13.4827 128.502 13.024C129.121 12.5547 129.846 12.32 130.678 12.32C131.499 12.32 132.219 12.5547 132.838 13.024C133.457 13.4827 133.937 14.1867 134.278 15.136C134.63 16.0853 134.806 17.264 134.806 18.672C134.806 20.08 134.63 21.2587 134.278 22.208C133.937 23.1573 133.457 23.8613 132.838 24.32C132.219 24.7893 131.499 25.024 130.678 25.024ZM130.678 23.568C131.435 23.568 132.049 23.168 132.518 22.368C132.987 21.5573 133.222 20.3253 133.222 18.672C133.222 17.0293 132.987 15.8027 132.518 14.992C132.049 14.1813 131.435 13.776 130.678 13.776C129.91 13.776 129.291 14.1813 128.822 14.992C128.353 15.792 128.118 17.0187 128.118 18.672C128.118 20.3253 128.347 21.5573 128.806 22.368C129.275 23.168 129.899 23.568 130.678 23.568ZM142.341 14.416H152.469V13.344H142.341V12.16H154.021V15.552H143.893V16.624H154.213V17.808H142.341V14.416ZM141.349 18.96H154.997V20.192H141.349V18.96ZM142.293 21.344H154.037V25.504H142.293V21.344ZM152.469 24.304V22.544H143.861V24.304H152.469ZM167.907 12H169.507V25.664H167.907V12ZM161.459 25.024C160.627 25.024 159.902 24.7893 159.283 24.32C158.665 23.8613 158.179 23.1573 157.827 22.208C157.486 21.2587 157.315 20.08 157.315 18.672C157.315 17.264 157.486 16.0853 157.827 15.136C158.179 14.1867 158.665 13.4827 159.283 13.024C159.902 12.5547 160.627 12.32 161.459 12.32C162.281 12.32 163.001 12.5547 163.619 13.024C164.238 13.4827 164.718 14.1867 165.059 15.136C165.411 16.0853 165.587 17.264 165.587 18.672C165.587 20.08 165.411 21.2587 165.059 22.208C164.718 23.1573 164.238 23.8613 163.619 24.32C163.001 24.7893 162.281 25.024 161.459 25.024ZM161.459 23.568C162.217 23.568 162.83 23.168 163.299 22.368C163.769 21.5573 164.003 20.3253 164.003 18.672C164.003 17.0293 163.769 15.8027 163.299 14.992C162.83 14.1813 162.217 13.776 161.459 13.776C160.691 13.776 160.073 14.1813 159.603 14.992C159.134 15.792 158.899 17.0187 158.899 18.672C158.899 20.3253 159.129 21.5573 159.587 22.368C160.057 23.168 160.681 23.568 161.459 23.568ZM185.266 12V25.664H183.762V12H185.266ZM180.466 12.08H181.954V25.424H180.466V18.496H176.866V17.024H180.466V12.08ZM176.018 23.44C176.605 23.44 177.175 23.3973 177.73 23.312C178.295 23.216 178.786 23.0827 179.202 22.912V24.304C178.807 24.4853 178.306 24.6187 177.698 24.704C177.101 24.8 176.482 24.848 175.842 24.848H172.546V12.464H174.098V23.44H176.018ZM201.169 23.552V25.008H187.521V23.552H190.657V19.856C189.867 19.4933 189.254 19.0187 188.817 18.432C188.39 17.8347 188.177 17.1573 188.177 16.4C188.177 15.568 188.427 14.8373 188.929 14.208C189.441 13.5787 190.161 13.0933 191.089 12.752C192.027 12.4107 193.11 12.24 194.337 12.24C195.563 12.24 196.641 12.4107 197.569 12.752C198.507 13.0933 199.227 13.5787 199.729 14.208C200.241 14.8373 200.497 15.568 200.497 16.4C200.497 17.1573 200.278 17.8347 199.841 18.432C199.414 19.0187 198.811 19.488 198.033 19.84V23.552H201.169ZM189.857 16.4C189.857 16.9333 190.043 17.408 190.417 17.824C190.79 18.2293 191.313 18.544 191.985 18.768C192.667 18.992 193.451 19.104 194.337 19.104C195.222 19.104 196.006 18.992 196.689 18.768C197.371 18.544 197.899 18.2293 198.273 17.824C198.646 17.408 198.833 16.9333 198.833 16.4C198.833 15.856 198.646 15.3813 198.273 14.976C197.899 14.56 197.371 14.24 196.689 14.016C196.006 13.792 195.222 13.68 194.337 13.68C193.451 13.68 192.667 13.792 191.985 14.016C191.313 14.24 190.79 14.56 190.417 14.976C190.043 15.3813 189.857 15.856 189.857 16.4ZM192.241 23.552H196.449V20.352C195.809 20.48 195.105 20.544 194.337 20.544C193.579 20.544 192.881 20.48 192.241 20.352V23.552ZM203.103 12.512H205.135L204.719 21.776H203.503L203.103 12.512ZM204.111 25.584C203.781 25.584 203.498 25.472 203.263 25.248C203.039 25.024 202.927 24.7413 202.927 24.4C202.927 24.0693 203.039 23.792 203.263 23.568C203.498 23.344 203.781 23.232 204.111 23.232C204.442 23.232 204.719 23.344 204.943 23.568C205.178 23.792 205.295 24.0693 205.295 24.4C205.295 24.7413 205.183 25.024 204.959 25.248C204.735 25.472 204.453 25.584 204.111 25.584Z" fill="#413F3F"/>
</svg>
