<svg width="24" height="24" viewBox="0 0 24 24" fill="none" xmlns="http://www.w3.org/2000/svg">
<g clip-path="url(#clip0_888_18010)">
<path d="M2.59755 2.79637H2.13776C1.19576 2.79637 0.432129 3.56123 0.432129 4.50472V22.2917C0.432129 23.2351 1.19576 24 2.13776 24H21.8027C22.7446 24 23.5083 23.2351 23.5083 22.2917V4.50472C23.5083 3.56123 22.7446 2.79637 21.8027 2.79637H21.3079V3.51306C21.3079 5.36979 19.7828 6.87496 17.9014 6.87496C16.0201 6.87496 14.4949 5.36979 14.4949 3.51306V2.79637H9.41057V3.51306C9.41057 5.36979 7.88542 6.87496 6.00406 6.87496C4.12269 6.87496 2.59755 5.36979 2.59755 3.51306V2.79637Z" fill="#757271"/>
<path d="M4.45362 1.51629C4.45362 0.678867 5.15547 0 6.02124 0C6.88702 0 7.58887 0.678867 7.58887 1.51629V3.4728C7.58887 4.31022 6.88702 4.98909 6.02124 4.98909C5.15547 4.98909 4.45362 4.31022 4.45362 3.4728V1.51629Z" fill="#757271"/>
<path d="M16.2867 1.51629C16.2867 0.678867 16.9885 0 17.8543 0C18.7201 0 19.4219 0.678867 19.4219 1.51629V3.4728C19.4219 4.31022 18.7201 4.98909 17.8543 4.98909C16.9885 4.98909 16.2867 4.31022 16.2867 3.4728V1.51629Z" fill="#757271"/>
<path d="M9.63515 11.0583C9.63515 10.8021 9.8429 10.5943 10.0992 10.5943H13.8113C14.0676 10.5943 14.2753 10.8021 14.2753 11.0583V14.7702C14.2753 15.0265 14.0676 15.2342 13.8113 15.2342H10.0992C9.8429 15.2342 9.63515 15.0265 9.63515 14.7702V11.0583Z" fill="#A7A5A4"/>
<path d="M9.63515 16.8581C9.63515 16.6019 9.8429 16.3941 10.0992 16.3941H13.8113C14.0676 16.3941 14.2753 16.6019 14.2753 16.8581V20.57C14.2753 20.8263 14.0676 21.034 13.8113 21.034H10.0992C9.8429 21.034 9.63515 20.8263 9.63515 20.57V16.8581Z" fill="#A7A5A4"/>
<path d="M3.68025 11.0583C3.68025 10.8021 3.888 10.5943 4.14427 10.5943H7.85641C8.11268 10.5943 8.32043 10.8021 8.32043 11.0583V14.7702C8.32043 15.0265 8.11268 15.2342 7.85641 15.2342H4.14427C3.888 15.2342 3.68025 15.0265 3.68025 14.7702V11.0583Z" fill="#A7A5A4"/>
<path d="M3.68025 16.8581C3.68025 16.6019 3.888 16.3941 4.14427 16.3941H7.85641C8.11268 16.3941 8.32043 16.6019 8.32043 16.8581V20.57C8.32043 20.8263 8.11268 21.034 7.85641 21.034H4.14427C3.888 21.034 3.68025 20.8263 3.68025 20.57V16.8581Z" fill="#A7A5A4"/>
<path d="M15.59 11.0583C15.59 10.8021 15.7978 10.5943 16.0541 10.5943H19.7662C20.0225 10.5943 20.2302 10.8021 20.2302 11.0583V14.7702C20.2302 15.0265 20.0225 15.2342 19.7662 15.2342H16.0541C15.7978 15.2342 15.59 15.0265 15.59 14.7702V11.0583Z" fill="#A7A5A4"/>
<path d="M15.59 16.8581C15.59 16.6019 15.7978 16.3941 16.0541 16.3941H19.7662C20.0225 16.3941 20.2302 16.6019 20.2302 16.8581V20.57C20.2302 20.8263 20.0225 21.034 19.7662 21.034H16.0541C15.7978 21.034 15.59 20.8263 15.59 20.57V16.8581Z" fill="#A7A5A4"/>
</g>
<defs>
<clipPath id="clip0_888_18010">
<rect width="23.9999" height="24" fill="white"/>
</clipPath>
</defs>
</svg>
