<svg width="36" height="36" viewBox="0 0 36 36" fill="none" xmlns="http://www.w3.org/2000/svg">
<path d="M36 18C36 27.9411 27.9411 36 18 36C8.05887 36 0 27.9411 0 18C0 8.05887 8.05887 0 18 0C27.9411 0 36 8.05887 36 18Z" fill="#FF0505"/>
<path d="M17.4567 11.2786C19.0873 14.8955 16.4784 20.9732 15.2628 22.9002C17.3381 19.8169 24.1273 17.2969 24.9574 21.5068C25.9951 26.6654 16.3301 29.3633 12.7725 26.7544C8.94802 23.9379 9.42238 14.7176 13.3951 10.2113C16.0337 7.21694 20.1843 6.83153 22.7339 8.04706C26.6177 9.82588 26.2323 14.0358 24.5424 15.0438C21.3701 16.9412 18.7316 13.6504 17.4567 11.2786Z" fill="#FFD1D1"/>
</svg>
