<svg width="36" height="36" viewBox="0 0 36 36" fill="none" xmlns="http://www.w3.org/2000/svg">
<path d="M7.72995 8.84022C7.42335 9.14682 7.42335 9.6439 7.72995 9.9505L15.7794 18L7.72995 26.0495C7.42335 26.3561 7.42335 26.8532 7.72995 27.1598L8.84022 28.2701C9.14682 28.5766 9.6439 28.5766 9.9505 28.2701L18 20.2206L26.0495 28.2701C26.3561 28.5766 26.8532 28.5766 27.1598 28.2701L28.2701 27.1598C28.5766 26.8532 28.5766 26.3561 28.2701 26.0495L20.2206 18L28.2701 9.9505C28.5766 9.6439 28.5766 9.14682 28.2701 8.84022L27.1598 7.72995C26.8532 7.42335 26.3561 7.42335 26.0495 7.72995L18 15.7794L9.9505 7.72995C9.6439 7.42335 9.14682 7.42335 8.84022 7.72995L7.72995 8.84022Z" fill="#757271"/>
</svg>
