<svg width="24" height="24" viewBox="0 0 24 24" fill="none" xmlns="http://www.w3.org/2000/svg">
<path d="M0 11.7144C0 5.2447 5.24552 0 11.7152 0C18.1848 0 23.4304 5.2447 23.4304 11.7144C23.4304 18.184 18.1848 23.4287 11.7152 23.4287C5.24552 23.4287 0 18.184 0 11.7144Z" fill="#A7A5A4"/>
<path d="M18.8582 21.271C16.9241 22.6288 14.557 23.4276 12.0005 23.4276C9.44394 23.4276 7.0769 22.6288 5.14282 21.271C5.17628 17.5705 8.23374 14.581 12.0005 14.581C15.7672 14.581 18.8247 17.5705 18.8582 21.271Z" fill="#757271"/>
<path d="M7.74388 8.76081C7.74388 6.44646 9.64965 4.57031 12.0005 4.57031C14.3514 4.57031 16.2572 6.44646 16.2572 8.76081C16.2572 11.0752 14.3514 12.9513 12.0005 12.9513C9.64965 12.9513 7.74388 11.0752 7.74388 8.76081Z" fill="#757271"/>
<path d="M23.9999 12.2847C23.9999 18.7543 18.7549 23.999 12.2848 23.999C5.81464 23.999 0.56958 18.7543 0.56958 12.2847C0.56958 5.81501 5.81464 0.570312 12.2848 0.570312C18.7549 0.570312 23.9999 5.81501 23.9999 12.2847ZM3.12935 12.2847C3.12935 17.3407 7.22836 21.4394 12.2848 21.4394C17.3412 21.4394 21.4402 17.3407 21.4402 12.2847C21.4402 7.22863 17.3412 3.1299 12.2848 3.1299C7.22836 3.1299 3.12935 7.22863 3.12935 12.2847Z" fill="#A7A5A4"/>
</svg>
