<svg width="36" height="36" viewBox="0 0 36 36" fill="none" xmlns="http://www.w3.org/2000/svg">
<path d="M36 18C36 27.9411 27.9411 36 18 36C8.05887 36 0 27.9411 0 18C0 8.05887 8.05887 0 18 0C27.9411 0 36 8.05887 36 18Z" fill="#31B12F"/>
<path d="M17.5663 5.98447C22.5766 4.50212 26.075 18.0212 23.9404 23.5652C23.2882 25.2551 21.8651 26.0259 20.531 26.0259C17.8924 26.0259 17.0623 23.4169 18.1889 20.7191C16.6472 21.4602 15.6392 21.2824 15.3428 20.5115C15.9653 23.9506 13.8604 25.9073 11.4886 25.5812C6.77476 24.9586 11.1922 10.3129 15.8171 10.3722C15.5206 9.06776 15.6689 6.54776 17.5663 5.98447ZM15.6985 17.9915C15.6985 17.9915 17.2698 16.8353 18.7818 18.1694C17.5663 17.0725 17.3884 14.8786 17.2995 12.8626C17.2995 12.8626 17.1809 16.7464 15.6985 17.9915Z" fill="#D7F4D7"/>
</svg>
