<svg width="36" height="36" viewBox="0 0 36 36" fill="none" xmlns="http://www.w3.org/2000/svg">
<path d="M36 18C36 27.9411 27.9411 36 18 36C8.05887 36 0 27.9411 0 18C0 8.05887 8.05887 0 18 0C27.9411 0 36 8.05887 36 18Z" fill="#FFC42D"/>
<path d="M21.0146 18.3304C21.0146 18.3304 26.8847 18.0635 26.2325 22.896C25.5803 27.7285 15.7967 30.0113 12.4466 26.8094C9.0965 23.6372 13.2767 14.5948 13.2767 14.5948C11.7647 15.4249 10.6678 14.6838 10.2527 13.5275C9.12615 10.4146 13.9883 8.28 17.0123 8.07247C20.7478 7.83529 24.6316 8.784 25.5803 11.2447C26.8254 14.4169 24.3944 17.2927 21.0146 18.3304ZM20.0066 11.7784C18.9393 14.5355 16.5972 13.3793 16.5972 13.3793C17.2198 13.6758 17.961 14.6245 17.0716 15.84C17.872 14.8616 19.3544 14.0908 20.481 15.0395C19.4137 13.5572 20.0066 11.7784 20.0066 11.7784ZM17.2791 25.5049C17.2791 25.5049 18.7614 22.6588 21.6076 23.9336C21.6076 23.9336 19.7991 23.0146 20.1252 21.3247C19.473 23.1925 17.9017 23.2518 16.1229 22.0955C16.1229 22.0955 18.2574 23.4889 17.2791 25.5049Z" fill="#FFF6E0"/>
</svg>
