<svg width="54" height="54" viewBox="0 0 54 54" fill="none" xmlns="http://www.w3.org/2000/svg">
<mask id="mask0_346_714" style="mask-type:alpha" maskUnits="userSpaceOnUse" x="0" y="0" width="54" height="54">
<rect width="54" height="54" fill="#D9D9D9"/>
</mask>
<g mask="url(#mask0_346_714)">
<path d="M24.75 31.25C24.75 30.1454 23.8546 29.25 22.75 29.25H13.25C12.1454 29.25 11.25 28.3546 11.25 27.25V26.75C11.25 25.6454 12.1454 24.75 13.25 24.75H22.75C23.8546 24.75 24.75 23.8546 24.75 22.75V13.25C24.75 12.1454 25.6454 11.25 26.75 11.25H27.25C28.3546 11.25 29.25 12.1454 29.25 13.25V22.75C29.25 23.8546 30.1454 24.75 31.25 24.75H40.75C41.8546 24.75 42.75 25.6454 42.75 26.75V27.25C42.75 28.3546 41.8546 29.25 40.75 29.25H31.25C30.1454 29.25 29.25 30.1454 29.25 31.25V40.75C29.25 41.8546 28.3546 42.75 27.25 42.75H26.75C25.6454 42.75 24.75 41.8546 24.75 40.75V31.25Z" fill="white"/>
</g>
</svg>
