<svg width="24" height="24" viewBox="0 0 24 24" fill="none" xmlns="http://www.w3.org/2000/svg">
<rect width="24" height="24" fill="#E6E5E5"/>
<path d="M5.8604 6.69774C5.70627 6.54362 5.70627 6.29373 5.8604 6.1396L6.41854 5.58146C6.57266 5.42734 6.82255 5.42734 6.97668 5.58146L18.4185 17.0233C18.5727 17.1775 18.5727 17.4273 18.4185 17.5815L17.8604 18.1396C17.7063 18.2937 17.4564 18.2937 17.3023 18.1396L5.8604 6.69774Z" fill="#A7A5A4"/>
<path d="M6.97685 18.4187C6.82272 18.5728 6.57283 18.5728 6.41871 18.4187L5.86057 17.8606C5.70644 17.7064 5.70644 17.4566 5.86057 17.3024L17.3024 5.86057C17.4566 5.70644 17.7064 5.70644 17.8606 5.86057L18.4187 6.41871C18.5728 6.57283 18.5728 6.82272 18.4187 6.97685L6.97685 18.4187Z" fill="#A7A5A4"/>
</svg>
