<svg width="20" height="20" viewBox="0 0 20 20" fill="none" xmlns="http://www.w3.org/2000/svg">
<path d="M10 2C12.3732 2 14.5051 3.03337 15.9701 4.67471V3.03483C15.9701 2.59519 16.3265 2.23881 16.7662 2.23881C17.2058 2.23881 17.5622 2.59519 17.5622 3.03483V7.21393H13.3831C12.9434 7.21393 12.5871 6.85755 12.5871 6.41791C12.5871 5.97827 12.9434 5.62189 13.3831 5.62189H14.7335C13.5557 4.34907 11.8709 3.55224 10 3.55224C6.61717 3.55224 3.84279 6.15736 3.57364 9.47083C3.58568 9.52591 3.55224 9.5831 3.55224 9.64179V9.68159C3.55224 10.1212 3.23565 10.4776 2.79602 10.4776C2.35639 10.4776 2 10.1212 2 9.68159V9.64179C2 9.60496 2.0025 9.56874 2.00734 9.53325C2.00984 9.51489 2.01297 9.49672 2.0167 9.47878C2.28522 5.30342 5.75683 2 10 2Z" fill="#757271"/>
<path d="M10 18C7.62679 18 5.49493 16.9666 4.02985 15.3253V16.9652C4.02985 17.4048 3.67347 17.7612 3.23383 17.7612C2.79419 17.7612 2.43781 17.4048 2.43781 16.9652V12.7861H6.61692C7.05655 12.7861 7.41294 13.1425 7.41294 13.5821C7.41294 14.0217 7.05655 14.3781 6.61692 14.3781H5.2665C6.4443 15.6509 8.1291 16.4478 10 16.4478C13.3828 16.4478 16.1572 13.8426 16.4264 10.5292C16.4143 10.4741 16.4478 10.4169 16.4478 10.3582V10.3184C16.4478 9.87877 16.7644 9.52239 17.204 9.52239C17.6436 9.52239 18 9.87877 18 10.3184V10.3582C18 10.395 17.9975 10.4313 17.9927 10.4667C17.9902 10.4851 17.987 10.5033 17.9833 10.5212C17.7148 14.6966 14.2432 18 10 18Z" fill="#757271"/>
</svg>
