<svg width="240" height="37" viewBox="0 0 240 37" fill="none" xmlns="http://www.w3.org/2000/svg">
<g filter="url(#filter0_d_252_1871)">
<mask id="path-1-outside-1_252_1871" maskUnits="userSpaceOnUse" x="3" y="-1" width="234" height="31" fill="black">
<rect fill="white" x="3" y="-1" width="234" height="31"/>
<path d="M31.2649 18.664H6.11288V13.704H10.2729V6.632H6.40088V1.64H30.9769V6.632H27.1049V13.704H31.2649V18.664ZM15.7129 13.704H21.6649V6.632H15.7129V13.704ZM32.5129 22.312V27.368H4.86488V22.312H32.5129ZM63.2941 22.44V27.368H35.6461V22.44H46.7181V19.368H37.1821V8.232H56.4461V6.376H37.1181V1.64H61.7901V12.744H42.5261V14.632H62.1101V19.368H52.2221V22.44H63.2941ZM92.8594 14.696H87.4514V0.999998H92.8594V14.696ZM86.2034 13.16C85.5207 13.4587 84.5287 13.6933 83.2274 13.864C81.926 14.0347 80.6034 14.12 79.2594 14.12H66.7474V10.024H69.3394V5.448H66.9394V1.32H85.3394V5.448H82.9074V9.864C84.2514 9.69333 85.35 9.448 86.2034 9.128V13.16ZM74.4274 10.024H77.8194V5.448H74.4274V10.024ZM93.1474 24.648V28.328H68.4434V20.392H87.5154V19.336H68.3794V15.656H92.8594V23.592H73.7874V24.648H93.1474ZM132.161 5.128H113.217V7.048H132.481V11.176H107.841V0.999998H132.161V5.128ZM133.825 16.744H106.177V12.584H133.825V16.744ZM120.001 17.896C123.927 17.896 126.999 18.3333 129.217 19.208C131.436 20.0613 132.545 21.4267 132.545 23.304C132.545 25.1813 131.436 26.5467 129.217 27.4C126.999 28.2747 123.927 28.712 120.001 28.712C116.076 28.712 113.004 28.2747 110.785 27.4C108.567 26.5467 107.457 25.1813 107.457 23.304C107.457 21.4267 108.567 20.0613 110.785 19.208C113.004 18.3333 116.076 17.896 120.001 17.896ZM120.001 21.928C117.911 21.928 116.257 22.0453 115.041 22.28C113.825 22.4933 113.217 22.8347 113.217 23.304C113.217 24.2213 115.479 24.68 120.001 24.68C124.524 24.68 126.785 24.2213 126.785 23.304C126.785 22.8347 126.177 22.4933 124.961 22.28C123.745 22.0453 122.092 21.928 120.001 21.928ZM164.607 15.112V19.24H136.959V15.112H148.095V13.704H138.655V5.768H157.663V4.52H138.591V0.999998H162.943V8.936H143.935V10.184H163.231V13.704H153.471V15.112H164.607ZM138.431 20.488H163.007V28.648H157.535V24.616H138.431V20.488ZM195.461 17.992C193.946 18.6533 191.557 18.984 188.293 18.984H176.709V14.632H183.077V12.712C181.263 12.3493 179.845 11.656 178.821 10.632C177.797 9.608 177.285 8.33867 177.285 6.824C177.285 5.608 177.626 4.54133 178.309 3.624C179.013 2.68533 180.005 1.97067 181.285 1.48C182.565 0.967999 184.058 0.711998 185.765 0.711998C187.471 0.711998 188.965 0.967999 190.245 1.48C191.525 1.97067 192.506 2.68533 193.189 3.624C193.893 4.54133 194.245 5.608 194.245 6.824C194.245 8.33867 193.722 9.61867 192.677 10.664C191.653 11.688 190.234 12.3707 188.421 12.712V14.632C189.807 14.632 191.13 14.5573 192.389 14.408C193.647 14.2373 194.671 13.9813 195.461 13.64V17.992ZM205.573 7.208V12.296H202.437V21.736H197.029V0.999998H202.437V7.208H205.573ZM182.533 6.824C182.533 7.464 182.821 7.98667 183.397 8.392C183.973 8.776 184.762 8.968 185.765 8.968C186.767 8.968 187.557 8.776 188.133 8.392C188.709 7.98667 188.997 7.464 188.997 6.824C188.997 6.184 188.709 5.672 188.133 5.288C187.557 4.88266 186.767 4.68 185.765 4.68C184.762 4.68 183.973 4.88266 183.397 5.288C182.821 5.672 182.533 6.184 182.533 6.824ZM183.813 23.752H202.821V28.328H178.341V20.36H183.813V23.752ZM235.138 22.504V27.368H207.49V22.504H213.378V19.24H209.026V8.2H228.29V6.344H208.962V1.64H233.634V12.68H214.37V14.536H233.954V19.24H229.25V22.504H235.138ZM218.786 22.504H223.842V19.24H218.786V22.504Z"/>
</mask>
<path d="M31.2649 18.664H6.11288V13.704H10.2729V6.632H6.40088V1.64H30.9769V6.632H27.1049V13.704H31.2649V18.664ZM15.7129 13.704H21.6649V6.632H15.7129V13.704ZM32.5129 22.312V27.368H4.86488V22.312H32.5129ZM63.2941 22.44V27.368H35.6461V22.44H46.7181V19.368H37.1821V8.232H56.4461V6.376H37.1181V1.64H61.7901V12.744H42.5261V14.632H62.1101V19.368H52.2221V22.44H63.2941ZM92.8594 14.696H87.4514V0.999998H92.8594V14.696ZM86.2034 13.16C85.5207 13.4587 84.5287 13.6933 83.2274 13.864C81.926 14.0347 80.6034 14.12 79.2594 14.12H66.7474V10.024H69.3394V5.448H66.9394V1.32H85.3394V5.448H82.9074V9.864C84.2514 9.69333 85.35 9.448 86.2034 9.128V13.16ZM74.4274 10.024H77.8194V5.448H74.4274V10.024ZM93.1474 24.648V28.328H68.4434V20.392H87.5154V19.336H68.3794V15.656H92.8594V23.592H73.7874V24.648H93.1474ZM132.161 5.128H113.217V7.048H132.481V11.176H107.841V0.999998H132.161V5.128ZM133.825 16.744H106.177V12.584H133.825V16.744ZM120.001 17.896C123.927 17.896 126.999 18.3333 129.217 19.208C131.436 20.0613 132.545 21.4267 132.545 23.304C132.545 25.1813 131.436 26.5467 129.217 27.4C126.999 28.2747 123.927 28.712 120.001 28.712C116.076 28.712 113.004 28.2747 110.785 27.4C108.567 26.5467 107.457 25.1813 107.457 23.304C107.457 21.4267 108.567 20.0613 110.785 19.208C113.004 18.3333 116.076 17.896 120.001 17.896ZM120.001 21.928C117.911 21.928 116.257 22.0453 115.041 22.28C113.825 22.4933 113.217 22.8347 113.217 23.304C113.217 24.2213 115.479 24.68 120.001 24.68C124.524 24.68 126.785 24.2213 126.785 23.304C126.785 22.8347 126.177 22.4933 124.961 22.28C123.745 22.0453 122.092 21.928 120.001 21.928ZM164.607 15.112V19.24H136.959V15.112H148.095V13.704H138.655V5.768H157.663V4.52H138.591V0.999998H162.943V8.936H143.935V10.184H163.231V13.704H153.471V15.112H164.607ZM138.431 20.488H163.007V28.648H157.535V24.616H138.431V20.488ZM195.461 17.992C193.946 18.6533 191.557 18.984 188.293 18.984H176.709V14.632H183.077V12.712C181.263 12.3493 179.845 11.656 178.821 10.632C177.797 9.608 177.285 8.33867 177.285 6.824C177.285 5.608 177.626 4.54133 178.309 3.624C179.013 2.68533 180.005 1.97067 181.285 1.48C182.565 0.967999 184.058 0.711998 185.765 0.711998C187.471 0.711998 188.965 0.967999 190.245 1.48C191.525 1.97067 192.506 2.68533 193.189 3.624C193.893 4.54133 194.245 5.608 194.245 6.824C194.245 8.33867 193.722 9.61867 192.677 10.664C191.653 11.688 190.234 12.3707 188.421 12.712V14.632C189.807 14.632 191.13 14.5573 192.389 14.408C193.647 14.2373 194.671 13.9813 195.461 13.64V17.992ZM205.573 7.208V12.296H202.437V21.736H197.029V0.999998H202.437V7.208H205.573ZM182.533 6.824C182.533 7.464 182.821 7.98667 183.397 8.392C183.973 8.776 184.762 8.968 185.765 8.968C186.767 8.968 187.557 8.776 188.133 8.392C188.709 7.98667 188.997 7.464 188.997 6.824C188.997 6.184 188.709 5.672 188.133 5.288C187.557 4.88266 186.767 4.68 185.765 4.68C184.762 4.68 183.973 4.88266 183.397 5.288C182.821 5.672 182.533 6.184 182.533 6.824ZM183.813 23.752H202.821V28.328H178.341V20.36H183.813V23.752ZM235.138 22.504V27.368H207.49V22.504H213.378V19.24H209.026V8.2H228.29V6.344H208.962V1.64H233.634V12.68H214.37V14.536H233.954V19.24H229.25V22.504H235.138ZM218.786 22.504H223.842V19.24H218.786V22.504Z" fill="white"/>
<path d="M31.2649 18.664V19.664H32.2649V18.664H31.2649ZM6.11288 18.664H5.11288V19.664H6.11288V18.664ZM6.11288 13.704V12.704H5.11288V13.704H6.11288ZM10.2729 13.704V14.704H11.2729V13.704H10.2729ZM10.2729 6.632H11.2729V5.632H10.2729V6.632ZM6.40088 6.632H5.40088V7.632H6.40088V6.632ZM6.40088 1.64V0.639999H5.40088V1.64H6.40088ZM30.9769 1.64H31.9769V0.639999H30.9769V1.64ZM30.9769 6.632V7.632H31.9769V6.632H30.9769ZM27.1049 6.632V5.632H26.1049V6.632H27.1049ZM27.1049 13.704H26.1049V14.704H27.1049V13.704ZM31.2649 13.704H32.2649V12.704H31.2649V13.704ZM15.7129 13.704H14.7129V14.704H15.7129V13.704ZM21.6649 13.704V14.704H22.6649V13.704H21.6649ZM21.6649 6.632H22.6649V5.632H21.6649V6.632ZM15.7129 6.632V5.632H14.7129V6.632H15.7129ZM32.5129 22.312H33.5129V21.312H32.5129V22.312ZM32.5129 27.368V28.368H33.5129V27.368H32.5129ZM4.86488 27.368H3.86488V28.368H4.86488V27.368ZM4.86488 22.312V21.312H3.86488V22.312H4.86488ZM31.2649 17.664H6.11288V19.664H31.2649V17.664ZM7.11288 18.664V13.704H5.11288V18.664H7.11288ZM6.11288 14.704H10.2729V12.704H6.11288V14.704ZM11.2729 13.704V6.632H9.27288V13.704H11.2729ZM10.2729 5.632H6.40088V7.632H10.2729V5.632ZM7.40088 6.632V1.64H5.40088V6.632H7.40088ZM6.40088 2.64H30.9769V0.639999H6.40088V2.64ZM29.9769 1.64V6.632H31.9769V1.64H29.9769ZM30.9769 5.632H27.1049V7.632H30.9769V5.632ZM26.1049 6.632V13.704H28.1049V6.632H26.1049ZM27.1049 14.704H31.2649V12.704H27.1049V14.704ZM30.2649 13.704V18.664H32.2649V13.704H30.2649ZM15.7129 14.704H21.6649V12.704H15.7129V14.704ZM22.6649 13.704V6.632H20.6649V13.704H22.6649ZM21.6649 5.632H15.7129V7.632H21.6649V5.632ZM14.7129 6.632V13.704H16.7129V6.632H14.7129ZM31.5129 22.312V27.368H33.5129V22.312H31.5129ZM32.5129 26.368H4.86488V28.368H32.5129V26.368ZM5.86488 27.368V22.312H3.86488V27.368H5.86488ZM4.86488 23.312H32.5129V21.312H4.86488V23.312ZM63.2941 22.44H64.2941V21.44H63.2941V22.44ZM63.2941 27.368V28.368H64.2941V27.368H63.2941ZM35.6461 27.368H34.6461V28.368H35.6461V27.368ZM35.6461 22.44V21.44H34.6461V22.44H35.6461ZM46.7181 22.44V23.44H47.7181V22.44H46.7181ZM46.7181 19.368H47.7181V18.368H46.7181V19.368ZM37.1821 19.368H36.1821V20.368H37.1821V19.368ZM37.1821 8.232V7.232H36.1821V8.232H37.1821ZM56.4461 8.232V9.232H57.4461V8.232H56.4461ZM56.4461 6.376H57.4461V5.376H56.4461V6.376ZM37.1181 6.376H36.1181V7.376H37.1181V6.376ZM37.1181 1.64V0.639999H36.1181V1.64H37.1181ZM61.7901 1.64H62.7901V0.639999H61.7901V1.64ZM61.7901 12.744V13.744H62.7901V12.744H61.7901ZM42.5261 12.744V11.744H41.5261V12.744H42.5261ZM42.5261 14.632H41.5261V15.632H42.5261V14.632ZM62.1101 14.632H63.1101V13.632H62.1101V14.632ZM62.1101 19.368V20.368H63.1101V19.368H62.1101ZM52.2221 19.368V18.368H51.2221V19.368H52.2221ZM52.2221 22.44H51.2221V23.44H52.2221V22.44ZM62.2941 22.44V27.368H64.2941V22.44H62.2941ZM63.2941 26.368H35.6461V28.368H63.2941V26.368ZM36.6461 27.368V22.44H34.6461V27.368H36.6461ZM35.6461 23.44H46.7181V21.44H35.6461V23.44ZM47.7181 22.44V19.368H45.7181V22.44H47.7181ZM46.7181 18.368H37.1821V20.368H46.7181V18.368ZM38.1821 19.368V8.232H36.1821V19.368H38.1821ZM37.1821 9.232H56.4461V7.232H37.1821V9.232ZM57.4461 8.232V6.376H55.4461V8.232H57.4461ZM56.4461 5.376H37.1181V7.376H56.4461V5.376ZM38.1181 6.376V1.64H36.1181V6.376H38.1181ZM37.1181 2.64H61.7901V0.639999H37.1181V2.64ZM60.7901 1.64V12.744H62.7901V1.64H60.7901ZM61.7901 11.744H42.5261V13.744H61.7901V11.744ZM41.5261 12.744V14.632H43.5261V12.744H41.5261ZM42.5261 15.632H62.1101V13.632H42.5261V15.632ZM61.1101 14.632V19.368H63.1101V14.632H61.1101ZM62.1101 18.368H52.2221V20.368H62.1101V18.368ZM51.2221 19.368V22.44H53.2221V19.368H51.2221ZM52.2221 23.44H63.2941V21.44H52.2221V23.44ZM92.8594 14.696V15.696H93.8594V14.696H92.8594ZM87.4514 14.696H86.4514V15.696H87.4514V14.696ZM87.4514 0.999998V-1.90735e-06H86.4514V0.999998H87.4514ZM92.8594 0.999998H93.8594V-1.90735e-06H92.8594V0.999998ZM86.2034 13.16L86.6042 14.0762L87.2034 13.814V13.16H86.2034ZM83.2274 13.864L83.0973 12.8725L83.0973 12.8725L83.2274 13.864ZM66.7474 14.12H65.7474V15.12H66.7474V14.12ZM66.7474 10.024V9.024H65.7474V10.024H66.7474ZM69.3394 10.024V11.024H70.3394V10.024H69.3394ZM69.3394 5.448H70.3394V4.448H69.3394V5.448ZM66.9394 5.448H65.9394V6.448H66.9394V5.448ZM66.9394 1.32V0.32H65.9394V1.32H66.9394ZM85.3394 1.32H86.3394V0.32H85.3394V1.32ZM85.3394 5.448V6.448H86.3394V5.448H85.3394ZM82.9074 5.448V4.448H81.9074V5.448H82.9074ZM82.9074 9.864H81.9074V10.999L83.0333 10.856L82.9074 9.864ZM86.2034 9.128H87.2034V7.685L85.8523 8.19167L86.2034 9.128ZM74.4274 10.024H73.4274V11.024H74.4274V10.024ZM77.8194 10.024V11.024H78.8194V10.024H77.8194ZM77.8194 5.448H78.8194V4.448H77.8194V5.448ZM74.4274 5.448V4.448H73.4274V5.448H74.4274ZM93.1474 24.648H94.1474V23.648H93.1474V24.648ZM93.1474 28.328V29.328H94.1474V28.328H93.1474ZM68.4434 28.328H67.4434V29.328H68.4434V28.328ZM68.4434 20.392V19.392H67.4434V20.392H68.4434ZM87.5154 20.392V21.392H88.5154V20.392H87.5154ZM87.5154 19.336H88.5154V18.336H87.5154V19.336ZM68.3794 19.336H67.3794V20.336H68.3794V19.336ZM68.3794 15.656V14.656H67.3794V15.656H68.3794ZM92.8594 15.656H93.8594V14.656H92.8594V15.656ZM92.8594 23.592V24.592H93.8594V23.592H92.8594ZM73.7874 23.592V22.592H72.7874V23.592H73.7874ZM73.7874 24.648H72.7874V25.648H73.7874V24.648ZM92.8594 13.696H87.4514V15.696H92.8594V13.696ZM88.4514 14.696V0.999998H86.4514V14.696H88.4514ZM87.4514 2H92.8594V-1.90735e-06H87.4514V2ZM91.8594 0.999998V14.696H93.8594V0.999998H91.8594ZM85.8026 12.2438C85.2478 12.4866 84.3647 12.7063 83.0973 12.8725L83.3574 14.8555C84.6927 14.6804 85.7937 14.4308 86.6042 14.0762L85.8026 12.2438ZM83.0973 12.8725C81.8401 13.0374 80.5609 13.12 79.2594 13.12V15.12C80.6458 15.12 82.0119 15.032 83.3574 14.8555L83.0973 12.8725ZM79.2594 13.12H66.7474V15.12H79.2594V13.12ZM67.7474 14.12V10.024H65.7474V14.12H67.7474ZM66.7474 11.024H69.3394V9.024H66.7474V11.024ZM70.3394 10.024V5.448H68.3394V10.024H70.3394ZM69.3394 4.448H66.9394V6.448H69.3394V4.448ZM67.9394 5.448V1.32H65.9394V5.448H67.9394ZM66.9394 2.32H85.3394V0.32H66.9394V2.32ZM84.3394 1.32V5.448H86.3394V1.32H84.3394ZM85.3394 4.448H82.9074V6.448H85.3394V4.448ZM81.9074 5.448V9.864H83.9074V5.448H81.9074ZM83.0333 10.856C84.4209 10.6798 85.6026 10.4213 86.5545 10.0643L85.8523 8.19167C85.0975 8.47472 84.0818 8.70683 82.7814 8.87197L83.0333 10.856ZM85.2034 9.128V13.16H87.2034V9.128H85.2034ZM74.4274 11.024H77.8194V9.024H74.4274V11.024ZM78.8194 10.024V5.448H76.8194V10.024H78.8194ZM77.8194 4.448H74.4274V6.448H77.8194V4.448ZM73.4274 5.448V10.024H75.4274V5.448H73.4274ZM92.1474 24.648V28.328H94.1474V24.648H92.1474ZM93.1474 27.328H68.4434V29.328H93.1474V27.328ZM69.4434 28.328V20.392H67.4434V28.328H69.4434ZM68.4434 21.392H87.5154V19.392H68.4434V21.392ZM88.5154 20.392V19.336H86.5154V20.392H88.5154ZM87.5154 18.336H68.3794V20.336H87.5154V18.336ZM69.3794 19.336V15.656H67.3794V19.336H69.3794ZM68.3794 16.656H92.8594V14.656H68.3794V16.656ZM91.8594 15.656V23.592H93.8594V15.656H91.8594ZM92.8594 22.592H73.7874V24.592H92.8594V22.592ZM72.7874 23.592V24.648H74.7874V23.592H72.7874ZM73.7874 25.648H93.1474V23.648H73.7874V25.648ZM132.161 5.128V6.128H133.161V5.128H132.161ZM113.217 5.128V4.128H112.217V5.128H113.217ZM113.217 7.048H112.217V8.048H113.217V7.048ZM132.481 7.048H133.481V6.048H132.481V7.048ZM132.481 11.176V12.176H133.481V11.176H132.481ZM107.841 11.176H106.841V12.176H107.841V11.176ZM107.841 0.999998V-1.90735e-06H106.841V0.999998H107.841ZM132.161 0.999998H133.161V-1.90735e-06H132.161V0.999998ZM133.825 16.744V17.744H134.825V16.744H133.825ZM106.177 16.744H105.177V17.744H106.177V16.744ZM106.177 12.584V11.584H105.177V12.584H106.177ZM133.825 12.584H134.825V11.584H133.825V12.584ZM129.217 19.208L128.851 20.1383L128.858 20.1413L129.217 19.208ZM129.217 27.4L128.858 26.4666L128.851 26.4697L129.217 27.4ZM110.785 27.4L111.152 26.4697L111.144 26.4667L110.785 27.4ZM110.785 19.208L111.144 20.1414L111.152 20.1383L110.785 19.208ZM115.041 22.28L115.214 23.265L115.223 23.2635L115.231 23.2619L115.041 22.28ZM124.961 22.28L124.772 23.2619L124.78 23.2635L124.789 23.265L124.961 22.28ZM132.161 4.128H113.217V6.128H132.161V4.128ZM112.217 5.128V7.048H114.217V5.128H112.217ZM113.217 8.048H132.481V6.048H113.217V8.048ZM131.481 7.048V11.176H133.481V7.048H131.481ZM132.481 10.176H107.841V12.176H132.481V10.176ZM108.841 11.176V0.999998H106.841V11.176H108.841ZM107.841 2H132.161V-1.90735e-06H107.841V2ZM131.161 0.999998V5.128H133.161V0.999998H131.161ZM133.825 15.744H106.177V17.744H133.825V15.744ZM107.177 16.744V12.584H105.177V16.744H107.177ZM106.177 13.584H133.825V11.584H106.177V13.584ZM132.825 12.584V16.744H134.825V12.584H132.825ZM120.001 18.896C123.872 18.896 126.8 19.3299 128.851 20.1383L129.584 18.2777C127.197 17.3367 123.982 16.896 120.001 16.896V18.896ZM128.858 20.1413C129.86 20.5265 130.525 20.995 130.937 21.5026C131.337 21.9945 131.545 22.5784 131.545 23.304H133.545C133.545 22.1522 133.199 21.1148 132.489 20.2414C131.793 19.3837 130.794 18.7429 129.576 18.2747L128.858 20.1413ZM131.545 23.304C131.545 24.0296 131.337 24.6135 130.937 25.1054C130.525 25.613 129.86 26.0815 128.858 26.4667L129.576 28.3333C130.794 27.8651 131.793 27.2243 132.489 26.3666C133.199 25.4932 133.545 24.4558 133.545 23.304H131.545ZM128.851 26.4697C126.8 27.2781 123.872 27.712 120.001 27.712V29.712C123.982 29.712 127.197 29.2713 129.584 28.3303L128.851 26.4697ZM120.001 27.712C116.131 27.712 113.203 27.2781 111.152 26.4697L110.419 28.3303C112.805 29.2713 116.021 29.712 120.001 29.712V27.712ZM111.144 26.4667C110.143 26.0815 109.478 25.613 109.065 25.1054C108.666 24.6135 108.457 24.0296 108.457 23.304H106.457C106.457 24.4558 106.804 25.4932 107.513 26.3666C108.21 27.2243 109.209 27.8651 110.426 28.3333L111.144 26.4667ZM108.457 23.304C108.457 22.5784 108.666 21.9945 109.065 21.5026C109.478 20.995 110.143 20.5265 111.144 20.1413L110.426 18.2747C109.209 18.7429 108.21 19.3837 107.513 20.2414C106.804 21.1148 106.457 22.1522 106.457 23.304H108.457ZM111.152 20.1383C113.203 19.3299 116.131 18.896 120.001 18.896V16.896C116.021 16.896 112.805 17.3367 110.419 18.2777L111.152 20.1383ZM120.001 20.928C117.884 20.928 116.158 21.046 114.852 21.2981L115.231 23.2619C116.356 23.0447 117.937 22.928 120.001 22.928V20.928ZM114.869 21.295C114.221 21.4086 113.634 21.5711 113.184 21.824C112.733 22.0774 112.217 22.5493 112.217 23.304H114.217C114.217 23.4206 114.174 23.5188 114.131 23.576C114.099 23.6194 114.089 23.6093 114.163 23.568C114.32 23.4796 114.645 23.3647 115.214 23.265L114.869 21.295ZM112.217 23.304C112.217 24.0234 112.685 24.4947 113.122 24.7603C113.551 25.0213 114.107 25.1928 114.715 25.316C115.946 25.5659 117.724 25.68 120.001 25.68V23.68C117.756 23.68 116.142 23.5648 115.112 23.356C114.589 23.2498 114.298 23.1347 114.161 23.0517C114.032 22.9733 114.217 23.0433 114.217 23.304H112.217ZM120.001 25.68C122.279 25.68 124.056 25.5659 125.288 25.316C125.896 25.1928 126.452 25.0213 126.881 24.7603C127.318 24.4947 127.785 24.0234 127.785 23.304H125.785C125.785 23.0433 125.97 22.9733 125.842 23.0517C125.705 23.1347 125.414 23.2498 124.891 23.356C123.861 23.5648 122.247 23.68 120.001 23.68V25.68ZM127.785 23.304C127.785 22.5493 127.27 22.0774 126.819 21.824C126.368 21.5711 125.781 21.4086 125.134 21.295L124.789 23.265C125.357 23.3647 125.682 23.4796 125.84 23.568C125.913 23.6093 125.904 23.6194 125.871 23.576C125.829 23.5188 125.785 23.4206 125.785 23.304H127.785ZM125.151 21.2981C123.844 21.046 122.119 20.928 120.001 20.928V22.928C122.065 22.928 123.646 23.0447 124.772 23.2619L125.151 21.2981ZM164.607 15.112H165.607V14.112H164.607V15.112ZM164.607 19.24V20.24H165.607V19.24H164.607ZM136.959 19.24H135.959V20.24H136.959V19.24ZM136.959 15.112V14.112H135.959V15.112H136.959ZM148.095 15.112V16.112H149.095V15.112H148.095ZM148.095 13.704H149.095V12.704H148.095V13.704ZM138.655 13.704H137.655V14.704H138.655V13.704ZM138.655 5.768V4.768H137.655V5.768H138.655ZM157.663 5.768V6.768H158.663V5.768H157.663ZM157.663 4.52H158.663V3.52H157.663V4.52ZM138.591 4.52H137.591V5.52H138.591V4.52ZM138.591 0.999998V-1.90735e-06H137.591V0.999998H138.591ZM162.943 0.999998H163.943V-1.90735e-06H162.943V0.999998ZM162.943 8.936V9.936H163.943V8.936H162.943ZM143.935 8.936V7.936H142.935V8.936H143.935ZM143.935 10.184H142.935V11.184H143.935V10.184ZM163.231 10.184H164.231V9.184H163.231V10.184ZM163.231 13.704V14.704H164.231V13.704H163.231ZM153.471 13.704V12.704H152.471V13.704H153.471ZM153.471 15.112H152.471V16.112H153.471V15.112ZM138.431 20.488V19.488H137.431V20.488H138.431ZM163.007 20.488H164.007V19.488H163.007V20.488ZM163.007 28.648V29.648H164.007V28.648H163.007ZM157.535 28.648H156.535V29.648H157.535V28.648ZM157.535 24.616H158.535V23.616H157.535V24.616ZM138.431 24.616H137.431V25.616H138.431V24.616ZM163.607 15.112V19.24H165.607V15.112H163.607ZM164.607 18.24H136.959V20.24H164.607V18.24ZM137.959 19.24V15.112H135.959V19.24H137.959ZM136.959 16.112H148.095V14.112H136.959V16.112ZM149.095 15.112V13.704H147.095V15.112H149.095ZM148.095 12.704H138.655V14.704H148.095V12.704ZM139.655 13.704V5.768H137.655V13.704H139.655ZM138.655 6.768H157.663V4.768H138.655V6.768ZM158.663 5.768V4.52H156.663V5.768H158.663ZM157.663 3.52H138.591V5.52H157.663V3.52ZM139.591 4.52V0.999998H137.591V4.52H139.591ZM138.591 2H162.943V-1.90735e-06H138.591V2ZM161.943 0.999998V8.936H163.943V0.999998H161.943ZM162.943 7.936H143.935V9.936H162.943V7.936ZM142.935 8.936V10.184H144.935V8.936H142.935ZM143.935 11.184H163.231V9.184H143.935V11.184ZM162.231 10.184V13.704H164.231V10.184H162.231ZM163.231 12.704H153.471V14.704H163.231V12.704ZM152.471 13.704V15.112H154.471V13.704H152.471ZM153.471 16.112H164.607V14.112H153.471V16.112ZM138.431 21.488H163.007V19.488H138.431V21.488ZM162.007 20.488V28.648H164.007V20.488H162.007ZM163.007 27.648H157.535V29.648H163.007V27.648ZM158.535 28.648V24.616H156.535V28.648H158.535ZM157.535 23.616H138.431V25.616H157.535V23.616ZM139.431 24.616V20.488H137.431V24.616H139.431ZM195.461 17.992L195.861 18.9085L196.461 18.6465V17.992H195.461ZM176.709 18.984H175.709V19.984H176.709V18.984ZM176.709 14.632V13.632H175.709V14.632H176.709ZM183.077 14.632V15.632H184.077V14.632H183.077ZM183.077 12.712H184.077V11.8922L183.273 11.7314L183.077 12.712ZM178.821 10.632L179.528 9.92489L179.528 9.92489L178.821 10.632ZM178.309 3.624L177.509 3.02399L177.506 3.02699L178.309 3.624ZM181.285 1.48L181.643 2.41375L181.649 2.41116L181.656 2.40848L181.285 1.48ZM190.245 1.48L189.873 2.40848L189.88 2.41116L189.887 2.41375L190.245 1.48ZM193.189 3.624L192.38 4.21217L192.387 4.22259L192.395 4.23282L193.189 3.624ZM192.677 10.664L193.384 11.3711L193.384 11.3711L192.677 10.664ZM188.421 12.712L188.236 11.7293L187.421 11.8827V12.712H188.421ZM188.421 14.632H187.421V15.632H188.421V14.632ZM192.389 14.408L192.506 15.401L192.515 15.4001L192.523 15.3989L192.389 14.408ZM195.461 13.64H196.461V12.1181L195.064 12.7221L195.461 13.64ZM205.573 7.208H206.573V6.208H205.573V7.208ZM205.573 12.296V13.296H206.573V12.296H205.573ZM202.437 12.296V11.296H201.437V12.296H202.437ZM202.437 21.736V22.736H203.437V21.736H202.437ZM197.029 21.736H196.029V22.736H197.029V21.736ZM197.029 0.999998V-1.90735e-06H196.029V0.999998H197.029ZM202.437 0.999998H203.437V-1.90735e-06H202.437V0.999998ZM202.437 7.208H201.437V8.208H202.437V7.208ZM183.397 8.392L182.821 9.2098L182.831 9.21706L182.842 9.22405L183.397 8.392ZM188.133 8.392L188.687 9.22405L188.698 9.21706L188.708 9.2098L188.133 8.392ZM188.133 5.288L187.557 6.1058L187.567 6.11306L187.578 6.12005L188.133 5.288ZM183.397 5.288L183.951 6.12005L183.962 6.11306L183.972 6.1058L183.397 5.288ZM183.813 23.752H182.813V24.752H183.813V23.752ZM202.821 23.752H203.821V22.752H202.821V23.752ZM202.821 28.328V29.328H203.821V28.328H202.821ZM178.341 28.328H177.341V29.328H178.341V28.328ZM178.341 20.36V19.36H177.341V20.36H178.341ZM183.813 20.36H184.813V19.36H183.813V20.36ZM195.06 17.0755C193.743 17.6507 191.527 17.984 188.293 17.984V19.984C191.586 19.984 194.149 19.656 195.861 18.9085L195.06 17.0755ZM188.293 17.984H176.709V19.984H188.293V17.984ZM177.709 18.984V14.632H175.709V18.984H177.709ZM176.709 15.632H183.077V13.632H176.709V15.632ZM184.077 14.632V12.712H182.077V14.632H184.077ZM183.273 11.7314C181.6 11.3968 180.378 10.7752 179.528 9.92489L178.114 11.3391C179.311 12.5368 180.927 13.3019 182.881 13.6926L183.273 11.7314ZM179.528 9.92489C178.701 9.09781 178.285 8.08702 178.285 6.824H176.285C176.285 8.59031 176.893 10.1182 178.114 11.3391L179.528 9.92489ZM178.285 6.824C178.285 5.80857 178.565 4.95449 179.111 4.22101L177.506 3.02699C176.687 4.12817 176.285 5.40743 176.285 6.824H178.285ZM179.109 4.224C179.682 3.45985 180.508 2.84855 181.643 2.41375L180.927 0.546253C179.501 1.09278 178.344 1.91081 177.509 3.024L179.109 4.224ZM181.656 2.40848C182.793 1.9535 184.156 1.712 185.765 1.712V-0.288002C183.96 -0.288002 182.336 -0.0175019 180.913 0.551523L181.656 2.40848ZM185.765 1.712C187.373 1.712 188.736 1.9535 189.873 2.40848L190.616 0.551523C189.193 -0.0175019 187.569 -0.288002 185.765 -0.288002V1.712ZM189.887 2.41375C191.019 2.84796 191.83 3.45635 192.38 4.21217L193.997 3.03583C193.182 1.91432 192.03 1.09337 190.603 0.546253L189.887 2.41375ZM192.395 4.23282C192.958 4.96608 193.245 5.81599 193.245 6.824H195.245C195.245 5.40001 194.827 4.11659 193.982 3.01518L192.395 4.23282ZM193.245 6.824C193.245 8.08075 192.822 9.1042 191.97 9.95689L193.384 11.3711C194.622 10.1331 195.245 8.59658 195.245 6.824H193.245ZM191.97 9.95689C191.122 10.804 189.905 11.415 188.236 11.7293L188.606 13.6947C190.563 13.3264 192.183 12.572 193.384 11.3711L191.97 9.95689ZM187.421 12.712V14.632H189.421V12.712H187.421ZM188.421 15.632C189.843 15.632 191.205 15.5554 192.506 15.401L192.271 13.415C191.055 13.5593 189.772 13.632 188.421 13.632V15.632ZM192.523 15.3989C193.833 15.2213 194.955 14.9482 195.858 14.5579L195.064 12.7221C194.388 13.0145 193.461 13.2534 192.254 13.4171L192.523 15.3989ZM194.461 13.64V17.992H196.461V13.64H194.461ZM204.573 7.208V12.296H206.573V7.208H204.573ZM205.573 11.296H202.437V13.296H205.573V11.296ZM201.437 12.296V21.736H203.437V12.296H201.437ZM202.437 20.736H197.029V22.736H202.437V20.736ZM198.029 21.736V0.999998H196.029V21.736H198.029ZM197.029 2H202.437V-1.90735e-06H197.029V2ZM201.437 0.999998V7.208H203.437V0.999998H201.437ZM202.437 8.208H205.573V6.208H202.437V8.208ZM181.533 6.824C181.533 7.82584 182.01 8.63916 182.821 9.2098L183.972 7.57419C183.631 7.33417 183.533 7.10215 183.533 6.824H181.533ZM182.842 9.22405C183.64 9.75643 184.649 9.968 185.765 9.968V7.968C184.875 7.968 184.305 7.79557 183.951 7.55995L182.842 9.22405ZM185.765 9.968C186.881 9.968 187.889 9.75643 188.687 9.22405L187.578 7.55995C187.224 7.79557 186.654 7.968 185.765 7.968V9.968ZM188.708 9.2098C189.519 8.63916 189.997 7.82584 189.997 6.824H187.997C187.997 7.10215 187.898 7.33417 187.557 7.57419L188.708 9.2098ZM189.997 6.824C189.997 5.81852 189.515 5.00746 188.687 4.45595L187.578 6.12005C187.903 6.33654 187.997 6.54947 187.997 6.824H189.997ZM188.708 4.47019C187.906 3.90571 186.889 3.68 185.765 3.68V5.68C186.645 5.68 187.207 5.85962 187.557 6.1058L188.708 4.47019ZM185.765 3.68C184.64 3.68 183.623 3.90571 182.821 4.47019L183.972 6.1058C184.322 5.85962 184.884 5.68 185.765 5.68V3.68ZM182.842 4.45595C182.015 5.00746 181.533 5.81852 181.533 6.824H183.533C183.533 6.54947 183.627 6.33654 183.951 6.12005L182.842 4.45595ZM183.813 24.752H202.821V22.752H183.813V24.752ZM201.821 23.752V28.328H203.821V23.752H201.821ZM202.821 27.328H178.341V29.328H202.821V27.328ZM179.341 28.328V20.36H177.341V28.328H179.341ZM178.341 21.36H183.813V19.36H178.341V21.36ZM182.813 20.36V23.752H184.813V20.36H182.813ZM235.138 22.504H236.138V21.504H235.138V22.504ZM235.138 27.368V28.368H236.138V27.368H235.138ZM207.49 27.368H206.49V28.368H207.49V27.368ZM207.49 22.504V21.504H206.49V22.504H207.49ZM213.378 22.504V23.504H214.378V22.504H213.378ZM213.378 19.24H214.378V18.24H213.378V19.24ZM209.026 19.24H208.026V20.24H209.026V19.24ZM209.026 8.2V7.2H208.026V8.2H209.026ZM228.29 8.2V9.2H229.29V8.2H228.29ZM228.29 6.344H229.29V5.344H228.29V6.344ZM208.962 6.344H207.962V7.344H208.962V6.344ZM208.962 1.64V0.639999H207.962V1.64H208.962ZM233.634 1.64H234.634V0.639999H233.634V1.64ZM233.634 12.68V13.68H234.634V12.68H233.634ZM214.37 12.68V11.68H213.37V12.68H214.37ZM214.37 14.536H213.37V15.536H214.37V14.536ZM233.954 14.536H234.954V13.536H233.954V14.536ZM233.954 19.24V20.24H234.954V19.24H233.954ZM229.25 19.24V18.24H228.25V19.24H229.25ZM229.25 22.504H228.25V23.504H229.25V22.504ZM218.786 22.504H217.786V23.504H218.786V22.504ZM223.842 22.504V23.504H224.842V22.504H223.842ZM223.842 19.24H224.842V18.24H223.842V19.24ZM218.786 19.24V18.24H217.786V19.24H218.786ZM234.138 22.504V27.368H236.138V22.504H234.138ZM235.138 26.368H207.49V28.368H235.138V26.368ZM208.49 27.368V22.504H206.49V27.368H208.49ZM207.49 23.504H213.378V21.504H207.49V23.504ZM214.378 22.504V19.24H212.378V22.504H214.378ZM213.378 18.24H209.026V20.24H213.378V18.24ZM210.026 19.24V8.2H208.026V19.24H210.026ZM209.026 9.2H228.29V7.2H209.026V9.2ZM229.29 8.2V6.344H227.29V8.2H229.29ZM228.29 5.344H208.962V7.344H228.29V5.344ZM209.962 6.344V1.64H207.962V6.344H209.962ZM208.962 2.64H233.634V0.639999H208.962V2.64ZM232.634 1.64V12.68H234.634V1.64H232.634ZM233.634 11.68H214.37V13.68H233.634V11.68ZM213.37 12.68V14.536H215.37V12.68H213.37ZM214.37 15.536H233.954V13.536H214.37V15.536ZM232.954 14.536V19.24H234.954V14.536H232.954ZM233.954 18.24H229.25V20.24H233.954V18.24ZM228.25 19.24V22.504H230.25V19.24H228.25ZM229.25 23.504H235.138V21.504H229.25V23.504ZM218.786 23.504H223.842V21.504H218.786V23.504ZM224.842 22.504V19.24H222.842V22.504H224.842ZM223.842 18.24H218.786V20.24H223.842V18.24ZM217.786 19.24V22.504H219.786V19.24H217.786Z" fill="black" mask="url(#path-1-outside-1_252_1871)"/>
</g>
<defs>
<filter id="filter0_d_252_1871" x="0.864746" y="0.711914" width="238.273" height="36" filterUnits="userSpaceOnUse" color-interpolation-filters="sRGB">
<feFlood flood-opacity="0" result="BackgroundImageFix"/>
<feColorMatrix in="SourceAlpha" type="matrix" values="0 0 0 0 0 0 0 0 0 0 0 0 0 0 0 0 0 0 127 0" result="hardAlpha"/>
<feOffset dy="4"/>
<feGaussianBlur stdDeviation="2"/>
<feComposite in2="hardAlpha" operator="out"/>
<feColorMatrix type="matrix" values="0 0 0 0 0 0 0 0 0 0 0 0 0 0 0 0 0 0 0.25 0"/>
<feBlend mode="normal" in2="BackgroundImageFix" result="effect1_dropShadow_252_1871"/>
<feBlend mode="normal" in="SourceGraphic" in2="effect1_dropShadow_252_1871" result="shape"/>
</filter>
</defs>
</svg>
