<svg width="356" height="30" viewBox="0 0 356 30" fill="none" xmlns="http://www.w3.org/2000/svg">
<g filter="url(#filter0_d_252_1872)">
<mask id="path-1-outside-1_252_1872" maskUnits="userSpaceOnUse" x="3" y="-1" width="350" height="24" fill="black">
<rect fill="white" x="3" y="-1" width="350" height="24"/>
<path d="M25.1973 7.816H22.4373V13.24H20.1093V0.999999H22.4373V5.536H25.1973V7.816ZM10.6053 11.704C10.1573 11.848 9.61331 11.96 8.97331 12.04C8.33331 12.12 7.68531 12.16 7.02931 12.16H4.24531V1.504H10.5093V3.496H6.57331V10.144H7.65331C8.86931 10.144 9.85331 10.008 10.6053 9.736V11.704ZM18.4053 11.56C17.4773 11.96 16.2133 12.16 14.6133 12.16H11.4933V1.504H17.8773V3.496H13.8213V10.144H15.0933C16.4533 10.144 17.5573 9.952 18.4053 9.568V11.56ZM4.98931 14.368H22.4373V21.496H20.0373V16.432H4.98931V14.368ZM55.0098 5.2V7.48H52.1298V12.136H49.7538V0.999999H52.1298V5.2H55.0098ZM46.2738 11.152H34.2978V1.504H46.2738V11.152ZM43.9218 3.52H36.6498V9.136H43.9218V3.52ZM45.2418 15.256C45.1138 15.736 44.8978 16.24 44.5938 16.768L52.9458 19.456L52.2738 21.496L43.2738 18.376C42.2658 19.304 41.0018 20.008 39.4818 20.488C37.9778 20.984 36.3858 21.232 34.7058 21.232V19.168C36.5778 19.168 38.2578 18.816 39.7458 18.112C41.2498 17.408 42.2498 16.456 42.7458 15.256H34.9458V13.264H52.3938V15.256H45.2418ZM58.1278 0.999999H60.5278V6.832H75.8638V8.944H58.1278V0.999999ZM56.6638 11.2H77.1358V13.312H56.6638V11.2ZM58.0798 15.136H60.5038V19.144H76.0798V21.256H58.0798V15.136ZM96.4363 7.888C95.2523 9.744 93.8203 11.208 92.1403 12.28C90.4763 13.352 88.7243 13.888 86.8843 13.888V11.632C88.3243 11.632 89.7163 11.16 91.0603 10.216C92.4043 9.256 93.5483 7.976 94.4923 6.376C95.4523 4.76 96.1083 3 96.4603 1.096L98.9083 1.528C98.6203 3.144 98.1403 4.632 97.4683 5.992L106.492 12.064L105.196 13.96L96.4363 7.888ZM106.948 18.28V20.512H86.4763V18.28H106.948ZM128.858 0.999999V21.496H126.458V11.584H122.666V9.352H126.458V0.999999H128.858ZM118.49 18.088C119.466 18.088 120.434 18 121.394 17.824C122.37 17.648 123.17 17.408 123.794 17.104V19.288C123.186 19.592 122.402 19.832 121.442 20.008C120.482 20.184 119.498 20.272 118.49 20.272H110.642V1.744H122.354V3.928H113.018V9.76H121.202V11.944H113.018V18.088H118.49ZM149.4 0.999999H151.776V21.496L149.4 21.52V0.999999ZM133.848 1.744H145.896V3.928H136.248V18.088H142.2C143.176 18.088 144.144 18 145.104 17.824C146.08 17.648 146.88 17.408 147.504 17.104V19.288C146.88 19.592 146.072 19.832 145.08 20.008C144.104 20.184 143.12 20.272 142.128 20.272H133.848V1.744ZM157.222 4.312H172.438V2.92H157.222V1.24H174.742V5.896H159.526V7.264H175.03V8.944H157.222V4.312ZM155.734 10.432H176.206V12.16H155.734V10.432ZM157.15 16.648H172.486V15.328H157.102V13.648H174.79V18.232H159.454V19.576H175.15V21.256H157.15V16.648ZM195.219 8.584C194.259 9.656 192.995 10.512 191.427 11.152C189.875 11.792 188.131 12.168 186.195 12.28V10.096C188.339 9.936 190.147 9.4 191.619 8.488C193.107 7.56 194.059 6.392 194.475 4.984H186.723V2.824H194.499V0.495999H196.947V2.824H204.819V4.984H197.043C196.931 5.544 196.731 6.144 196.443 6.784L205.371 10.072L204.555 12.136L195.219 8.584ZM206.019 16.456H196.971V21.976H194.547V16.456H185.547V14.248H206.019V16.456ZM215.737 9.616C215.017 10.784 214.081 11.728 212.929 12.448C211.777 13.168 210.481 13.608 209.041 13.768V11.656C210.673 11.4 211.985 10.704 212.977 9.568C213.969 8.416 214.545 6.952 214.705 5.176H209.257V3.136H214.681V0.639999H217.081V3.136H222.433V5.176H217.105C217.025 6.136 216.865 6.968 216.625 7.672L222.793 11.848L221.569 13.648L215.737 9.616ZM225.553 6.616V0.999999H227.929V16.288H225.553V8.8H221.617V6.616H225.553ZM228.361 19.12V21.232H210.48V15.448H212.905V19.12H228.361ZM237.91 4.192H242.206V6.328H231.262V4.192H235.558V0.951999H237.91V4.192ZM251.422 0.999999V21.496H249.214V11.488H245.926V21.136H243.718V1.12H245.926V9.256H249.214V0.999999H251.422ZM236.83 7.936C237.758 7.936 238.582 8.184 239.302 8.68C240.022 9.16 240.582 9.872 240.982 10.816C241.398 11.76 241.606 12.896 241.606 14.224C241.606 15.552 241.398 16.688 240.982 17.632C240.582 18.576 240.022 19.288 239.302 19.768C238.582 20.264 237.758 20.512 236.83 20.512C235.902 20.512 235.078 20.264 234.358 19.768C233.654 19.288 233.094 18.576 232.678 17.632C232.278 16.688 232.078 15.552 232.078 14.224C232.078 12.896 232.278 11.76 232.678 10.816C233.094 9.872 233.654 9.16 234.358 8.68C235.078 8.184 235.902 7.936 236.83 7.936ZM236.83 18.424C237.598 18.424 238.222 18.056 238.702 17.32C239.182 16.568 239.422 15.536 239.422 14.224C239.422 12.912 239.182 11.888 238.702 11.152C238.222 10.4 237.598 10.024 236.83 10.024C236.078 10.024 235.462 10.4 234.982 11.152C234.518 11.888 234.286 12.912 234.286 14.224C234.286 15.536 234.518 16.568 234.982 17.32C235.462 18.056 236.078 18.424 236.83 18.424ZM262.875 1.744H280.659V3.952H265.299V11.632H280.899V13.84H262.875V1.744ZM261.531 18.28H282.003V20.512H261.531V18.28ZM301.369 0.999999H303.745V11.488H301.369V0.999999ZM285.553 5.368H295.321V3.28H285.505V1.504H297.673V7.048H287.905V9.16H293.305C294.697 9.16 295.953 9.08 297.073 8.92C298.209 8.76 299.105 8.528 299.761 8.224V10.024C299.121 10.312 298.225 10.536 297.073 10.696C295.921 10.856 294.633 10.936 293.209 10.936H285.553V5.368ZM286.393 16.072H301.417V14.392H286.345V12.616H303.745V17.752H288.721V19.456H304.249V21.232H286.393V16.072ZM327.407 0.999999V21.496H325.127V0.999999H327.407ZM320.015 1.12H322.271V21.136H320.015V11.512H316.343C316.007 13.304 315.447 14.856 314.663 16.168C313.895 17.464 312.951 18.456 311.831 19.144C310.727 19.848 309.503 20.208 308.159 20.224V17.992C309.423 17.96 310.527 17.504 311.471 16.624C312.415 15.728 313.143 14.488 313.655 12.904C314.167 11.32 314.423 9.48 314.423 7.384V3.904H308.159V1.744H316.727V7.264C316.727 7.936 316.703 8.6 316.655 9.256H320.015V1.12ZM351.261 18.328V20.512H330.789V18.328H335.493V12.784C334.309 12.24 333.389 11.528 332.733 10.648C332.093 9.752 331.773 8.736 331.773 7.6C331.773 6.352 332.149 5.256 332.901 4.312C333.669 3.368 334.749 2.64 336.141 2.128C337.549 1.616 339.173 1.36 341.013 1.36C342.853 1.36 344.469 1.616 345.861 2.128C347.269 2.64 348.349 3.368 349.101 4.312C349.869 5.256 350.253 6.352 350.253 7.6C350.253 8.736 349.925 9.752 349.269 10.648C348.629 11.528 347.725 12.232 346.557 12.76V18.328H351.261ZM334.293 7.6C334.293 8.4 334.573 9.112 335.133 9.736C335.693 10.344 336.477 10.816 337.485 11.152C338.509 11.488 339.685 11.656 341.013 11.656C342.341 11.656 343.517 11.488 344.541 11.152C345.565 10.816 346.357 10.344 346.917 9.736C347.477 9.112 347.757 8.4 347.757 7.6C347.757 6.784 347.477 6.072 346.917 5.464C346.357 4.84 345.565 4.36 344.541 4.024C343.517 3.688 342.341 3.52 341.013 3.52C339.685 3.52 338.509 3.688 337.485 4.024C336.477 4.36 335.693 4.84 335.133 5.464C334.573 6.072 334.293 6.784 334.293 7.6ZM337.869 18.328H344.181V13.528C343.221 13.72 342.165 13.816 341.013 13.816C339.877 13.816 338.829 13.72 337.869 13.528V18.328Z"/>
</mask>
<path d="M25.1973 7.816H22.4373V13.24H20.1093V0.999999H22.4373V5.536H25.1973V7.816ZM10.6053 11.704C10.1573 11.848 9.61331 11.96 8.97331 12.04C8.33331 12.12 7.68531 12.16 7.02931 12.16H4.24531V1.504H10.5093V3.496H6.57331V10.144H7.65331C8.86931 10.144 9.85331 10.008 10.6053 9.736V11.704ZM18.4053 11.56C17.4773 11.96 16.2133 12.16 14.6133 12.16H11.4933V1.504H17.8773V3.496H13.8213V10.144H15.0933C16.4533 10.144 17.5573 9.952 18.4053 9.568V11.56ZM4.98931 14.368H22.4373V21.496H20.0373V16.432H4.98931V14.368ZM55.0098 5.2V7.48H52.1298V12.136H49.7538V0.999999H52.1298V5.2H55.0098ZM46.2738 11.152H34.2978V1.504H46.2738V11.152ZM43.9218 3.52H36.6498V9.136H43.9218V3.52ZM45.2418 15.256C45.1138 15.736 44.8978 16.24 44.5938 16.768L52.9458 19.456L52.2738 21.496L43.2738 18.376C42.2658 19.304 41.0018 20.008 39.4818 20.488C37.9778 20.984 36.3858 21.232 34.7058 21.232V19.168C36.5778 19.168 38.2578 18.816 39.7458 18.112C41.2498 17.408 42.2498 16.456 42.7458 15.256H34.9458V13.264H52.3938V15.256H45.2418ZM58.1278 0.999999H60.5278V6.832H75.8638V8.944H58.1278V0.999999ZM56.6638 11.2H77.1358V13.312H56.6638V11.2ZM58.0798 15.136H60.5038V19.144H76.0798V21.256H58.0798V15.136ZM96.4363 7.888C95.2523 9.744 93.8203 11.208 92.1403 12.28C90.4763 13.352 88.7243 13.888 86.8843 13.888V11.632C88.3243 11.632 89.7163 11.16 91.0603 10.216C92.4043 9.256 93.5483 7.976 94.4923 6.376C95.4523 4.76 96.1083 3 96.4603 1.096L98.9083 1.528C98.6203 3.144 98.1403 4.632 97.4683 5.992L106.492 12.064L105.196 13.96L96.4363 7.888ZM106.948 18.28V20.512H86.4763V18.28H106.948ZM128.858 0.999999V21.496H126.458V11.584H122.666V9.352H126.458V0.999999H128.858ZM118.49 18.088C119.466 18.088 120.434 18 121.394 17.824C122.37 17.648 123.17 17.408 123.794 17.104V19.288C123.186 19.592 122.402 19.832 121.442 20.008C120.482 20.184 119.498 20.272 118.49 20.272H110.642V1.744H122.354V3.928H113.018V9.76H121.202V11.944H113.018V18.088H118.49ZM149.4 0.999999H151.776V21.496L149.4 21.52V0.999999ZM133.848 1.744H145.896V3.928H136.248V18.088H142.2C143.176 18.088 144.144 18 145.104 17.824C146.08 17.648 146.88 17.408 147.504 17.104V19.288C146.88 19.592 146.072 19.832 145.08 20.008C144.104 20.184 143.12 20.272 142.128 20.272H133.848V1.744ZM157.222 4.312H172.438V2.92H157.222V1.24H174.742V5.896H159.526V7.264H175.03V8.944H157.222V4.312ZM155.734 10.432H176.206V12.16H155.734V10.432ZM157.15 16.648H172.486V15.328H157.102V13.648H174.79V18.232H159.454V19.576H175.15V21.256H157.15V16.648ZM195.219 8.584C194.259 9.656 192.995 10.512 191.427 11.152C189.875 11.792 188.131 12.168 186.195 12.28V10.096C188.339 9.936 190.147 9.4 191.619 8.488C193.107 7.56 194.059 6.392 194.475 4.984H186.723V2.824H194.499V0.495999H196.947V2.824H204.819V4.984H197.043C196.931 5.544 196.731 6.144 196.443 6.784L205.371 10.072L204.555 12.136L195.219 8.584ZM206.019 16.456H196.971V21.976H194.547V16.456H185.547V14.248H206.019V16.456ZM215.737 9.616C215.017 10.784 214.081 11.728 212.929 12.448C211.777 13.168 210.481 13.608 209.041 13.768V11.656C210.673 11.4 211.985 10.704 212.977 9.568C213.969 8.416 214.545 6.952 214.705 5.176H209.257V3.136H214.681V0.639999H217.081V3.136H222.433V5.176H217.105C217.025 6.136 216.865 6.968 216.625 7.672L222.793 11.848L221.569 13.648L215.737 9.616ZM225.553 6.616V0.999999H227.929V16.288H225.553V8.8H221.617V6.616H225.553ZM228.361 19.12V21.232H210.48V15.448H212.905V19.12H228.361ZM237.91 4.192H242.206V6.328H231.262V4.192H235.558V0.951999H237.91V4.192ZM251.422 0.999999V21.496H249.214V11.488H245.926V21.136H243.718V1.12H245.926V9.256H249.214V0.999999H251.422ZM236.83 7.936C237.758 7.936 238.582 8.184 239.302 8.68C240.022 9.16 240.582 9.872 240.982 10.816C241.398 11.76 241.606 12.896 241.606 14.224C241.606 15.552 241.398 16.688 240.982 17.632C240.582 18.576 240.022 19.288 239.302 19.768C238.582 20.264 237.758 20.512 236.83 20.512C235.902 20.512 235.078 20.264 234.358 19.768C233.654 19.288 233.094 18.576 232.678 17.632C232.278 16.688 232.078 15.552 232.078 14.224C232.078 12.896 232.278 11.76 232.678 10.816C233.094 9.872 233.654 9.16 234.358 8.68C235.078 8.184 235.902 7.936 236.83 7.936ZM236.83 18.424C237.598 18.424 238.222 18.056 238.702 17.32C239.182 16.568 239.422 15.536 239.422 14.224C239.422 12.912 239.182 11.888 238.702 11.152C238.222 10.4 237.598 10.024 236.83 10.024C236.078 10.024 235.462 10.4 234.982 11.152C234.518 11.888 234.286 12.912 234.286 14.224C234.286 15.536 234.518 16.568 234.982 17.32C235.462 18.056 236.078 18.424 236.83 18.424ZM262.875 1.744H280.659V3.952H265.299V11.632H280.899V13.84H262.875V1.744ZM261.531 18.28H282.003V20.512H261.531V18.28ZM301.369 0.999999H303.745V11.488H301.369V0.999999ZM285.553 5.368H295.321V3.28H285.505V1.504H297.673V7.048H287.905V9.16H293.305C294.697 9.16 295.953 9.08 297.073 8.92C298.209 8.76 299.105 8.528 299.761 8.224V10.024C299.121 10.312 298.225 10.536 297.073 10.696C295.921 10.856 294.633 10.936 293.209 10.936H285.553V5.368ZM286.393 16.072H301.417V14.392H286.345V12.616H303.745V17.752H288.721V19.456H304.249V21.232H286.393V16.072ZM327.407 0.999999V21.496H325.127V0.999999H327.407ZM320.015 1.12H322.271V21.136H320.015V11.512H316.343C316.007 13.304 315.447 14.856 314.663 16.168C313.895 17.464 312.951 18.456 311.831 19.144C310.727 19.848 309.503 20.208 308.159 20.224V17.992C309.423 17.96 310.527 17.504 311.471 16.624C312.415 15.728 313.143 14.488 313.655 12.904C314.167 11.32 314.423 9.48 314.423 7.384V3.904H308.159V1.744H316.727V7.264C316.727 7.936 316.703 8.6 316.655 9.256H320.015V1.12ZM351.261 18.328V20.512H330.789V18.328H335.493V12.784C334.309 12.24 333.389 11.528 332.733 10.648C332.093 9.752 331.773 8.736 331.773 7.6C331.773 6.352 332.149 5.256 332.901 4.312C333.669 3.368 334.749 2.64 336.141 2.128C337.549 1.616 339.173 1.36 341.013 1.36C342.853 1.36 344.469 1.616 345.861 2.128C347.269 2.64 348.349 3.368 349.101 4.312C349.869 5.256 350.253 6.352 350.253 7.6C350.253 8.736 349.925 9.752 349.269 10.648C348.629 11.528 347.725 12.232 346.557 12.76V18.328H351.261ZM334.293 7.6C334.293 8.4 334.573 9.112 335.133 9.736C335.693 10.344 336.477 10.816 337.485 11.152C338.509 11.488 339.685 11.656 341.013 11.656C342.341 11.656 343.517 11.488 344.541 11.152C345.565 10.816 346.357 10.344 346.917 9.736C347.477 9.112 347.757 8.4 347.757 7.6C347.757 6.784 347.477 6.072 346.917 5.464C346.357 4.84 345.565 4.36 344.541 4.024C343.517 3.688 342.341 3.52 341.013 3.52C339.685 3.52 338.509 3.688 337.485 4.024C336.477 4.36 335.693 4.84 335.133 5.464C334.573 6.072 334.293 6.784 334.293 7.6ZM337.869 18.328H344.181V13.528C343.221 13.72 342.165 13.816 341.013 13.816C339.877 13.816 338.829 13.72 337.869 13.528V18.328Z" fill="white"/>
<path d="M25.1973 7.816V8.816H26.1973V7.816H25.1973ZM22.4373 7.816V6.816H21.4373V7.816H22.4373ZM22.4373 13.24V14.24H23.4373V13.24H22.4373ZM20.1093 13.24H19.1093V14.24H20.1093V13.24ZM20.1093 0.999999V-1.43051e-06H19.1093V0.999999H20.1093ZM22.4373 0.999999H23.4373V-1.43051e-06H22.4373V0.999999ZM22.4373 5.536H21.4373V6.536H22.4373V5.536ZM25.1973 5.536H26.1973V4.536H25.1973V5.536ZM10.6053 11.704L10.9113 12.656L11.6053 12.433V11.704H10.6053ZM8.97331 12.04L9.09735 13.0323L9.09735 13.0323L8.97331 12.04ZM4.24531 12.16H3.24531V13.16H4.24531V12.16ZM4.24531 1.504V0.503999H3.24531V1.504H4.24531ZM10.5093 1.504H11.5093V0.503999H10.5093V1.504ZM10.5093 3.496V4.496H11.5093V3.496H10.5093ZM6.57331 3.496V2.496H5.57331V3.496H6.57331ZM6.57331 10.144H5.57331V11.144H6.57331V10.144ZM10.6053 9.736H11.6053V8.31089L10.2652 8.79562L10.6053 9.736ZM18.4053 11.56L18.8011 12.4783L19.4053 12.2179V11.56H18.4053ZM11.4933 12.16H10.4933V13.16H11.4933V12.16ZM11.4933 1.504V0.503999H10.4933V1.504H11.4933ZM17.8773 1.504H18.8773V0.503999H17.8773V1.504ZM17.8773 3.496V4.496H18.8773V3.496H17.8773ZM13.8213 3.496V2.496H12.8213V3.496H13.8213ZM13.8213 10.144H12.8213V11.144H13.8213V10.144ZM18.4053 9.568H19.4053V8.01742L17.9928 8.65705L18.4053 9.568ZM4.98931 14.368V13.368H3.98931V14.368H4.98931ZM22.4373 14.368H23.4373V13.368H22.4373V14.368ZM22.4373 21.496V22.496H23.4373V21.496H22.4373ZM20.0373 21.496H19.0373V22.496H20.0373V21.496ZM20.0373 16.432H21.0373V15.432H20.0373V16.432ZM4.98931 16.432H3.98931V17.432H4.98931V16.432ZM25.1973 6.816H22.4373V8.816H25.1973V6.816ZM21.4373 7.816V13.24H23.4373V7.816H21.4373ZM22.4373 12.24H20.1093V14.24H22.4373V12.24ZM21.1093 13.24V0.999999H19.1093V13.24H21.1093ZM20.1093 2H22.4373V-1.43051e-06H20.1093V2ZM21.4373 0.999999V5.536H23.4373V0.999999H21.4373ZM22.4373 6.536H25.1973V4.536H22.4373V6.536ZM24.1973 5.536V7.816H26.1973V5.536H24.1973ZM10.2993 10.752C9.92777 10.8714 9.44846 10.9728 8.84928 11.0477L9.09735 13.0323C9.77816 12.9472 10.3869 12.8246 10.9113 12.656L10.2993 10.752ZM8.84928 11.0477C8.25112 11.1225 7.64456 11.16 7.02931 11.16V13.16C7.72607 13.16 8.41551 13.1175 9.09735 13.0323L8.84928 11.0477ZM7.02931 11.16H4.24531V13.16H7.02931V11.16ZM5.24531 12.16V1.504H3.24531V12.16H5.24531ZM4.24531 2.504H10.5093V0.503999H4.24531V2.504ZM9.50931 1.504V3.496H11.5093V1.504H9.50931ZM10.5093 2.496H6.57331V4.496H10.5093V2.496ZM5.57331 3.496V10.144H7.57331V3.496H5.57331ZM6.57331 11.144H7.65331V9.144H6.57331V11.144ZM7.65331 11.144C8.93126 11.144 10.0431 11.0028 10.9454 10.6764L10.2652 8.79562C9.66354 9.01324 8.80737 9.144 7.65331 9.144V11.144ZM9.60531 9.736V11.704H11.6053V9.736H9.60531ZM18.0095 10.6417C17.2581 10.9655 16.1477 11.16 14.6133 11.16V13.16C16.2789 13.16 17.6965 12.9545 18.8011 12.4783L18.0095 10.6417ZM14.6133 11.16H11.4933V13.16H14.6133V11.16ZM12.4933 12.16V1.504H10.4933V12.16H12.4933ZM11.4933 2.504H17.8773V0.503999H11.4933V2.504ZM16.8773 1.504V3.496H18.8773V1.504H16.8773ZM17.8773 2.496H13.8213V4.496H17.8773V2.496ZM12.8213 3.496V10.144H14.8213V3.496H12.8213ZM13.8213 11.144H15.0933V9.144H13.8213V11.144ZM15.0933 11.144C16.5353 11.144 17.7947 10.9422 18.8178 10.479L17.9928 8.65705C17.3199 8.96175 16.3713 9.144 15.0933 9.144V11.144ZM17.4053 9.568V11.56H19.4053V9.568H17.4053ZM4.98931 15.368H22.4373V13.368H4.98931V15.368ZM21.4373 14.368V21.496H23.4373V14.368H21.4373ZM22.4373 20.496H20.0373V22.496H22.4373V20.496ZM21.0373 21.496V16.432H19.0373V21.496H21.0373ZM20.0373 15.432H4.98931V17.432H20.0373V15.432ZM5.98931 16.432V14.368H3.98931V16.432H5.98931ZM55.0098 5.2H56.0098V4.2H55.0098V5.2ZM55.0098 7.48V8.48H56.0098V7.48H55.0098ZM52.1298 7.48V6.48H51.1298V7.48H52.1298ZM52.1298 12.136V13.136H53.1298V12.136H52.1298ZM49.7538 12.136H48.7538V13.136H49.7538V12.136ZM49.7538 0.999999V-1.43051e-06H48.7538V0.999999H49.7538ZM52.1298 0.999999H53.1298V-1.43051e-06H52.1298V0.999999ZM52.1298 5.2H51.1298V6.2H52.1298V5.2ZM46.2738 11.152V12.152H47.2738V11.152H46.2738ZM34.2978 11.152H33.2978V12.152H34.2978V11.152ZM34.2978 1.504V0.503999H33.2978V1.504H34.2978ZM46.2738 1.504H47.2738V0.503999H46.2738V1.504ZM43.9218 3.52H44.9218V2.52H43.9218V3.52ZM36.6498 3.52V2.52H35.6498V3.52H36.6498ZM36.6498 9.136H35.6498V10.136H36.6498V9.136ZM43.9218 9.136V10.136H44.9218V9.136H43.9218ZM45.2418 15.256V14.256H44.4735L44.2756 14.9983L45.2418 15.256ZM44.5938 16.768L43.7272 16.269L43.11 17.341L44.2874 17.7199L44.5938 16.768ZM52.9458 19.456L53.8956 19.7689L54.2106 18.8126L53.2522 18.5041L52.9458 19.456ZM52.2738 21.496L51.9463 22.4408L52.9059 22.7735L53.2236 21.8089L52.2738 21.496ZM43.2738 18.376L43.6014 17.4312L43.0364 17.2353L42.5965 17.6403L43.2738 18.376ZM39.4818 20.488L39.1807 19.5343L39.1686 19.5383L39.4818 20.488ZM34.7058 21.232H33.7058V22.232H34.7058V21.232ZM34.7058 19.168V18.168H33.7058V19.168H34.7058ZM39.7458 18.112L39.3219 17.2063L39.3181 17.2081L39.7458 18.112ZM42.7458 15.256L43.67 15.638L44.2412 14.256H42.7458V15.256ZM34.9458 15.256H33.9458V16.256H34.9458V15.256ZM34.9458 13.264V12.264H33.9458V13.264H34.9458ZM52.3938 13.264H53.3938V12.264H52.3938V13.264ZM52.3938 15.256V16.256H53.3938V15.256H52.3938ZM54.0098 5.2V7.48H56.0098V5.2H54.0098ZM55.0098 6.48H52.1298V8.48H55.0098V6.48ZM51.1298 7.48V12.136H53.1298V7.48H51.1298ZM52.1298 11.136H49.7538V13.136H52.1298V11.136ZM50.7538 12.136V0.999999H48.7538V12.136H50.7538ZM49.7538 2H52.1298V-1.43051e-06H49.7538V2ZM51.1298 0.999999V5.2H53.1298V0.999999H51.1298ZM52.1298 6.2H55.0098V4.2H52.1298V6.2ZM46.2738 10.152H34.2978V12.152H46.2738V10.152ZM35.2978 11.152V1.504H33.2978V11.152H35.2978ZM34.2978 2.504H46.2738V0.503999H34.2978V2.504ZM45.2738 1.504V11.152H47.2738V1.504H45.2738ZM43.9218 2.52H36.6498V4.52H43.9218V2.52ZM35.6498 3.52V9.136H37.6498V3.52H35.6498ZM36.6498 10.136H43.9218V8.136H36.6498V10.136ZM44.9218 9.136V3.52H42.9218V9.136H44.9218ZM44.2756 14.9983C44.1745 15.3774 43.997 15.8004 43.7272 16.269L45.4604 17.267C45.7986 16.6796 46.0531 16.0946 46.208 15.5137L44.2756 14.9983ZM44.2874 17.7199L52.6395 20.4079L53.2522 18.5041L44.9002 15.8161L44.2874 17.7199ZM51.996 19.1431L51.324 21.1831L53.2236 21.8089L53.8956 19.7689L51.996 19.1431ZM52.6014 20.5512L43.6014 17.4312L42.9463 19.3208L51.9463 22.4408L52.6014 20.5512ZM42.5965 17.6403C41.7127 18.454 40.5836 19.0914 39.1807 19.5344L39.7829 21.4416C41.4201 20.9246 42.819 20.154 43.9511 19.1117L42.5965 17.6403ZM39.1686 19.5383C37.7717 19.999 36.2859 20.232 34.7058 20.232V22.232C36.4857 22.232 38.184 21.969 39.795 21.4377L39.1686 19.5383ZM35.7058 21.232V19.168H33.7058V21.232H35.7058ZM34.7058 20.168C36.7054 20.168 38.5345 19.7913 40.1735 19.0159L39.3181 17.2081C37.9811 17.8407 36.4502 18.168 34.7058 18.168V20.168ZM40.1698 19.0177C41.8348 18.2383 43.0542 17.1279 43.67 15.638L41.8216 14.874C41.4455 15.7841 40.6648 16.5777 39.3219 17.2063L40.1698 19.0177ZM42.7458 14.256H34.9458V16.256H42.7458V14.256ZM35.9458 15.256V13.264H33.9458V15.256H35.9458ZM34.9458 14.264H52.3938V12.264H34.9458V14.264ZM51.3938 13.264V15.256H53.3938V13.264H51.3938ZM52.3938 14.256H45.2418V16.256H52.3938V14.256ZM58.1278 0.999999V-1.43051e-06H57.1278V0.999999H58.1278ZM60.5278 0.999999H61.5278V-1.43051e-06H60.5278V0.999999ZM60.5278 6.832H59.5278V7.832H60.5278V6.832ZM75.8638 6.832H76.8638V5.832H75.8638V6.832ZM75.8638 8.944V9.944H76.8638V8.944H75.8638ZM58.1278 8.944H57.1278V9.944H58.1278V8.944ZM56.6638 11.2V10.2H55.6638V11.2H56.6638ZM77.1358 11.2H78.1358V10.2H77.1358V11.2ZM77.1358 13.312V14.312H78.1358V13.312H77.1358ZM56.6638 13.312H55.6638V14.312H56.6638V13.312ZM58.0798 15.136V14.136H57.0798V15.136H58.0798ZM60.5038 15.136H61.5038V14.136H60.5038V15.136ZM60.5038 19.144H59.5038V20.144H60.5038V19.144ZM76.0798 19.144H77.0798V18.144H76.0798V19.144ZM76.0798 21.256V22.256H77.0798V21.256H76.0798ZM58.0798 21.256H57.0798V22.256H58.0798V21.256ZM58.1278 2H60.5278V-1.43051e-06H58.1278V2ZM59.5278 0.999999V6.832H61.5278V0.999999H59.5278ZM60.5278 7.832H75.8638V5.832H60.5278V7.832ZM74.8638 6.832V8.944H76.8638V6.832H74.8638ZM75.8638 7.944H58.1278V9.944H75.8638V7.944ZM59.1278 8.944V0.999999H57.1278V8.944H59.1278ZM56.6638 12.2H77.1358V10.2H56.6638V12.2ZM76.1358 11.2V13.312H78.1358V11.2H76.1358ZM77.1358 12.312H56.6638V14.312H77.1358V12.312ZM57.6638 13.312V11.2H55.6638V13.312H57.6638ZM58.0798 16.136H60.5038V14.136H58.0798V16.136ZM59.5038 15.136V19.144H61.5038V15.136H59.5038ZM60.5038 20.144H76.0798V18.144H60.5038V20.144ZM75.0798 19.144V21.256H77.0798V19.144H75.0798ZM76.0798 20.256H58.0798V22.256H76.0798V20.256ZM59.0798 21.256V15.136H57.0798V21.256H59.0798ZM96.4363 7.888L97.0059 7.06613L96.152 6.47422L95.5932 7.35018L96.4363 7.888ZM92.1403 12.28L91.6023 11.437L91.5987 11.4393L92.1403 12.28ZM86.8843 13.888H85.8843V14.888H86.8843V13.888ZM86.8843 11.632V10.632H85.8843V11.632H86.8843ZM91.0603 10.216L91.635 11.0343L91.6415 11.0297L91.0603 10.216ZM94.4923 6.376L93.6325 5.86526L93.631 5.86785L94.4923 6.376ZM96.4603 1.096L96.634 0.111215L95.6572 -0.0611617L95.4769 0.914206L96.4603 1.096ZM98.9083 1.528L99.8927 1.70345L100.068 0.717295L99.082 0.543215L98.9083 1.528ZM97.4683 5.992L96.5717 5.54901L96.1842 6.3333L96.91 6.82167L97.4683 5.992ZM106.492 12.064L107.318 12.6283L107.886 11.7967L107.051 11.2343L106.492 12.064ZM105.196 13.96L104.627 14.7819L105.454 15.3553L106.022 14.5243L105.196 13.96ZM106.948 18.28H107.948V17.28H106.948V18.28ZM106.948 20.512V21.512H107.948V20.512H106.948ZM86.4763 20.512H85.4763V21.512H86.4763V20.512ZM86.4763 18.28V17.28H85.4763V18.28H86.4763ZM95.5932 7.35018C94.4792 9.09643 93.1473 10.4512 91.6023 11.437L92.6782 13.123C94.4932 11.9648 96.0253 10.3916 97.2793 8.42581L95.5932 7.35018ZM91.5987 11.4393C90.0834 12.4156 88.5175 12.888 86.8843 12.888V14.888C88.931 14.888 90.8691 14.2884 92.6818 13.1207L91.5987 11.4393ZM87.8843 13.888V11.632H85.8843V13.888H87.8843ZM86.8843 12.632C88.558 12.632 90.1472 12.0793 91.635 11.0343L90.4855 9.39768C89.2853 10.2407 88.0905 10.632 86.8843 10.632V12.632ZM91.6415 11.0297C93.1125 9.97898 94.3474 8.58942 95.3535 6.88415L93.631 5.86785C92.7491 7.36258 91.696 8.53302 90.479 9.40227L91.6415 11.0297ZM95.352 6.88673C96.3741 5.16618 97.0708 3.29432 97.4436 1.27779L95.4769 0.914206C95.1457 2.70568 94.5304 4.35382 93.6325 5.86526L95.352 6.88673ZM96.2865 2.08078L98.7345 2.51278L99.082 0.543215L96.634 0.111215L96.2865 2.08078ZM97.9238 1.35255C97.651 2.88324 97.1987 4.28023 96.5717 5.54901L98.3648 6.43499C99.0818 4.98377 99.5895 3.40475 99.8927 1.70345L97.9238 1.35255ZM96.91 6.82167L105.934 12.8937L107.051 11.2343L98.0265 5.16233L96.91 6.82167ZM105.667 11.4997L104.371 13.3957L106.022 14.5243L107.318 12.6283L105.667 11.4997ZM105.766 13.1381L97.0059 7.06613L95.8666 8.70987L104.627 14.7819L105.766 13.1381ZM105.948 18.28V20.512H107.948V18.28H105.948ZM106.948 19.512H86.4763V21.512H106.948V19.512ZM87.4763 20.512V18.28H85.4763V20.512H87.4763ZM86.4763 19.28H106.948V17.28H86.4763V19.28ZM128.858 0.999999H129.858V-1.43051e-06H128.858V0.999999ZM128.858 21.496V22.496H129.858V21.496H128.858ZM126.458 21.496H125.458V22.496H126.458V21.496ZM126.458 11.584H127.458V10.584H126.458V11.584ZM122.666 11.584H121.666V12.584H122.666V11.584ZM122.666 9.352V8.352H121.666V9.352H122.666ZM126.458 9.352V10.352H127.458V9.352H126.458ZM126.458 0.999999V-1.43051e-06H125.458V0.999999H126.458ZM121.394 17.824L121.217 16.8399L121.214 16.8404L121.394 17.824ZM123.794 17.104H124.794V15.5045L123.356 16.205L123.794 17.104ZM123.794 19.288L124.241 20.1824L124.794 19.906V19.288H123.794ZM121.442 20.008L121.623 20.9916L121.623 20.9916L121.442 20.008ZM110.642 20.272H109.642V21.272H110.642V20.272ZM110.642 1.744V0.743999H109.642V1.744H110.642ZM122.354 1.744H123.354V0.743999H122.354V1.744ZM122.354 3.928V4.928H123.354V3.928H122.354ZM113.018 3.928V2.928H112.018V3.928H113.018ZM113.018 9.76H112.018V10.76H113.018V9.76ZM121.202 9.76H122.202V8.76H121.202V9.76ZM121.202 11.944V12.944H122.202V11.944H121.202ZM113.018 11.944V10.944H112.018V11.944H113.018ZM113.018 18.088H112.018V19.088H113.018V18.088ZM127.858 0.999999V21.496H129.858V0.999999H127.858ZM128.858 20.496H126.458V22.496H128.858V20.496ZM127.458 21.496V11.584H125.458V21.496H127.458ZM126.458 10.584H122.666V12.584H126.458V10.584ZM123.666 11.584V9.352H121.666V11.584H123.666ZM122.666 10.352H126.458V8.352H122.666V10.352ZM127.458 9.352V0.999999H125.458V9.352H127.458ZM126.458 2H128.858V-1.43051e-06H126.458V2ZM118.49 19.088C119.527 19.088 120.555 18.9945 121.575 18.8076L121.214 16.8404C120.313 17.0055 119.406 17.088 118.49 17.088V19.088ZM121.572 18.8081C122.603 18.6222 123.499 18.3603 124.232 18.003L123.356 16.205C122.842 16.4557 122.138 16.6738 121.217 16.8399L121.572 18.8081ZM122.794 17.104V19.288H124.794V17.104H122.794ZM123.347 18.3936C122.851 18.6415 122.166 18.8587 121.262 19.0244L121.623 20.9916C122.639 20.8053 123.521 20.5425 124.241 20.1824L123.347 18.3936ZM121.262 19.0244C120.363 19.1891 119.44 19.272 118.49 19.272V21.272C119.557 21.272 120.601 21.1789 121.623 20.9916L121.262 19.0244ZM118.49 19.272H110.642V21.272H118.49V19.272ZM111.642 20.272V1.744H109.642V20.272H111.642ZM110.642 2.744H122.354V0.743999H110.642V2.744ZM121.354 1.744V3.928H123.354V1.744H121.354ZM122.354 2.928H113.018V4.928H122.354V2.928ZM112.018 3.928V9.76H114.018V3.928H112.018ZM113.018 10.76H121.202V8.76H113.018V10.76ZM120.202 9.76V11.944H122.202V9.76H120.202ZM121.202 10.944H113.018V12.944H121.202V10.944ZM112.018 11.944V18.088H114.018V11.944H112.018ZM113.018 19.088H118.49V17.088H113.018V19.088ZM149.4 0.999999V-1.43051e-06H148.4V0.999999H149.4ZM151.776 0.999999H152.776V-1.43051e-06H151.776V0.999999ZM151.776 21.496L151.786 22.4959L152.776 22.486V21.496H151.776ZM149.4 21.52H148.4V22.5302L149.41 22.5199L149.4 21.52ZM133.848 1.744V0.743999H132.848V1.744H133.848ZM145.896 1.744H146.896V0.743999H145.896V1.744ZM145.896 3.928V4.928H146.896V3.928H145.896ZM136.248 3.928V2.928H135.248V3.928H136.248ZM136.248 18.088H135.248V19.088H136.248V18.088ZM145.104 17.824L144.927 16.8399L144.924 16.8404L145.104 17.824ZM147.504 17.104H148.504V15.5045L147.066 16.205L147.504 17.104ZM147.504 19.288L147.942 20.187L148.504 19.9132V19.288H147.504ZM145.08 20.008L144.905 19.0234L144.903 19.0239L145.08 20.008ZM133.848 20.272H132.848V21.272H133.848V20.272ZM149.4 2H151.776V-1.43051e-06H149.4V2ZM150.776 0.999999V21.496H152.776V0.999999H150.776ZM151.766 20.4961L149.39 20.5201L149.41 22.5199L151.786 22.4959L151.766 20.4961ZM150.4 21.52V0.999999H148.4V21.52H150.4ZM133.848 2.744H145.896V0.743999H133.848V2.744ZM144.896 1.744V3.928H146.896V1.744H144.896ZM145.896 2.928H136.248V4.928H145.896V2.928ZM135.248 3.928V18.088H137.248V3.928H135.248ZM136.248 19.088H142.2V17.088H136.248V19.088ZM142.2 19.088C143.237 19.088 144.265 18.9945 145.284 18.8076L144.924 16.8404C144.023 17.0055 143.116 17.088 142.2 17.088V19.088ZM145.282 18.8081C146.313 18.6222 147.209 18.3603 147.942 18.003L147.066 16.205C146.552 16.4557 145.848 16.6738 144.927 16.8399L145.282 18.8081ZM146.504 17.104V19.288H148.504V17.104H146.504ZM147.066 18.389C146.554 18.6386 145.843 18.857 144.905 19.0234L145.255 20.9926C146.301 20.807 147.206 20.5454 147.942 20.187L147.066 18.389ZM144.903 19.0239C143.985 19.1893 143.061 19.272 142.128 19.272V21.272C143.18 21.272 144.223 21.1787 145.258 20.9921L144.903 19.0239ZM142.128 19.272H133.848V21.272H142.128V19.272ZM134.848 20.272V1.744H132.848V20.272H134.848ZM157.222 4.312V3.312H156.222V4.312H157.222ZM172.438 4.312V5.312H173.438V4.312H172.438ZM172.438 2.92H173.438V1.92H172.438V2.92ZM157.222 2.92H156.222V3.92H157.222V2.92ZM157.222 1.24V0.24H156.222V1.24H157.222ZM174.742 1.24H175.742V0.24H174.742V1.24ZM174.742 5.896V6.896H175.742V5.896H174.742ZM159.526 5.896V4.896H158.526V5.896H159.526ZM159.526 7.264H158.526V8.264H159.526V7.264ZM175.03 7.264H176.03V6.264H175.03V7.264ZM175.03 8.944V9.944H176.03V8.944H175.03ZM157.222 8.944H156.222V9.944H157.222V8.944ZM155.734 10.432V9.432H154.734V10.432H155.734ZM176.206 10.432H177.206V9.432H176.206V10.432ZM176.206 12.16V13.16H177.206V12.16H176.206ZM155.734 12.16H154.734V13.16H155.734V12.16ZM157.15 16.648V15.648H156.15V16.648H157.15ZM172.486 16.648V17.648H173.486V16.648H172.486ZM172.486 15.328H173.486V14.328H172.486V15.328ZM157.102 15.328H156.102V16.328H157.102V15.328ZM157.102 13.648V12.648H156.102V13.648H157.102ZM174.79 13.648H175.79V12.648H174.79V13.648ZM174.79 18.232V19.232H175.79V18.232H174.79ZM159.454 18.232V17.232H158.454V18.232H159.454ZM159.454 19.576H158.454V20.576H159.454V19.576ZM175.15 19.576H176.15V18.576H175.15V19.576ZM175.15 21.256V22.256H176.15V21.256H175.15ZM157.15 21.256H156.15V22.256H157.15V21.256ZM157.222 5.312H172.438V3.312H157.222V5.312ZM173.438 4.312V2.92H171.438V4.312H173.438ZM172.438 1.92H157.222V3.92H172.438V1.92ZM158.222 2.92V1.24H156.222V2.92H158.222ZM157.222 2.24H174.742V0.24H157.222V2.24ZM173.742 1.24V5.896H175.742V1.24H173.742ZM174.742 4.896H159.526V6.896H174.742V4.896ZM158.526 5.896V7.264H160.526V5.896H158.526ZM159.526 8.264H175.03V6.264H159.526V8.264ZM174.03 7.264V8.944H176.03V7.264H174.03ZM175.03 7.944H157.222V9.944H175.03V7.944ZM158.222 8.944V4.312H156.222V8.944H158.222ZM155.734 11.432H176.206V9.432H155.734V11.432ZM175.206 10.432V12.16H177.206V10.432H175.206ZM176.206 11.16H155.734V13.16H176.206V11.16ZM156.734 12.16V10.432H154.734V12.16H156.734ZM157.15 17.648H172.486V15.648H157.15V17.648ZM173.486 16.648V15.328H171.486V16.648H173.486ZM172.486 14.328H157.102V16.328H172.486V14.328ZM158.102 15.328V13.648H156.102V15.328H158.102ZM157.102 14.648H174.79V12.648H157.102V14.648ZM173.79 13.648V18.232H175.79V13.648H173.79ZM174.79 17.232H159.454V19.232H174.79V17.232ZM158.454 18.232V19.576H160.454V18.232H158.454ZM159.454 20.576H175.15V18.576H159.454V20.576ZM174.15 19.576V21.256H176.15V19.576H174.15ZM175.15 20.256H157.15V22.256H175.15V20.256ZM158.15 21.256V16.648H156.15V21.256H158.15ZM195.219 8.584L195.574 7.64936L194.932 7.40504L194.474 7.91688L195.219 8.584ZM191.427 11.152L191.049 10.2261L191.045 10.2275L191.427 11.152ZM186.195 12.28H185.195V13.3395L186.252 13.2783L186.195 12.28ZM186.195 10.096L186.12 9.09877L185.195 9.16785V10.096H186.195ZM191.619 8.488L192.145 9.33807L192.148 9.33651L191.619 8.488ZM194.475 4.984L195.434 5.26734L195.813 3.984H194.475V4.984ZM186.723 4.984H185.723V5.984H186.723V4.984ZM186.723 2.824V1.824H185.723V2.824H186.723ZM194.499 2.824V3.824H195.499V2.824H194.499ZM194.499 0.495999V-0.504001H193.499V0.495999H194.499ZM196.947 0.495999H197.947V-0.504001H196.947V0.495999ZM196.947 2.824H195.947V3.824H196.947V2.824ZM204.819 2.824H205.819V1.824H204.819V2.824ZM204.819 4.984V5.984H205.819V4.984H204.819ZM197.043 4.984V3.984H196.223L196.062 4.78788L197.043 4.984ZM196.443 6.784L195.531 6.37364L195.091 7.35172L196.097 7.72239L196.443 6.784ZM205.371 10.072L206.301 10.4397L206.677 9.48746L205.716 9.13361L205.371 10.072ZM204.555 12.136L204.199 13.0706L205.122 13.4217L205.485 12.5037L204.555 12.136ZM206.019 16.456V17.456H207.019V16.456H206.019ZM196.971 16.456V15.456H195.971V16.456H196.971ZM196.971 21.976V22.976H197.971V21.976H196.971ZM194.547 21.976H193.547V22.976H194.547V21.976ZM194.547 16.456H195.547V15.456H194.547V16.456ZM185.547 16.456H184.547V17.456H185.547V16.456ZM185.547 14.248V13.248H184.547V14.248H185.547ZM206.019 14.248H207.019V13.248H206.019V14.248ZM194.474 7.91688C193.631 8.85762 192.501 9.63338 191.049 10.2262L191.804 12.0778C193.488 11.3906 194.886 10.4544 195.964 9.25112L194.474 7.91688ZM191.045 10.2275C189.611 10.819 187.979 11.1751 186.137 11.2817L186.252 13.2783C188.283 13.1609 190.138 12.765 191.808 12.0765L191.045 10.2275ZM187.195 12.28V10.096H185.195V12.28H187.195ZM186.269 11.0932C188.535 10.9241 190.507 10.3528 192.145 9.33807L191.092 7.63793C189.786 8.44718 188.142 8.9479 186.12 9.09877L186.269 11.0932ZM192.148 9.33651C193.801 8.30555 194.935 6.95394 195.434 5.26734L193.516 4.70065C193.182 5.83006 192.412 6.81445 191.089 7.63949L192.148 9.33651ZM194.475 3.984H186.723V5.984H194.475V3.984ZM187.723 4.984V2.824H185.723V4.984H187.723ZM186.723 3.824H194.499V1.824H186.723V3.824ZM195.499 2.824V0.495999H193.499V2.824H195.499ZM194.499 1.496H196.947V-0.504001H194.499V1.496ZM195.947 0.495999V2.824H197.947V0.495999H195.947ZM196.947 3.824H204.819V1.824H196.947V3.824ZM203.819 2.824V4.984H205.819V2.824H203.819ZM204.819 3.984H197.043V5.984H204.819V3.984ZM196.062 4.78788C195.968 5.2596 195.794 5.78728 195.531 6.37364L197.354 7.19436C197.667 6.50071 197.893 5.8284 198.023 5.18012L196.062 4.78788ZM196.097 7.72239L205.025 11.0104L205.716 9.13361L196.788 5.84561L196.097 7.72239ZM204.441 9.70434L203.625 11.7683L205.485 12.5037L206.301 10.4397L204.441 9.70434ZM204.91 11.2014L195.574 7.64936L194.863 9.51864L204.199 13.0706L204.91 11.2014ZM206.019 15.456H196.971V17.456H206.019V15.456ZM195.971 16.456V21.976H197.971V16.456H195.971ZM196.971 20.976H194.547V22.976H196.971V20.976ZM195.547 21.976V16.456H193.547V21.976H195.547ZM194.547 15.456H185.547V17.456H194.547V15.456ZM186.547 16.456V14.248H184.547V16.456H186.547ZM185.547 15.248H206.019V13.248H185.547V15.248ZM205.019 14.248V16.456H207.019V14.248H205.019ZM215.737 9.616L216.305 8.79344L215.438 8.1941L214.885 9.09125L215.737 9.616ZM212.929 12.448L213.458 13.296L213.458 13.296L212.929 12.448ZM209.041 13.768H208.041V14.8853L209.151 14.7619L209.041 13.768ZM209.041 11.656L208.886 10.6681L208.041 10.8006V11.656H209.041ZM212.977 9.568L213.73 10.2258L213.734 10.2205L212.977 9.568ZM214.705 5.176L215.7 5.26573L215.799 4.176H214.705V5.176ZM209.257 5.176H208.257V6.176H209.257V5.176ZM209.257 3.136V2.136H208.257V3.136H209.257ZM214.681 3.136V4.136H215.681V3.136H214.681ZM214.681 0.639999V-0.360001H213.681V0.639999H214.681ZM217.081 0.639999H218.081V-0.360001H217.081V0.639999ZM217.081 3.136H216.081V4.136H217.081V3.136ZM222.433 3.136H223.433V2.136H222.433V3.136ZM222.433 5.176V6.176H223.433V5.176H222.433ZM217.105 5.176V4.176H216.184L216.108 5.09295L217.105 5.176ZM216.625 7.672L215.678 7.34932L215.432 8.07201L216.064 8.50006L216.625 7.672ZM222.793 11.848L223.619 12.4103L224.183 11.5817L223.353 11.0199L222.793 11.848ZM221.569 13.648L221 14.4706L221.829 15.0436L222.395 14.2103L221.569 13.648ZM225.553 6.616V7.616H226.553V6.616H225.553ZM225.553 0.999999V-1.43051e-06H224.553V0.999999H225.553ZM227.929 0.999999H228.929V-1.43051e-06H227.929V0.999999ZM227.929 16.288V17.288H228.929V16.288H227.929ZM225.553 16.288H224.553V17.288H225.553V16.288ZM225.553 8.8H226.553V7.8H225.553V8.8ZM221.617 8.8H220.617V9.8H221.617V8.8ZM221.617 6.616V5.616H220.617V6.616H221.617ZM228.361 19.12H229.361V18.12H228.361V19.12ZM228.361 21.232V22.232H229.361V21.232H228.361ZM210.48 21.232H209.48V22.232H210.48V21.232ZM210.48 15.448V14.448H209.48V15.448H210.48ZM212.905 15.448H213.905V14.448H212.905V15.448ZM212.905 19.12H211.905V20.12H212.905V19.12ZM214.885 9.09125C214.245 10.1296 213.419 10.9624 212.399 11.6L213.458 13.296C214.742 12.4936 215.788 11.4384 216.588 10.1407L214.885 9.09125ZM212.399 11.6C211.382 12.2353 210.231 12.6295 208.93 12.7741L209.151 14.7619C210.73 14.5865 212.171 14.1007 213.458 13.296L212.399 11.6ZM210.041 13.768V11.656H208.041V13.768H210.041ZM209.195 12.6439C211.036 12.3552 212.568 11.5559 213.73 10.2258L212.223 8.91025C211.401 9.85208 210.309 10.4448 208.886 10.6681L209.195 12.6439ZM213.734 10.2205C214.885 8.88436 215.525 7.21255 215.7 5.26573L213.709 5.08627C213.564 6.69144 213.052 7.94764 212.219 8.91548L213.734 10.2205ZM214.705 4.176H209.257V6.176H214.705V4.176ZM210.257 5.176V3.136H208.257V5.176H210.257ZM209.257 4.136H214.681V2.136H209.257V4.136ZM215.681 3.136V0.639999H213.681V3.136H215.681ZM214.681 1.64H217.081V-0.360001H214.681V1.64ZM216.081 0.639999V3.136H218.081V0.639999H216.081ZM217.081 4.136H222.433V2.136H217.081V4.136ZM221.433 3.136V5.176H223.433V3.136H221.433ZM222.433 4.176H217.105V6.176H222.433V4.176ZM216.108 5.09295C216.033 5.99393 215.885 6.74172 215.678 7.34932L217.571 7.99467C217.844 7.19428 218.016 6.27807 218.101 5.25904L216.108 5.09295ZM216.064 8.50006L222.232 12.6761L223.353 11.0199L217.185 6.84394L216.064 8.50006ZM221.966 11.2857L220.742 13.0857L222.395 14.2103L223.619 12.4103L221.966 11.2857ZM222.137 12.8254L216.305 8.79344L215.168 10.4386L221 14.4706L222.137 12.8254ZM226.553 6.616V0.999999H224.553V6.616H226.553ZM225.553 2H227.929V-1.43051e-06H225.553V2ZM226.929 0.999999V16.288H228.929V0.999999H226.929ZM227.929 15.288H225.553V17.288H227.929V15.288ZM226.553 16.288V8.8H224.553V16.288H226.553ZM225.553 7.8H221.617V9.8H225.553V7.8ZM222.617 8.8V6.616H220.617V8.8H222.617ZM221.617 7.616H225.553V5.616H221.617V7.616ZM227.361 19.12V21.232H229.361V19.12H227.361ZM228.361 20.232H210.48V22.232H228.361V20.232ZM211.48 21.232V15.448H209.48V21.232H211.48ZM210.48 16.448H212.905V14.448H210.48V16.448ZM211.905 15.448V19.12H213.905V15.448H211.905ZM212.905 20.12H228.361V18.12H212.905V20.12ZM237.91 4.192H236.91V5.192H237.91V4.192ZM242.206 4.192H243.206V3.192H242.206V4.192ZM242.206 6.328V7.328H243.206V6.328H242.206ZM231.262 6.328H230.262V7.328H231.262V6.328ZM231.262 4.192V3.192H230.262V4.192H231.262ZM235.558 4.192V5.192H236.558V4.192H235.558ZM235.558 0.951999V-0.0480008H234.558V0.951999H235.558ZM237.91 0.951999H238.91V-0.0480008H237.91V0.951999ZM251.422 0.999999H252.422V-1.43051e-06H251.422V0.999999ZM251.422 21.496V22.496H252.422V21.496H251.422ZM249.214 21.496H248.214V22.496H249.214V21.496ZM249.214 11.488H250.214V10.488H249.214V11.488ZM245.926 11.488V10.488H244.926V11.488H245.926ZM245.926 21.136V22.136H246.926V21.136H245.926ZM243.718 21.136H242.718V22.136H243.718V21.136ZM243.718 1.12V0.119998H242.718V1.12H243.718ZM245.926 1.12H246.926V0.119998H245.926V1.12ZM245.926 9.256H244.926V10.256H245.926V9.256ZM249.214 9.256V10.256H250.214V9.256H249.214ZM249.214 0.999999V-1.43051e-06H248.214V0.999999H249.214ZM239.302 8.68L238.735 9.50351L238.741 9.50783L238.748 9.51205L239.302 8.68ZM240.982 10.816L240.062 11.2061L240.064 11.2127L240.067 11.2193L240.982 10.816ZM240.982 17.632L240.067 17.2287L240.064 17.2353L240.062 17.2419L240.982 17.632ZM239.302 19.768L238.748 18.9359L238.741 18.9402L238.735 18.9445L239.302 19.768ZM234.358 19.768L234.926 18.9445L234.922 18.9418L234.358 19.768ZM232.678 17.632L231.758 18.0221L231.76 18.0287L231.763 18.0353L232.678 17.632ZM232.678 10.816L231.763 10.4127L231.76 10.4193L231.758 10.4259L232.678 10.816ZM234.358 8.68L234.922 9.50624L234.926 9.50351L234.358 8.68ZM238.702 17.32L239.54 17.8663L239.545 17.858L238.702 17.32ZM238.702 11.152L237.859 11.6901L237.865 11.6983L238.702 11.152ZM234.982 11.152L234.14 10.614L234.137 10.6187L234.982 11.152ZM234.982 17.32L234.131 17.8451L234.138 17.8558L234.145 17.8663L234.982 17.32ZM237.91 5.192H242.206V3.192H237.91V5.192ZM241.206 4.192V6.328H243.206V4.192H241.206ZM242.206 5.328H231.262V7.328H242.206V5.328ZM232.262 6.328V4.192H230.262V6.328H232.262ZM231.262 5.192H235.558V3.192H231.262V5.192ZM236.558 4.192V0.951999H234.558V4.192H236.558ZM235.558 1.952H237.91V-0.0480008H235.558V1.952ZM236.91 0.951999V4.192H238.91V0.951999H236.91ZM250.422 0.999999V21.496H252.422V0.999999H250.422ZM251.422 20.496H249.214V22.496H251.422V20.496ZM250.214 21.496V11.488H248.214V21.496H250.214ZM249.214 10.488H245.926V12.488H249.214V10.488ZM244.926 11.488V21.136H246.926V11.488H244.926ZM245.926 20.136H243.718V22.136H245.926V20.136ZM244.718 21.136V1.12H242.718V21.136H244.718ZM243.718 2.12H245.926V0.119998H243.718V2.12ZM244.926 1.12V9.256H246.926V1.12H244.926ZM245.926 10.256H249.214V8.256H245.926V10.256ZM250.214 9.256V0.999999H248.214V9.256H250.214ZM249.214 2H251.422V-1.43051e-06H249.214V2ZM236.83 8.936C237.569 8.936 238.192 9.12968 238.735 9.50351L239.87 7.85649C238.972 7.23832 237.948 6.936 236.83 6.936V8.936ZM238.748 9.51205C239.277 9.86495 239.724 10.4082 240.062 11.2061L241.903 10.4259C241.441 9.33578 240.768 8.45505 239.857 7.84795L238.748 9.51205ZM240.067 11.2193C240.414 12.0053 240.606 12.9966 240.606 14.224H242.606C242.606 12.7954 242.383 11.5147 241.898 10.4127L240.067 11.2193ZM240.606 14.224C240.606 15.4514 240.414 16.4427 240.067 17.2287L241.898 18.0353C242.383 16.9333 242.606 15.6526 242.606 14.224H240.606ZM240.062 17.2419C239.724 18.0398 239.277 18.5831 238.748 18.9359L239.857 20.6001C240.768 19.9929 241.441 19.1122 241.903 18.0221L240.062 17.2419ZM238.735 18.9445C238.192 19.3183 237.569 19.512 236.83 19.512V21.512C237.948 21.512 238.972 21.2097 239.87 20.5915L238.735 18.9445ZM236.83 19.512C236.092 19.512 235.468 19.3183 234.926 18.9445L233.791 20.5915C234.688 21.2097 235.713 21.512 236.83 21.512V19.512ZM234.922 18.9418C234.402 18.5874 233.95 18.0379 233.594 17.2287L231.763 18.0353C232.239 19.1141 232.907 19.9886 233.795 20.5942L234.922 18.9418ZM233.599 17.2419C233.264 16.4519 233.078 15.4558 233.078 14.224H231.078C231.078 15.6482 231.292 16.9241 231.758 18.0221L233.599 17.2419ZM233.078 14.224C233.078 12.9922 233.264 11.9961 233.599 11.2061L231.758 10.4259C231.292 11.5239 231.078 12.7998 231.078 14.224H233.078ZM233.594 11.2193C233.95 10.4101 234.402 9.86061 234.922 9.50623L233.795 7.85377C232.907 8.45938 232.239 9.33388 231.763 10.4127L233.594 11.2193ZM234.926 9.50351C235.468 9.12968 236.092 8.936 236.83 8.936V6.936C235.713 6.936 234.688 7.23832 233.791 7.85649L234.926 9.50351ZM236.83 19.424C237.99 19.424 238.907 18.8376 239.54 17.8663L237.865 16.7737C237.538 17.2744 237.207 17.424 236.83 17.424V19.424ZM239.545 17.858C240.165 16.8865 240.422 15.6422 240.422 14.224H238.422C238.422 15.4298 238.199 16.2495 237.86 16.782L239.545 17.858ZM240.422 14.224C240.422 12.8077 240.166 11.5658 239.54 10.6057L237.865 11.6983C238.199 12.2102 238.422 13.0163 238.422 14.224H240.422ZM239.545 10.614C238.916 9.62862 238 9.024 236.83 9.024V11.024C237.197 11.024 237.528 11.1714 237.86 11.69L239.545 10.614ZM236.83 9.024C235.669 9.024 234.763 9.63653 234.14 10.614L235.825 11.69C236.161 11.1635 236.488 11.024 236.83 11.024V9.024ZM234.137 10.6187C233.533 11.576 233.286 12.8125 233.286 14.224H235.286C235.286 13.0115 235.504 12.2 235.828 11.6853L234.137 10.6187ZM233.286 14.224C233.286 15.6374 233.534 16.8764 234.131 17.8451L235.833 16.7949C235.503 16.2596 235.286 15.4346 235.286 14.224H233.286ZM234.145 17.8663C234.773 18.8298 235.679 19.424 236.83 19.424V17.424C236.478 17.424 236.152 17.2822 235.82 16.7737L234.145 17.8663ZM262.875 1.744V0.743999H261.875V1.744H262.875ZM280.659 1.744H281.659V0.743999H280.659V1.744ZM280.659 3.952V4.952H281.659V3.952H280.659ZM265.299 3.952V2.952H264.299V3.952H265.299ZM265.299 11.632H264.299V12.632H265.299V11.632ZM280.899 11.632H281.899V10.632H280.899V11.632ZM280.899 13.84V14.84H281.899V13.84H280.899ZM262.875 13.84H261.875V14.84H262.875V13.84ZM261.531 18.28V17.28H260.531V18.28H261.531ZM282.003 18.28H283.003V17.28H282.003V18.28ZM282.003 20.512V21.512H283.003V20.512H282.003ZM261.531 20.512H260.531V21.512H261.531V20.512ZM262.875 2.744H280.659V0.743999H262.875V2.744ZM279.659 1.744V3.952H281.659V1.744H279.659ZM280.659 2.952H265.299V4.952H280.659V2.952ZM264.299 3.952V11.632H266.299V3.952H264.299ZM265.299 12.632H280.899V10.632H265.299V12.632ZM279.899 11.632V13.84H281.899V11.632H279.899ZM280.899 12.84H262.875V14.84H280.899V12.84ZM263.875 13.84V1.744H261.875V13.84H263.875ZM261.531 19.28H282.003V17.28H261.531V19.28ZM281.003 18.28V20.512H283.003V18.28H281.003ZM282.003 19.512H261.531V21.512H282.003V19.512ZM262.531 20.512V18.28H260.531V20.512H262.531ZM301.369 0.999999V-1.43051e-06H300.369V0.999999H301.369ZM303.745 0.999999H304.745V-1.43051e-06H303.745V0.999999ZM303.745 11.488V12.488H304.745V11.488H303.745ZM301.369 11.488H300.369V12.488H301.369V11.488ZM285.553 5.368V4.368H284.553V5.368H285.553ZM295.321 5.368V6.368H296.321V5.368H295.321ZM295.321 3.28H296.321V2.28H295.321V3.28ZM285.505 3.28H284.505V4.28H285.505V3.28ZM285.505 1.504V0.503999H284.505V1.504H285.505ZM297.673 1.504H298.673V0.503999H297.673V1.504ZM297.673 7.048V8.048H298.673V7.048H297.673ZM287.905 7.048V6.048H286.905V7.048H287.905ZM287.905 9.16H286.905V10.16H287.905V9.16ZM297.073 8.92L296.933 7.92977L296.931 7.93005L297.073 8.92ZM299.761 8.224H300.761V6.65843L299.34 7.31669L299.761 8.224ZM299.761 10.024L300.171 10.9359L300.761 10.6706V10.024H299.761ZM297.073 10.696L296.935 9.70551L296.935 9.70551L297.073 10.696ZM285.553 10.936H284.553V11.936H285.553V10.936ZM286.393 16.072V15.072H285.393V16.072H286.393ZM301.417 16.072V17.072H302.417V16.072H301.417ZM301.417 14.392H302.417V13.392H301.417V14.392ZM286.345 14.392H285.345V15.392H286.345V14.392ZM286.345 12.616V11.616H285.345V12.616H286.345ZM303.745 12.616H304.745V11.616H303.745V12.616ZM303.745 17.752V18.752H304.745V17.752H303.745ZM288.721 17.752V16.752H287.721V17.752H288.721ZM288.721 19.456H287.721V20.456H288.721V19.456ZM304.249 19.456H305.249V18.456H304.249V19.456ZM304.249 21.232V22.232H305.249V21.232H304.249ZM286.393 21.232H285.393V22.232H286.393V21.232ZM301.369 2H303.745V-1.43051e-06H301.369V2ZM302.745 0.999999V11.488H304.745V0.999999H302.745ZM303.745 10.488H301.369V12.488H303.745V10.488ZM302.369 11.488V0.999999H300.369V11.488H302.369ZM285.553 6.368H295.321V4.368H285.553V6.368ZM296.321 5.368V3.28H294.321V5.368H296.321ZM295.321 2.28H285.505V4.28H295.321V2.28ZM286.505 3.28V1.504H284.505V3.28H286.505ZM285.505 2.504H297.673V0.503999H285.505V2.504ZM296.673 1.504V7.048H298.673V1.504H296.673ZM297.673 6.048H287.905V8.048H297.673V6.048ZM286.905 7.048V9.16H288.905V7.048H286.905ZM287.905 10.16H293.305V8.16H287.905V10.16ZM293.305 10.16C294.734 10.16 296.038 10.078 297.214 9.90995L296.931 7.93005C295.868 8.08204 294.66 8.16 293.305 8.16V10.16ZM297.212 9.91023C298.396 9.74356 299.4 9.49346 300.181 9.13131L299.34 7.31669C298.81 7.56254 298.022 7.77644 296.933 7.92977L297.212 9.91023ZM298.761 8.224V10.024H300.761V8.224H298.761ZM299.351 9.11208C298.835 9.34388 298.046 9.55121 296.935 9.70551L297.21 11.6865C298.404 11.5208 299.406 11.2801 300.171 10.9359L299.351 9.11208ZM296.935 9.70551C295.838 9.85796 294.597 9.936 293.209 9.936V11.936C294.669 11.936 296.004 11.854 297.21 11.6865L296.935 9.70551ZM293.209 9.936H285.553V11.936H293.209V9.936ZM286.553 10.936V5.368H284.553V10.936H286.553ZM286.393 17.072H301.417V15.072H286.393V17.072ZM302.417 16.072V14.392H300.417V16.072H302.417ZM301.417 13.392H286.345V15.392H301.417V13.392ZM287.345 14.392V12.616H285.345V14.392H287.345ZM286.345 13.616H303.745V11.616H286.345V13.616ZM302.745 12.616V17.752H304.745V12.616H302.745ZM303.745 16.752H288.721V18.752H303.745V16.752ZM287.721 17.752V19.456H289.721V17.752H287.721ZM288.721 20.456H304.249V18.456H288.721V20.456ZM303.249 19.456V21.232H305.249V19.456H303.249ZM304.249 20.232H286.393V22.232H304.249V20.232ZM287.393 21.232V16.072H285.393V21.232H287.393ZM327.407 0.999999H328.407V-1.43051e-06H327.407V0.999999ZM327.407 21.496V22.496H328.407V21.496H327.407ZM325.127 21.496H324.127V22.496H325.127V21.496ZM325.127 0.999999V-1.43051e-06H324.127V0.999999H325.127ZM320.015 1.12V0.119998H319.015V1.12H320.015ZM322.271 1.12H323.271V0.119998H322.271V1.12ZM322.271 21.136V22.136H323.271V21.136H322.271ZM320.015 21.136H319.015V22.136H320.015V21.136ZM320.015 11.512H321.015V10.512H320.015V11.512ZM316.343 11.512V10.512H315.513L315.36 11.3277L316.343 11.512ZM314.663 16.168L313.804 15.655L313.803 15.6582L314.663 16.168ZM311.831 19.144L311.307 18.2919L311.3 18.2963L311.293 18.3008L311.831 19.144ZM308.159 20.224H307.159V21.236L308.171 21.2239L308.159 20.224ZM308.159 17.992L308.134 16.9923L307.159 17.017V17.992H308.159ZM311.471 16.624L312.153 17.3555L312.159 17.3493L311.471 16.624ZM313.655 12.904L312.703 12.5964L312.703 12.5964L313.655 12.904ZM314.423 3.904H315.423V2.904H314.423V3.904ZM308.159 3.904H307.159V4.904H308.159V3.904ZM308.159 1.744V0.743999H307.159V1.744H308.159ZM316.727 1.744H317.727V0.743999H316.727V1.744ZM316.655 9.256L315.657 9.18302L315.579 10.256H316.655V9.256ZM320.015 9.256V10.256H321.015V9.256H320.015ZM326.407 0.999999V21.496H328.407V0.999999H326.407ZM327.407 20.496H325.127V22.496H327.407V20.496ZM326.127 21.496V0.999999H324.127V21.496H326.127ZM325.127 2H327.407V-1.43051e-06H325.127V2ZM320.015 2.12H322.271V0.119998H320.015V2.12ZM321.271 1.12V21.136H323.271V1.12H321.271ZM322.271 20.136H320.015V22.136H322.271V20.136ZM321.015 21.136V11.512H319.015V21.136H321.015ZM320.015 10.512H316.343V12.512H320.015V10.512ZM315.36 11.3277C315.042 13.0255 314.517 14.4618 313.804 15.655L315.521 16.681C316.376 15.2502 316.972 13.5825 317.326 11.6963L315.36 11.3277ZM313.803 15.6582C313.105 16.835 312.27 17.7006 311.307 18.2919L312.354 19.9961C313.632 19.2114 314.684 18.093 315.523 16.6778L313.803 15.6582ZM311.293 18.3008C310.351 18.9018 309.31 19.2102 308.147 19.2241L308.171 21.2239C309.696 21.2058 311.103 20.7942 312.368 19.9872L311.293 18.3008ZM309.159 20.224V17.992H307.159V20.224H309.159ZM308.184 18.9917C309.698 18.9534 311.034 18.3983 312.153 17.3555L310.789 15.8925C310.02 16.6097 309.148 16.9666 308.134 16.9923L308.184 18.9917ZM312.159 17.3493C313.254 16.3105 314.057 14.9113 314.606 13.2116L312.703 12.5964C312.229 14.0647 311.576 15.1455 310.782 15.8987L312.159 17.3493ZM314.606 13.2116C315.158 11.5063 315.423 9.55863 315.423 7.384H313.423C313.423 9.40137 313.176 11.1337 312.703 12.5964L314.606 13.2116ZM315.423 7.384V3.904H313.423V7.384H315.423ZM314.423 2.904H308.159V4.904H314.423V2.904ZM309.159 3.904V1.744H307.159V3.904H309.159ZM308.159 2.744H316.727V0.743999H308.159V2.744ZM315.727 1.744V7.264H317.727V1.744H315.727ZM315.727 7.264C315.727 7.91217 315.704 8.55183 315.657 9.18302L317.652 9.32897C317.702 8.64817 317.727 7.95982 317.727 7.264H315.727ZM316.655 10.256H320.015V8.256H316.655V10.256ZM321.015 9.256V1.12H319.015V9.256H321.015ZM351.261 18.328H352.261V17.328H351.261V18.328ZM351.261 20.512V21.512H352.261V20.512H351.261ZM330.789 20.512H329.789V21.512H330.789V20.512ZM330.789 18.328V17.328H329.789V18.328H330.789ZM335.493 18.328V19.328H336.493V18.328H335.493ZM335.493 12.784H336.493V12.143L335.91 11.8753L335.493 12.784ZM332.733 10.648L331.919 11.2292L331.925 11.2375L331.931 11.2457L332.733 10.648ZM332.901 4.312L332.125 3.68088L332.119 3.68892L332.901 4.312ZM336.141 2.128L335.799 1.1882L335.796 1.18947L336.141 2.128ZM345.861 2.128L345.516 3.06653L345.519 3.06779L345.861 2.128ZM349.101 4.312L348.319 4.93511L348.325 4.94309L349.101 4.312ZM349.269 10.648L348.462 10.0573L348.46 10.0598L349.269 10.648ZM346.557 12.76L346.145 11.8488L345.557 12.1146V12.76H346.557ZM346.557 18.328H345.557V19.328H346.557V18.328ZM335.133 9.736L334.388 10.404L334.397 10.4135L335.133 9.736ZM337.485 11.152L337.169 12.1007L337.173 12.1022L337.485 11.152ZM346.917 9.736L347.652 10.4135L347.661 10.4039L346.917 9.736ZM346.917 5.464L346.172 6.13197L346.181 6.14148L346.917 5.464ZM344.541 4.024L344.229 4.97416L344.229 4.97416L344.541 4.024ZM337.485 4.024L337.173 3.07383L337.169 3.07532L337.485 4.024ZM335.133 5.464L335.868 6.14153L335.877 6.13191L335.133 5.464ZM337.869 18.328H336.869V19.328H337.869V18.328ZM344.181 18.328V19.328H345.181V18.328H344.181ZM344.181 13.528H345.181V12.3082L343.985 12.5474L344.181 13.528ZM337.869 13.528L338.065 12.5474L336.869 12.3082V13.528H337.869ZM350.261 18.328V20.512H352.261V18.328H350.261ZM351.261 19.512H330.789V21.512H351.261V19.512ZM331.789 20.512V18.328H329.789V20.512H331.789ZM330.789 19.328H335.493V17.328H330.789V19.328ZM336.493 18.328V12.784H334.493V18.328H336.493ZM335.91 11.8753C334.85 11.3881 334.073 10.7731 333.534 10.0503L331.931 11.2457C332.704 12.2829 333.768 13.0919 335.075 13.6927L335.91 11.8753ZM333.546 10.0668C333.032 9.34601 332.773 8.53463 332.773 7.6H330.773C330.773 8.93737 331.154 10.158 331.919 11.2292L333.546 10.0668ZM332.773 7.6C332.773 6.57003 333.077 5.69561 333.683 4.93508L332.119 3.68892C331.22 4.81638 330.773 6.13397 330.773 7.6H332.773ZM333.676 4.94309C334.309 4.16592 335.226 3.53009 336.486 3.06653L335.796 1.18947C334.272 1.74991 333.029 2.57008 332.125 3.68091L333.676 4.94309ZM336.482 3.06779C337.759 2.60354 339.264 2.36 341.013 2.36V0.36C339.082 0.36 337.338 0.628458 335.799 1.18821L336.482 3.06779ZM341.013 2.36C342.762 2.36 344.257 2.60365 345.516 3.06653L346.206 1.18947C344.68 0.628353 342.943 0.36 341.013 0.36V2.36ZM345.519 3.06779C346.795 3.53195 347.706 4.16631 348.319 4.93508L349.883 3.68892C348.991 2.56969 347.742 1.74805 346.202 1.18821L345.519 3.06779ZM348.325 4.94309C348.944 5.70388 349.253 6.57551 349.253 7.6H351.253C351.253 6.12848 350.794 4.80812 349.876 3.68091L348.325 4.94309ZM349.253 7.6C349.253 8.52881 348.989 9.33684 348.462 10.0573L350.076 11.2387C350.86 10.1672 351.253 8.94319 351.253 7.6H349.253ZM348.46 10.0598C347.939 10.7764 347.183 11.3794 346.145 11.8488L346.969 13.6712C348.266 13.0846 349.319 12.2796 350.077 11.2362L348.46 10.0598ZM345.557 12.76V18.328H347.557V12.76H345.557ZM346.557 19.328H351.261V17.328H346.557V19.328ZM333.293 7.6C333.293 8.65923 333.672 9.60607 334.389 10.4039L335.877 9.06809C335.473 8.61793 335.293 8.14077 335.293 7.6H333.293ZM334.397 10.4135C335.1 11.1764 336.045 11.7261 337.169 12.1007L337.801 10.2033C336.909 9.90591 336.286 9.51155 335.868 9.05852L334.397 10.4135ZM337.173 12.1022C338.318 12.4778 339.602 12.656 341.013 12.656V10.656C339.767 10.656 338.7 10.4982 337.797 10.2018L337.173 12.1022ZM341.013 12.656C342.423 12.656 343.708 12.4778 344.853 12.1022L344.229 10.2018C343.326 10.4982 342.258 10.656 341.013 10.656V12.656ZM344.853 12.1022C345.991 11.7286 346.947 11.1795 347.652 10.4135L346.181 9.05852C345.767 9.50846 345.139 9.90336 344.229 10.2018L344.853 12.1022ZM347.661 10.4039C348.377 9.60607 348.757 8.65923 348.757 7.6H346.757C346.757 8.14077 346.576 8.61793 346.173 9.06809L347.661 10.4039ZM348.757 7.6C348.757 6.52939 348.38 5.5765 347.652 4.78652L346.181 6.14148C346.574 6.5675 346.757 7.0386 346.757 7.6H348.757ZM347.661 4.79609C346.955 4.00964 345.996 3.44919 344.853 3.07384L344.229 4.97416C345.133 5.27081 345.758 5.67036 346.173 6.13191L347.661 4.79609ZM344.853 3.07384C343.708 2.69819 342.423 2.52 341.013 2.52V4.52C342.258 4.52 343.326 4.67781 344.229 4.97416L344.853 3.07384ZM341.013 2.52C339.602 2.52 338.318 2.69819 337.173 3.07384L337.797 4.97416C338.7 4.67781 339.767 4.52 341.013 4.52V2.52ZM337.169 3.07532C336.039 3.45178 335.091 4.01281 334.389 4.79609L335.877 6.13191C336.294 5.66719 336.914 5.26822 337.801 4.97268L337.169 3.07532ZM334.397 4.78652C333.67 5.57649 333.293 6.52939 333.293 7.6H335.293C335.293 7.03861 335.476 6.5675 335.868 6.14148L334.397 4.78652ZM337.869 19.328H344.181V17.328H337.869V19.328ZM345.181 18.328V13.528H343.181V18.328H345.181ZM343.985 12.5474C343.099 12.7245 342.11 12.816 341.013 12.816V14.816C342.219 14.816 343.342 14.7155 344.377 14.5086L343.985 12.5474ZM341.013 12.816C339.932 12.816 338.951 12.7246 338.065 12.5474L337.673 14.5086C338.707 14.7154 339.821 14.816 341.013 14.816V12.816ZM336.869 13.528V18.328H338.869V13.528H336.869Z" fill="black" mask="url(#path-1-outside-1_252_1872)"/>
</g>
<defs>
<filter id="filter0_d_252_1872" x="0.245117" y="0.496094" width="355.016" height="29.4795" filterUnits="userSpaceOnUse" color-interpolation-filters="sRGB">
<feFlood flood-opacity="0" result="BackgroundImageFix"/>
<feColorMatrix in="SourceAlpha" type="matrix" values="0 0 0 0 0 0 0 0 0 0 0 0 0 0 0 0 0 0 127 0" result="hardAlpha"/>
<feOffset dy="4"/>
<feGaussianBlur stdDeviation="2"/>
<feComposite in2="hardAlpha" operator="out"/>
<feColorMatrix type="matrix" values="0 0 0 0 0 0 0 0 0 0 0 0 0 0 0 0 0 0 0.25 0"/>
<feBlend mode="normal" in2="BackgroundImageFix" result="effect1_dropShadow_252_1872"/>
<feBlend mode="normal" in="SourceGraphic" in2="effect1_dropShadow_252_1872" result="shape"/>
</filter>
</defs>
</svg>
